<svg width="612" xmlns="http://www.w3.org/2000/svg" height="545pt" viewBox="0 0 459 545"><path d="M.47.888h457.842V424.41l-.21 4.395-.21 4.393-.417 4.395-.628 4.394-.838 4.185-1.046 3.976-1.255 4.185-1.465 3.767-1.465 3.975-1.883 3.558-1.883 3.766-2.093 3.348-2.302 3.348-2.72 3.348-2.72 2.93-2.72 2.93-3.14 2.719-3.347 2.72-3.348 2.303-3.767 2.51-3.766 1.883-3.767 2.093-4.184 1.674-4.186 1.674-4.394 1.256-4.604 1.256-4.603 1.254-4.813.837-5.021.628-5.232.419-5.231.209-5.441.209h-55.451l-3.35.209h-3.346l-3.35.419-3.137.209-3.14.419-2.93.419-2.93.627-2.927.628-2.721.628-2.72.628-2.72.837-2.721.837-2.511.837-2.302.836-2.51 1.046-2.302 1.047-2.302 1.046-2.302 1.047-2.092 1.255-2.093 1.256-2.092 1.255-2.093 1.255-2.092 1.256-1.883 1.465-1.884 1.465-1.883 1.464-1.674 1.465-1.884 1.465-1.673 1.464-1.883 1.674-7.324 7.324-7.325-7.324-1.882-1.674-1.674-1.464-1.884-1.465-1.674-1.465-1.883-1.464-1.883-1.465-2.092-1.465-1.884-1.256-2.093-1.255-2.092-1.255-2.092-1.256-2.093-1.255-2.302-1.047-2.302-1.046-2.301-1.047-2.511-1.046-2.511-.836-2.512-.837-2.51-.837-2.721-.837-2.72-.628-2.721-.628-2.928-.628-2.93-.627-3.14-.42-2.928-.418-3.14-.21-3.347-.418h-3.348l-3.558-.21H93.168l-5.44-.208-5.232-.21-5.23-.418-5.023-.628-4.812-.837-4.604-1.254-4.603-1.256-4.395-1.256-4.184-1.674-4.186-1.674-3.976-2.093-3.766-1.882-3.558-2.511-3.347-2.303-3.348-2.72-2.93-2.72-2.93-2.93-2.72-2.93-2.511-3.347-2.51-3.348-2.093-3.348-1.883-3.766-1.884-3.558-1.674-3.975-1.255-3.767-1.256-4.185-1.046-3.976-.837-4.185-.628-4.394-.418-4.395-.21-4.393-.208-4.395V.888z" fill="#fff" fill-rule="evenodd"/><path d="M6.12 6.328h446.751v418.083l-.21 4.186-.209 4.184-.419 4.186-.627 3.975-.838 3.976-1.046 3.976-1.045 3.557-1.256 3.766-1.465 3.557-1.674 3.558-1.883 3.14-1.884 3.346-2.3 3.14-2.303 2.93-2.51 2.72-2.722 2.72-2.719 2.51-3.139 2.512-3.139 2.301-3.348 2.092-3.557 1.884-3.557 1.883-3.767 1.674-4.186 1.465-3.975 1.255-4.394 1.256-4.394 1.046-4.813.628-4.603.837-5.023.42-5.02.208-5.233.21h-55.45l-3.558.208h-3.557l-3.348.42-3.348.208-3.139.42-3.139.627-3.138.418-2.93.628-2.93.627-2.929.837-2.929.837-2.72.837-2.512.837-2.719 1.046-2.512 1.047-2.51 1.046-2.303 1.256-2.51 1.046-2.302 1.255-2.093 1.256-2.302 1.255-2.092 1.465-2.092 1.465-2.093 1.465-2.093 1.464-1.884 1.465-1.882 1.674-1.883 1.674-1.884 1.465-1.674 1.674-3.766 3.557-3.558-3.557-1.883-1.674-1.884-1.465-1.882-1.674-1.883-1.674-1.884-1.465-2.093-1.464-2.092-1.465-2.092-1.465-2.093-1.465-2.092-1.255-2.302-1.256-2.51-1.255-2.303-1.046-2.302-1.256-2.51-1.046-2.51-1.047-2.722-1.046-2.51-.837-2.93-.837-2.72-.837-2.72-.837-2.93-.627-3.139-.628-3.139-.418-3.139-.628-3.138-.419-3.349-.209-3.348-.419h-3.557l-3.557-.209H93.169l-5.23-.209-5.023-.209-5.022-.419-4.813-.837-4.603-.628-4.394-1.046-4.394-1.256-4.186-1.255-3.767-1.465-3.975-1.674-3.767-1.883-3.347-1.884-3.35-2.092-3.138-2.3-3.138-2.513-2.72-2.51-2.72-2.72-2.512-2.72-2.301-2.93-2.302-3.14-1.884-3.347-1.883-3.139-1.674-3.558-1.465-3.557-1.255-3.766-1.255-3.557-.837-3.976-.837-3.976-.628-3.975-.419-4.186-.209-4.184V6.328z" fill="#161413" fill-rule="evenodd"/><path d="M8.63 9.048h441.31V424.41c0 44.779-28.667 76.377-84.327 76.377h-51.894c-39.967 0-65.495 13.81-84.328 32.434-18.832-18.623-44.571-32.434-84.328-32.434H93.168c-55.66 0-84.537-31.598-84.537-76.377V9.048z" fill="#a8002c" fill-rule="evenodd"/><path d="M104.887 383.816c3.347-12.554 11.09-19.042 23.854-21.133 12.346-2.093 25.947-8.998 40.804-15.904 6.277-4.603 7.114-2.511 2.511 6.487l-7.115 8.16c-3.766 4.185-4.603 8.58.628 12.764 7.115 3.558 10.044 6.907 8.998 9.835-7.743-2.091-14.857-1.046-20.925 4.605-4.394-1.256-9.625-.628-16.95 2.929-3.766-2.093-7.951-2.302-12.973-.837-1.255-3.14-4.813-3.976-10.881-2.93-1.674-1.883-4.395-3.14-7.951-3.976zm85.583 0c-7.532-7.742-8.37-14.647.21-20.506 4.812-3.348 11.926-11.09 20.716-22.808 5.858-.42 11.089-1.675 16.949-2.512 23.435-2.928 45.616-7.951 63.402-17.786 3.349-1.046 5.859-.418 7.324 2.093l13.811 18.205-3.976 1.465 10.462 7.95c-1.883 1.466-.628 2.512 1.675 3.349-1.256 1.883-.419 3.766 1.465 3.557.837 2.51 2.72 6.278-2.721 1.046-3.349-1.674-3.766 0-1.047 5.232l5.651 8.16c.419 3.767 1.882 6.906 4.812 9.626l4.604 9.417c0 1.464.837 2.928 1.256 4.184.627 3.558 1.464 5.44 4.394 5.86-2.93 5.649-6.696 10.88-12.974 14.228-12.345 6.696-22.18 3.976-21.134-12.346.628-8.788 2.301-16.112 2.511-25.11 3.557-14.02.209-21.134-11.927-21.971-6.278.209-11.09.209-14.648 2.72-3.348 2.302-8.161 1.465-14.647-2.302-12.556-9.416-21.972-14.438-28.249-14.438 6.068 6.906 7.742 13.81 2.929 20.716 5.022 2.3 4.813 4.603-.21 6.905-12.135.419-25.737-2.092-39.966-6.067-4.604-.838-5.441 0-2.302 2.51 10.463 4.185 16.112 10.463 16.112 19.25-6.695.21-12.346.629-15.484 1.257-2.93 1.883-6.069 1.674-8.998-1.884zm118.645 67.588c-3.557 1.884-4.394 3.976-1.046 6.069 2.302 1.465 3.557 1.673 3.976.628 4.184-.837-1.674-3.14-2.93-6.697zm-109.438-9.207c-2.302 1.674-3.348 3.558-2.092 6.069l4.603 3.975c1.883-1.674 1.465-4.184-.627-5.858-1.047-.838-1.674-2.302-1.884-4.186zm-53.569-21.971c3.349 1.465 3.349 4.603-.836 6.487-3.139-1.256-2.929-3.976.836-6.487zm-61.1-124.295c15.065 17.368 17.786 37.038 5.44 59.846-4.603 11.09-3.975 18.204 2.092 21.553 1.675-3.767 3.14-9.626 3.977-15.694 1.255-9.416 7.323-8.37 15.275-16.531 8.579-8.79 6.068-17.996 5.231-32.643-1.465-31.388 5.022-49.593 14.229-59.846-23.437-6.486-37.665 10.88-46.244 43.315zM99.864 36.25c-2.72.418-3.766 2.302-3.347 5.44l18.623 26.366c.628 1.256 1.883 2.511 1.673 3.557-1.464 3.558-2.091 5.86 1.047 8.998l6.278 6.069c.628 4.393 1.465 7.95 2.929 9.207-1.464 2.93.418 5.649 2.93 8.37.627.837.836 1.883 1.883 2.72l1.046 8.998c-8.788 7.323-13.183 12.764-14.02 16.112-.419 1.883-.837 3.348.419 4.394l12.346-1.255c1.046.627 2.302.836 2.72 1.673 1.883 4.395-.628 11.3-7.324 12.137-15.275 3.767-26.366 8.998-21.971 19.25 5.649 7.325 2.719 13.812-6.906 19.67-2.301 2.093-3.347 4.814-2.93 8.37-2.72 2.303-4.812 5.86-6.696 9.835-1.463 4.186-1.463 6.068 1.465 5.65 21.344-7.115 42.27-10.043 57.126 2.302 7.324 6.069 6.069 9.207 17.577 9.835-1.255 4.813 0 7.532 4.185 8.369l.628 5.442c-4.604 1.046-9.835 1.046-14.439 2.302-5.231 1.254-10.252 3.347-14.856 3.347-3.976-3.138-8.579-5.021-12.346-7.323-19.251-11.928-35.364-12.556-49.384 3.766-7.323 8.58-14.019 20.297-19.46 38.293-1.045 3.138-3.557 4.394-8.579 1.464-10.044-8.16-11.927-15.484-6.905-20.296 7.114-6.697 9.835-2.721 6.068.836l.21.837c5.44 0 7.533 3.767 9.624 7.743 4.605-11.928 2.093-20.088-4.393-26.576l-1.465-.21.628 10.254c-11.09-2.301-17.16 6.279-17.996 14.23-.628 7.742 2.93 14.647 12.974 20.507 5.649 1.882 7.324 8.37 2.93 14.856-10.882 15.903-9.208 32.853.627 54.614l1.255-.627c2.093-23.855 7.115-35.991 15.066-38.293 2.511-.837 4.813-2.511 6.906-5.231 2.301-3.558 3.557-3.14 5.231.628 4.395 10.044 3.976 19.669-2.093 29.295-13.81 22.389-14.438 39.548 5.232 53.149l.628 1.674-5.232 6.696c-1.674 2.72-.419 6.069 4.186 9.835 3.348 3.976 5.021 10.463 6.067 18.623-1.674 2.51-1.883 5.65-.837 9.207 2.93 4.185 10.044 6.487 20.089 5.44 1.046-.208.836-1.045.836-2.091.838-4.605-2.302-7.952-5.649-13.602-9.835-8.79-11.928-17.16-8.788-25.32l1.464-2.301c7.743 2.72 17.578 5.859 26.575 7.115-3.767 7.742-3.348 17.368 0 23.017 6.278 10.88 12.973 15.903 25.738 14.857 16.949-1.464 25.319-15.485 19.042-34.527 6.068-3.347 10.044-3.138 12.137.628-.21 8.579 3.556 5.86 3.765 14.23-10.044 8.788-13.809 16.32-2.929 21.133 5.65 5.65 2.511 7.743-4.813 8.162-7.742-1.884-13.391-1.465-14.438 4.812-7.115.419-9.206 4.604-8.997 11.3 2.092-5.023 6.068-5.441 8.16-4.185 3.766-.21 7.742.836 11.091-.628 3.138-1.464 6.695-1.464 10.671.209 2.093 0 3.557.837 4.604 2.51 5.021 5.233 4.394-.627 15.484 6.069 2.721.209 7.325 0 8.162 4.395l1.045-3.976c.837-1.464.418-3.138-1.255-4.603-3.557-4.186 2.092-4.395 11.927-2.512 5.232 2.302 10.044 3.349 13.811 2.72 4.394-4.394 5.44-1.673 6.277 4.185 3.139-8.58 1.047-13.182-7.533-13.6 1.465-4.604 2.093 2.302 5.231-3.35 2.721-1.254 5.441 0 8.162 2.722.627-4.186-1.884-6.696-7.325-7.952-1.256-3.557-3.975-3.766-7.742-.21-15.903-4.184-17.577-13.81-8.579-15.693 4.813-1.255 6.696 3.767 10.463 5.23 2.929 1.048 4.393.629 8.37 1.048 4.394.209 8.369 1.046 11.09 2.929l3.139 1.046c1.673-1.254 3.347-1.046 5.44.837 2.302 3.349 4.604 3.767 6.696 1.047 6.278-5.022 15.694-5.022 15.066-1.884-.209 4.604.628 6.278 2.301 5.86 1.465.209 2.093 2.092 2.093 5.44-6.068-.21-10.253.837-10.253 5.232-5.65 1.673-5.44 5.649-2.929 10.88-.628-10.043 7.952-1.883 16.321-7.324l5.859-.627c.628 2.929 3.348 4.185 8.579 3.976 1.884-.838 4.813-.838 6.697-1.256 10.253-2.72 18.414-2.093 24.482 6.277 1.255-2.51 1.046-5.231-.628-7.742 7.114-4.812 14.857-2.93 10.253 4.813 4.186-2.092 8.37-12.764 2.93-12.555 2.302-6.277 11.718-1.046 8.998 3.558 3.975-2.093 4.603-5.232-.209-9.207-.628-3.558-3.558-4.604-8.789-3.14-2.93-5.022-6.696-5.231-11.718-.836-5.022 2.3-8.998 2.51-11.509-.838-2.72-4.393-2.093-6.486 1.674-5.021 1.883.628 2.721-1.674 5.023-6.07.836-1.883 2.51-3.346 3.766-5.858 5.441-.837 9.834-5.65 15.484-15.275 3.976-1.883 5.859-9.625 6.069-21.762 1.674.837 3.766.209 6.486-1.465-1.883-.21-2.72-.837-2.72-5.65h5.231c2.093-.836 2.93-1.673 2.721-2.72 0-.837-2.093-.627-3.558-2.93-.628-2.93-2.302-5.858-5.44-8.788l-5.022-8.161c-3.558-11.3-7.742-17.786-12.974-13.601l-1.464-.838c-3.976-4.393-6.906-10.252-9.207-16.74.209-7.951-8.162-8.37-12.556-.836l-1.255-6.278-2.093 3.349-13.182-19.042c1.464-.21 3.975-1.674 5.44-1.884 16.112-1.255 32.225-6.068 48.755-15.276l11.719-3.556c5.231-2.093 6.905-.42 9.625 2.302l11.927 12.345c2.302 2.51 2.302 4.813 1.046 7.324-1.255 2.51 1.674 5.859 5.86 9.416 3.766 4.185 4.184 9.835.837 16.95-1.883 4.603-1.465 7.533 1.255 8.998l8.161 5.858c5.44 4.395 8.161 2.93 7.952-4.812-.419-3.976-1.675-7.743-3.977-11.718-2.719-4.814-4.602-9.417-4.812-14.23-.209-9.625-1.465-14.647-5.441-17.995-4.603-4.394-8.579-9.416-11.717-14.857-1.047-3.14-1.884-5.022-3.558-5.86-.418-10.043-7.742-15.065-12.346-12.344-3.975.837-7.742 1.255-11.927.627v-2.302c5.231-2.93 14.229-12.137 23.227-22.181 3.348-4.184 5.022-2.51 8.37.838l12.974 13.6c-.419 6.697.628 11.092 5.23 10.673 3.14 5.44 4.604 10.67 1.675 12.973-2.93 2.51-5.231 4.186-5.231 7.742.628 5.232 6.696 10.672 13.391 13.183.628.21 1.674-.21 2.093-1.046 1.884-4.603 2.093-10.044.209-15.484l-2.302-7.742c-.418-3.14 0-5.651.21-7.953.627-6.068.837-9.416-5.65-14.02-8.16-8.37-15.067-16.948-20.716-25.946.209-11.927-10.044-15.066-16.53-2.093l-12.556 8.789c-3.139 2.093-5.231-1.256-5.231-4.604-1.255-15.693-11.927-28.25-23.645-40.385-6.277-19.042-14.857-34.945-17.996-49.592 11.928 1.255 20.925 3.557 24.482 7.114 5.232 5.65 11.928 8.579 13.602 4.604.628-1.256-3.139-3.558-5.023-5.441 2.093 0 4.813 1.883 7.743 4.813 5.231 0 6.905-3.976 5.44-9.416.628-4.395.419-7.742-1.464-9.207l-4.394-2.511c-7.325-7.952-13.393-15.903-18.414-24.692-.628-1.046-.837-1.883-.837-2.72 0-3.558-1.047-6.696-4.604-9.835l1.674-.837-.209-1.256 3.767.837-3.767-6.277c-2.093-7.742-9.207-8.998-19.879-5.859-1.465.418-3.349-1.256-5.231-3.348-6.697-6.487-13.811-10.044-11.3-5.232.419.837 2.511 3.139.209 2.93l-11.509-1.883c-2.511-.419-2.929.418-2.302 1.674 2.093 2.302 4.186 4.394 5.023 6.905l-14.648.837c-2.929.21-5.44 1.465-8.161 1.256-7.951-6.696-17.786-1.675-28.039 6.067l-1.465-.627-.209-11.927h1.255l-1.046-7.743h.837c.837-11.717-1.465-19.25-5.859-24.482-.837-3.558 2.721-3.139 3.557-4.184 3.348-4.186 3.139-8.999 3.139-11.51-.628-5.022-2.302-6.696-4.812-5.022h-2.93c-3.139-.419-5.65-1.465-6.905-2.93-3.349-2.301-6.488-2.301-9.626-.208-15.067 3.766-17.786 15.484-36.201 7.533-2.092-.21-2.51.628-1.673 2.302 3.138 4.184 7.533 6.905 12.345 8.998-1.673 1.254-5.022 1.463-10.463 1.045 3.139 4.185 9.207 6.278 18.624 6.069 3.557 2.092 7.743 1.256 12.346-.628 2.511-1.465 2.72-.628 1.046 2.72-4.812 3.976-8.161 11.718-8.788 25.738-1.884 2.93-2.93 6.068-3.558 9.626-6.905-1.884-12.973-3.139-15.484-1.047l-2.721-.209c-6.068-4.603-11.926-4.394-16.74-1.256l-10.671 8.161c-3.976 2.721-7.324 2.93-7.952-.419l-4.394-9.416c.209-6.695-2.302-9.835-6.906-10.253-2.092-1.883-3.556-4.184-3.975-6.696l-3.139-3.975c1.047-3.558-.419-4.813-2.93-4.813-2.719 0-5.231-.419-6.695-1.465L99.864 36.251z" fill="#161413" fill-rule="evenodd"/><path d="M401.813 346.151l2.093-4.394c1.046-1.465 1.883-1.465 2.511-.209l5.022 4.603c-1.046 1.046-3.348 1.046-5.022 1.465l1.674 2.721-1.674.836-.628 2.303c-3.139-2.512-5.021-4.814-3.976-7.325zm4.395-15.066c.628 0 1.255 1.884 1.255 3.977 0 2.091-.627 3.975-1.255 3.975-.838 0-1.256-1.884-1.256-3.975 0-2.093.418-3.977 1.256-3.977zm-2.93-16.949c.418-.418 1.465.419 2.092 1.465.838 1.255 1.047 2.51.628 2.72-.418.209-1.464-.419-2.092-1.674-.838-1.255-1.047-2.301-.628-2.511zm13.392-20.507c-.628-.627-1.255-.418-1.883.21-2.302 2.72-2.721 4.812-1.465 6.695l4.604 3.558c1.465 1.256 3.138.628 2.302-.628l-1.674-2.302c1.046.419 1.883 1.465 2.929 1.465.837 0 1.046-1.255 0-2.093-1.674-1.674-2.092-2.302-1.046-3.347.418-.418.418-.837-.209-1.256l-3.558-2.302zm0-19.46c-2.092-2.511-1.674-3.976 1.047-3.767-2.512-3.975.209-4.812 2.72-.628 1.255 1.884 1.464 5.651 1.046 10.044-.21 1.256-1.674 1.675-2.092 0-.837-2.51-1.674-4.184-2.721-5.649zm1.674 16.531l1.047-4.813c.209-1.255.628-1.046 1.255 0 1.674 2.092 3.139 4.185 3.557 7.742.419 1.465.209 2.302-.837 2.512-1.255.209-2.302-.419-3.347-1.465-1.465-1.674-1.884-2.721-1.675-3.976zm-74.074-53.568c.209-8.789 1.255-15.903 1.255-22.39 0-2.721 1.883-2.721 1.883.418.419 6.905-.419 14.02-1.256 21.344 0 1.046-1.882 2.93-1.882.628zm12.136 34.944c.418 0 .627.419.627.837 0 .419-.209.838-.627.838-.419 0-.628-.419-.628-.838 0-.418.209-.837.628-.837zm-20.716-30.969l.837-.628c.209-.208.628-.208.837.209l3.139 3.977c.209.209.209.627 0 .837l-.837.628c-.209.209-.628.209-.837-.21l-3.349-3.976c-.209-.209-.209-.628.21-.837zm30.132 22.39l1.255-8.161-1.464 2.93c-1.256 0-1.465-1.255-1.674-3.767-.21-2.929 0-3.976 1.674-3.348l1.046 2.721.837-1.884c1.465-.837 1.674 0 1.047 2.511l-.419 8.998c-.837 1.256-1.465 3.558-2.302 0zm22.181-25.737c-1.256-1.674-1.465-3.767 0-5.232 1.256-1.465 3.139-1.674 4.603-.628 1.256.628 1.674 1.465 1.674 2.093l-2.51.837 3.138.837c1.674 1.465.209 4.185-1.256 1.883-1.255-1.255-2.719-1.464-4.184-.628 0 1.884-.419 2.302-1.465.838zm-30.342 14.647c.419-.21 1.256.628 1.884 1.674.418 1.046.628 2.093 0 2.302-.419.418-1.256-.419-1.674-1.465-.628-1.046-.628-2.302-.21-2.511zm-19.251-1.674c.419-.21 1.256.418 1.884 1.464.628 1.256.628 2.302.209 2.512-.419.209-1.256-.419-1.883-1.674-.628-1.047-.628-2.093-.21-2.302zm5.651-10.254c1.464-.208 3.347 1.465 3.766 3.767.627 2.511-.419 4.604-1.884 5.023-1.673.209-3.347-1.256-3.975-3.767-.419-2.512.418-4.604 2.093-5.023zm2.719 13.811c-.837-3.976.419-4.603 1.884-.837 2.302 5.441 3.557 12.346 3.348 20.716 0 3.139-2.511 3.348-2.721.419-.837-7.324-1.046-14.23-2.511-20.298zm24.274 6.487a41.87 41.87 0 0 1 2.51-12.136c.628-1.884 1.465-2.093 2.511-1.047 3.767-6.068 2.93-2.72 1.256 1.884l1.046.627c4.603-8.579 2.721-1.673 2.302 2.092-3.348 4.186-5.65 5.023-6.696 2.093l-1.046 5.44c-.837 2.511-1.465 2.93-1.883 1.047zM86.473 406.416c-1.465 5.649-7.742 2.72-4.604-2.302 7.742-12.555 15.276-25.11 16.74-42.059.418-6.069 4.185-8.789 8.997-11.509 10.254-5.65 13.811-15.275 13.602-26.156-2.302-47.291 10.881-68.007 31.179-76.168l-.628 1.883c-18.205 11.09-25.738 32.434-25.947 61.52-.209 6.486-.837 13.183 0 20.297l.627-1.464c.628-17.159.628-31.807 2.72-41.851 2.302-11.09 5.86-17.786 9.417-22.599 1.255-1.674 2.301-3.767 3.557-5.022 1.674-1.673 3.557-2.092 5.022-3.557l-.209 1.465c-6.905 6.905-12.764 15.694-15.485 27.203-2.93 13.182-3.139 28.458-2.092 44.361-.21 2.302-.628 4.185-1.465 5.858l.837-.418c1.256-2.511 1.883-5.44 1.883-8.998-1.465-19.251 0-38.712 6.905-52.312 4.814-9.417 7.743-12.974 21.135-20.507l-.419 1.465c-11.299 7.742-21.971 16.74-24.063 47.29l.628-.627c2.091-23.228 10.462-40.386 25.947-46.663 5.44-2.302 11.927-1.884 19.04-1.884l-1.254 1.047c-10.881-1.047-20.298 2.72-28.458 11.299l1.255.419c7.742-7.951 16.74-12.346 28.04-9.835l-.837 1.674c-7.951-1.255-14.647 1.673-20.925 6.487v.837c7.114-4.813 13.601-7.114 19.878-5.86 2.093.209 2.72 1.884 2.093 4.395l-1.255 11.509c-.21 11.091-.838 21.971-3.558 31.806l-1.047.836 1.047-19.25-4.394 23.855c-.418 2.72-2.302 2.302-1.883-.21 1.046-5.022 2.72-11.927 3.767-19.251-1.047.209-1.884.837-2.093 2.302-1.256 10.254-2.93 18.624-5.232 21.552a103.242 103.242 0 0 0 2.511-19.46l-1.255 1.046-3.138 18.205c2.301 1.256-.628 3.139-1.465.837l1.046-10.044-.837-.209-4.395 16.113 1.465-11.091-3.767 11.091h-1.464l1.883-9.416-6.277 17.158c-1.884.418-2.093-.209-.628-3.139l3.976-11.718-1.256.209c-2.511 8.58-4.394 14.648-7.533 16.531l-1.046.209c4.394-7.742 5.022-11.508 5.231-15.275-2.302 7.324-4.603 12.555-8.789 16.95-.627-.628.21-2.511 2.721-7.116l2.302-6.067c-1.046-1.256-1.674-.838-2.302 1.046-1.465 5.231-2.93 8.788-5.65 12.137l2.72-10.253-.418-1.256c-1.884 6.068-4.394 11.3-7.952 14.438l1.675.837c5.649-3.766 13.391-2.512 21.343-6.068 1.674-.837 3.348-1.256 4.394-.419l-1.465 3.975-1.465-2.301c-.836 3.139-2.091 6.068-3.766 7.324l-.628-4.604c-3.348 7.324-5.649 11.3-5.858 7.743l.627-4.395c-2.511 2.512-4.185 5.44-4.813 8.998-1.255-.209-1.465-2.721-1.046-6.277l-2.093 7.742c-1.883.418-2.301-1.674-1.255-6.277-1.674 4.184-3.139 7.114-3.766 7.533-.837-1.256-1.047-3.349-.419-6.069l-2.092 3.976c0 2.93-.838 3.976-2.093 3.767.627-4.395.627-6.069-.21-5.023l-2.51 6.696c-1.465.837-1.883-.837-1.674-4.603-2.302 1.256-1.674 5.859-3.348 7.742-1.256-.837-1.465-2.93-1.256-5.231-1.046 3.557-2.093 5.649-3.557 5.859l-.418-6.905c-.628 3.138-1.465 5.649-2.721 7.742l-1.883-5.023-.837 4.814c-1.465.837-2.72-.419-3.557-3.558-.209 6.488-.837 11.928-5.023 14.648.419 1.674-1.464 6.068-3.975 11.091l6.696-9.835c1.465-.419 2.093.418 1.465 3.557l-6.906 11.299c-1.045 1.256-2.301.837-3.557 0-1.465 5.65-3.976 9.626-6.486 13.393 2.93-1.884 4.812-5.86 7.114-11.3.419-1.674 2.302.418 1.674 3.766l-1.674 1.465.209 2.511-2.092.209v3.349l-1.884.837c1.884 4.603-.418 7.533-5.021 5.231zm39.339-157.566l8.161-1.465-.419 1.674-7.742-.209zm-76.167 63.821c1.045-3.976 3.766-6.277 6.486-11.09 1.674-2.721 2.302-.837 2.093 1.674-3.558 5.231-6.278 7.951-8.58 9.416z" fill="#fff" fill-rule="evenodd"/><path d="M135.228 245.083c-13.392-11.927-26.575-18.205-36.41-16.112-18.624 4.185-27.62 21.343-33.061 37.665 3.139-5.441 5.858-8.998 9.207-10.044-9.207 14.647-14.439 29.505-15.275 46.663-.628 2.093-1.674 3.975-3.348 5.44-5.86 4.395-5.442 7.952-6.487 11.509 1.255-.837 2.72-3.557 4.603-5.858 2.51-3.14 5.44-6.488 6.696-11.928 1.883-7.324 2.72-14.647 4.185-20.088 2.093-7.115 4.185-11.928 7.951-18.205 6.696-11.09 15.276-21.135 25.11-25.319v.837c-9.625 5.231-16.53 13.182-24.272 25.528-1.884 3.139-3.139 6.068-4.813 10.463-1.674 3.975-3.348 8.579-3.767 13.81-1.255 11.3-3.976 18.623-7.114 23.018-3.348 4.394-5.44 6.277-6.069 8.37-.418 1.046-1.255 2.93-1.046 5.022 7.324-13.81 10.672-12.555 13.81-22.39 4.395-15.066 1.466-30.551 21.554-52.522h1.465c-9.626 11.09-16.113 21.553-19.46 43.943-.628 3.766-1.256 8.998-2.93 12.136-2.512 4.813-7.742 8.58-9.207 13.392l1.046-.209c2.51-2.511 7.533-8.37 9.416-12.346 6.068-11.717 3.976-27.412 11.719-39.966 10.043-16.532 17.786-25.111 30.131-29.923l1.465-.209c-16.95 8.997-19.879 15.484-27.203 25.528-2.51 3.348-4.393 6.695-6.486 12.974-1.884 5.44-3.139 13.81-4.186 20.297-1.255 8.37-4.393 13.392-7.742 17.577-1.883 2.302-3.348 3.348-4.812 5.44-1.256 1.884-2.511 5.442-3.14 7.952l1.047-.419c4.603-12.345 7.324-9.625 10.672-13.81 1.883-2.511 4.812-7.533 5.65-13.392 1.255-12.136 3.766-21.344 7.951-29.296 4.395-8.788 11.3-18.414 19.042-24.9 3.558-2.93 6.277-4.604 11.09-6.068h1.047c-5.651 3.766-9.417 4.812-13.81 8.998-7.116 6.695-14.021 16.74-17.369 25.319-3.557 8.161-5.44 17.158-6.487 26.365.21-1.255.838.628 1.256-.418 3.766-21.762 11.509-37.038 21.343-46.872 5.441-5.65 11.927-9.835 17.996-11.3l3.976-.209c-9.207 2.511-17.996 6.906-24.692 17.159l1.256-.209c8.161-8.789 16.321-12.765 24.273-14.648l1.255.209c-5.441 1.883-10.462 3.976-13.601 6.905l.418 1.255c6.069-3.975 15.276-6.067 26.157-7.114zm-83.701 91.442c-1.046-1.673-1.465-3.556-1.465-5.23.21-2.512 2.093-2.302 2.511-.628.42 3.139-1.046 3.348-1.046 5.858zm24.273 22.39l2.093-2.301c1.047-.628 2.301-.837 3.14-.419-.21 1.046-2.512 2.093-5.232 2.72zm-1.883 6.487l2.72-2.929c1.465-1.046 3.14-1.255 4.395-.628-.419 1.256-3.348 2.72-7.115 3.557zm.21 3.348l3.139-2.72c1.464-.837 3.347-1.046 4.603-.209-.419 1.046-3.976 2.302-7.742 2.929zm.837 2.93l2.929-2.511c1.464-.837 3.14-.837 4.394-.209-.627 1.255-3.767 2.302-7.323 2.72zm1.465 3.138l1.883-2.091c1.045-.628 2.301-.838 3.138-.419-.209.837-2.51 1.882-5.021 2.51zM87.1 341.339l1.674-1.047c.837-.418 1.883-.209 2.302.21-.21.627-2.093.837-3.975.837zm-2.72 3.557l3.558-1.674c1.673-.209 3.347 0 4.184 1.046-.837 1.046-3.975 1.255-7.742.628zm2.093-8.58l2.72-2.092c1.255-.628 2.72-.628 3.766 0-.628 1.047-3.348 1.674-6.486 2.092zm2.091-5.021l2.721-.628c1.255 0 2.51.628 2.93 1.465-.628.628-3.139.209-5.65-.837zm-5.858 56.288l1.883-1.046c.837-.21 1.884 0 2.302.209-.21.628-2.093 1.046-4.185.837zm5.859-6.486l-4.603.627c-1.884.837-3.349 2.511-3.558 3.976 1.465.418 4.813-1.675 8.16-4.603zm-2.092-2.093h-3.558c-1.674.418-2.93 1.465-3.139 2.72 1.046.419 3.976-.837 6.697-2.72zm16.321 17.158l2.093-4.394c1.046-1.464 2.928-2.302 4.603-2.302 0 1.465-2.929 4.394-6.696 6.696zm9.416-4.394l3.767-1.464c1.883 0 3.557.627 4.394 1.674h-.209c-.21 1.254-2.721 3.556-5.859 5.23l1.883-3.557c.418-.419.837-.837 1.464-1.255h-1.254c-.838 1.046-2.512 2.301-4.395 3.557l1.465-2.93c.209-.418.628-.627.837-.836-.628-.209-1.256-.209-2.093-.419zm18.205.628c1.256-.628 5.649.418 5.023 1.883-.21 1.255-2.93 3.557-5.86 5.65l1.674-3.767c.419-.628.837-.837 1.256-1.256h-1.465c-.837 1.047-2.302 2.302-4.186 3.558l1.256-3.139c.209-.209.628-.419.837-.628-.419 0-.837-.209-1.046-.209-.628.837-1.883 1.674-3.138 2.511l.837-2.093c1.464-1.883 2.51-1.674 4.812-2.51zm26.993-.628c0-3.557 2.721-5.65 7.952-6.278 6.068-.837 13.392.419 11.299 3.14h-.627l-1.047 2.511-2.301 4.184 1.464-4.603.628-2.302c-.628-.209-1.673-.628-2.72-.837l-1.883 1.883-3.139 3.557 2.511-4.184 1.047-1.675c-.419 0-.838-.209-1.256-.209l-1.884 1.884-3.139 3.557 2.511-3.976 1.047-1.674h-1.674l-1.256 1.884-2.929 3.766 2.092-4.394.628-1.047c-.836.209-1.673.419-2.301.628l-1.465 3.558.628-3.349c-1.884.838-3.558 1.884-4.186 3.976zm-19.669 2.929v-.418h.418l5.232-3.348c3.557-1.674 7.951-2.301 7.323.628 0 .209-.418.628-1.255.837 0 1.046.209 2.301.209 3.557l-1.465-3.139h-.837c0 1.674 0 3.348.209 5.022l-2.092-4.604c-.418.21-.627.21-1.046.21.21 2.302.21 4.813.21 7.324l-2.93-6.069v-.418c-.419 1.255-.628 2.72-1.047 3.976l-.627-4.186c-.628 1.675-1.465 3.767-2.093 5.86l-.209-4.395v-1.046.209z" fill="#fff" fill-rule="evenodd"/><path d="M77.893 253.244l8.998-8.998c-3.557 1.465-6.697 4.395-8.998 8.998zm49.383 163.634c-.837-2.093-1.883-3.976 0-8.788 1.674-4.395 3.767-5.651 5.023-5.441 1.464 1.674-.419 5.022.418 9.207l-3.348-2.929 1.046 5.649-2.511-2.72-.628 5.022zm29.714 5.44c-.419-.837-1.047-1.255-1.256-1.255-.418.209 0 1.046.418 1.883.628.837 1.256 1.256 1.466 1.256.209-.209 0-1.047-.628-1.884zm0 3.767c-.838-1.256-1.674-1.883-2.093-1.674-.418.209 0 1.256.837 2.511.837 1.256 1.674 1.884 2.093 1.675.209-.21 0-1.256-.837-2.512zm-1.884 3.558c-.627-1.046-1.255-1.674-1.464-1.674-.418.209-.209 1.255.209 2.302.628.836 1.255 1.673 1.465 1.464.418 0 .209-1.047-.21-2.092zm-1.882 3.556c-.419-1.674-1.465-2.928-1.884-2.72-.418.209-.418 1.674.209 3.348.419 1.465 1.256 2.721 1.675 2.721.627-.209.627-1.674 0-3.349zm-24.483-1.464c1.256.209 2.092.627 2.092 1.046-.209.209-1.255.418-2.302.209-1.046-.209-2.092-.628-1.883-.837 0-.418 1.046-.628 2.093-.418zm-1.047-2.72c1.465.209 2.512.837 2.512 1.256 0 .417-1.256.626-2.721.417-1.464-.417-2.51-.836-2.51-1.254 0-.419 1.254-.628 2.719-.419zm-.627-3.348c1.674.418 2.93 1.046 2.93 1.465-.21.627-1.675.837-3.349.418-1.673-.209-3.138-.837-2.929-1.465 0-.418 1.465-.628 3.348-.418zm54.405-35.573c-1.255-4.185 3.348-5.65 8.161-3.557 3.766 1.465 8.37 2.093 14.438.837 2.93-.628 6.069-.628 9.207-.21 3.139 1.675 2.93 3.14-.628 3.767-6.695 6.277-11.717 12.764-12.554 19.042-2.302-3.139 2.51-11.09 10.044-20.925-4.604 3.557-8.788 8.16-12.765 13.391.837-3.347 3.558-7.951 7.324-12.973-8.161 6.068-13.81 15.066-12.973 31.806-3.139-10.043-1.046-19.669 5.44-29.085l-8.998 9.416 8.161-12.555-5.022 1.674.419-1.883-3.139 1.465v-2.093l-4.186 3.348.838-3.557c-1.465-.838-2.511.418-3.767 2.092zm3.767 23.645c-.419 2.511-.21 5.441 1.883 8.37.628.628 1.465-.209 1.046-1.673-1.465-1.256-2.302-3.767-2.929-6.697z" fill="#fff" fill-rule="evenodd"/><path d="M195.701 414.995c.419 0 .837 1.046.837 2.511s-.418 2.72-.837 2.72c-.418 0-.837-1.255-.837-2.72 0-1.465.419-2.511.837-2.511zm9.626-10.672c.209.209.209 1.255-.21 2.302-.628 1.255-1.255 2.093-1.674 1.883-.418 0-.209-1.255.21-2.302.627-1.255 1.255-2.092 1.674-1.883zm2.302-5.022c.418.419 0 1.256-.628 2.093-.628 1.045-1.465 1.673-1.674 1.464-.21-.209 0-1.255.628-2.092.627-1.046 1.464-1.465 1.674-1.465zm78.469 8.161c3.557 1.256 3.975 6.277 2.092 12.346.209-5.023-.627-8.998-2.092-12.346zm-18.205 25.737c-.209-1.046-.627-2.092-1.255-3.138l.628 3.766.627-.628zm-41.013-63.193c.418 0 1.046 0 1.674.209l1.674 2.721c-.628 0-1.255-.209-1.883-.419l-1.465-2.511zm-3.349 18.205c.419.209 1.047 1.255 1.256 2.302.209 1.046 0 1.674-.418 1.465-.419-.21-1.047-1.047-1.256-2.093-.209-1.046 0-1.674.418-1.674zm3.14-.209c.209-.21.837.628 1.046 1.674.418 1.046.628 1.883.418 2.092-.418 0-.837-.627-1.255-1.674-.419-1.255-.628-2.092-.209-2.092zm3.766-.628c.418 0 1.255 1.256 1.464 2.72.21 1.256.419 1.884-.627 1.884-.837.209-.628-.419-.837-1.884-.209-1.255-.209-2.72 0-2.72zm3.557-1.256c.209 0 1.046 1.046 1.674 2.721.419 1.465.628 2.929.21 2.929-.419.21-1.047-.837-1.675-2.511-.418-1.674-.627-2.93-.209-3.139zm3.767 0c.628-.209 1.256 1.256 1.674 2.93.419 1.883.209 3.348-.209 3.557-.419 0-1.256-1.464-1.465-3.139-.419-1.883-.419-3.348 0-3.348zm4.185.628c.418-.209 1.674 1.884 1.883 3.558.419 1.674.628 2.51-.628 2.719-1.465.209-1.046-.627-1.465-2.51-.209-1.674-.209-3.767.21-3.767zm2.72-.837c.628-.209 1.256 1.255 1.884 3.139.418 1.883.418 3.557 0 3.557-.419.209-1.256-1.255-1.675-3.139-.418-1.883-.627-3.557-.209-3.557zm4.395-1.047c.418 0 1.045 1.884 1.045 4.186s-.418 4.184-1.045 4.184c-.419 0-1.047-1.882-1.047-4.184 0-2.302.419-4.186 1.047-4.186zm3.556 1.256c.419 0 .837 1.674.837 3.558 0 2.092-.418 3.556-.837 3.556-.627 0-.837-1.464-.837-3.556 0-1.884.21-3.558.837-3.558zm3.558-1.046c.419 0 .837 1.883.837 4.185 0 2.302-.418 4.185-.837 4.185s-.837-1.883-.837-4.185c0-2.302.418-4.185.837-4.185zm3.766-1.047c.628.21.837 2.093.628 4.814-.419 2.302-.837 4.393-1.465 4.393-.418 0-.627-2.091-.418-4.602.21-2.512.627-4.605 1.255-4.605zm5.022-.209c.628 0 .628 2.093.21 4.604-.419 2.511-1.047 4.394-1.674 4.394-.419 0-.628-2.092-.21-4.603.419-2.511 1.256-4.395 1.674-4.395zm3.976-2.301c.628 0 1.674 3.138 1.255 6.068-.627 3.139-1.465 5.649-2.092 5.44-.627-.209-.209-2.719.21-5.649.417-3.139.209-6.068.627-5.859zm-21.343 23.645c.209-.209.628.628 1.046 1.465a6.322 6.322 0 0 1 .419 2.093c-.209.209-.837-.628-1.047-1.465-.418-1.047-.628-2.093-.418-2.093zm2.929-1.046c.418 0 1.046 1.046 1.465 2.302.418 1.255.418 1.883-.21 2.092-.837.419-.628-.418-1.046-1.674-.419-1.046-.419-2.511-.209-2.72zm28.248-8.789v1.465l1.884-1.256c.418-3.766.418-7.323.209-10.253-.628 3.767-1.255 7.115-2.093 10.044z" fill="#fff" fill-rule="evenodd"/><path d="M276.682 399.929c-1.047 5.44-1.256 7.114-3.349 8.998.837-3.349.419-5.86.419-6.488-.628.21-1.046.419-1.465.419v.628c.209 2.092.209 4.813-2.302 8.16-.209-2.928 1.046-5.649 1.046-8.579-.628.21-1.046.419-1.674.628v2.93c-.209 1.255-1.464 4.395-1.673 4.604.209 0 1.045-6.069.418-7.325-.418.21-1.046.21-1.464.419v.837c-.21.628-.21 1.256-.628 1.256-.21 0-.419-.419-.419-1.047-.209-.209-.209-.628-.418-.837-.21 0-.628 0-1.047.209v.21c.21.627.21 1.046 0 1.255-.209 0-.627-.628-1.046-1.255-.419 0-.837.209-1.046.209.209 1.046.209 1.465-.628 1.883-1.047.419-1.047-.627-1.256-1.674-.628.209-1.254.209-1.882.419.209.837 0 1.465-.21 1.465-.209.209-.627-.419-1.046-1.256h-1.674c.209.837.209 1.256 0 1.465-.209 0-.628-.419-1.046-1.256l-.21.21c0-.21 0-.21.21-.21-.21-.209-.21-.628-.419-1.046-.628-1.256-.837-2.511-.628-2.721.419-.209 1.047.628 1.674 2.093.21.419.419 1.046.419 1.465.418-.209 1.046-.419 1.465-.419 0-.418 0-.627-.209-.837-.419-1.674-.419-3.138 0-3.347.418-.209 1.046 1.045 1.464 2.72 0 .209.21.627.21 1.046.628-.209 1.045-.419 1.673-.628-.209-1.046-.209-1.465-.209-2.093 0-.836 0-1.254.209-1.254.209-.209 1.256 1.254 1.674 2.929.419-.21.628-.21 1.046-.419-.209-.209-.209-.209-.209-.418-.418-1.256-.418-1.674-.418-2.511-.21-.628-.21-.837 0-1.046.209-.21 1.255 1.465 1.674 2.929 0 .209 0 .418.209.628.419-.21.628-.21 1.046-.419v-3.348c0-.836.21-1.255.419-1.255s.418.419.628 1.046c.209.837.418 1.884.628 2.929.418 0 .837-.209 1.255-.417v-1.675c.209-.628.209-1.046.419-1.046.209-.209.627 1.046.836 2.093.628-.209 1.046-.419 1.674-.628v-2.302c0-.628.209-1.256.419-1.256.209-.209.418.209.418.837.21.628.419 1.256.419 2.093.418-.209.837-.209 1.255-.628 0-1.255.21-2.511.21-3.348.209-.837.418-1.465.627-1.465.21-.209.419.209.419 1.046.209.838.209 1.884.209 3.14.419-.21.837-.419 1.256-.419 1.465-5.859 3.347-13.811 3.347-20.925-.418-.838-.837-1.465-1.255-2.302-.418 7.951-1.046 14.648-3.557 19.041 1.256-6.486 1.465-13.391-.209-21.342h-.628c.209 8.579.209 15.693-2.093 20.505.837-6.905.628-14.228-2.092-22.389-.419-.209-.838-.418-1.255-.418 1.882 1.674 1.464 8.37.627 9.416-1.255-3.976-.21-5.232-3.766-7.952h-1.047c1.884 2.092 2.093 5.231 1.674 7.743-1.046-2.302-2.72-5.023-4.394-6.696h-1.884c2.721 3.138 2.721 3.766 2.302 6.277-1.046-2.721-5.23-4.604-6.905-5.859-.837 0-1.046.209-1.883.209 2.093 1.046 5.022 4.813 3.976 6.069-1.465-1.674-4.604-3.349-5.86-5.651-.837 0-.418.419-1.255.419.418 1.256 0 2.092.209 3.558-1.882-.419-2.929-.628-5.231-3.14-.418 0-1.255-.209-1.255 0 .209.628 1.046 2.093 1.255 2.721-.418-.628-4.812-2.93-5.231-3.558-.209-.209.836-.209-1.674-.418.209.627 1.674 3.976 1.884 4.604-.419-.628-3.558-3.977-3.976-4.395-1.047-.209-1.884-.209-2.93-.418l-1.884-3.139c9.416.628 19.879.21 32.435-2.092l11.718-2.302c3.975-1.256 6.696.837 7.533 6.906l.627 6.695c2.512 3.557 3.558 7.952 1.047 14.02 1.046 4.394 3.556 8.161 7.323 11.299 3.349 3.139 3.767 7.533-.209 13.811-3.558 9.207-8.579 14.857-12.974 20.926 0 .209-.418.418-.418.626-.209.21-.418.419-.627.838.209-.419.418-.628.627-1.046l-.627-3.139c.627.837.836 1.465 1.045 2.302l1.884-3.139a97.693 97.693 0 0 1-.628-3.348c.418.837.837 1.465 1.255 2.302.419-.837 1.047-1.675 1.465-2.512-.418-1.046-.627-2.301-1.046-3.556.628.837 1.046 1.673 1.465 2.51.628-1.045 1.256-2.092 1.674-3.138-.209-1.046-.628-2.093-.837-3.139.419.628.837 1.256 1.256 2.093.627-1.884 1.046-3.349 1.255-4.605l-21.553 13.393c1.884-1.674 3.975-3.139 5.859-4.813l-.21.209c-.209-1.255-.418-2.719-.627-3.975.627 1.046 1.046 2.302 1.465 3.347.418-.417 1.046-.836 1.465-1.254l-.628-5.023c.837 1.465 1.255 2.93 1.674 4.186.628-.419 1.256-1.047 1.883-1.465-.209-2.093-.418-4.395-.837-6.696 1.047 1.882 1.674 3.766 2.093 5.649.628-.628 1.046-1.046 1.673-1.465-.209-2.929-.627-6.277-1.045-9.416 1.464 2.93 2.51 5.65 2.51 7.951.419-.418.837-.628 1.256-1.046-.21-3.138-.628-6.905-1.256-10.253 1.674 3.139 2.721 6.278 2.93 8.789 0-.209.418-.419.628-.628 0-3.348-.628-7.952-1.256-12.137 2.093 3.976 3.139 7.743 2.721 10.463l1.255-1.256c-.209-6.067-2.302-11.509-4.185-17.158-.837 2.929-.837 3.975-1.674 3.766.418-3.347.209-4.812-.419-5.231-.418 4.603-1.465 7.533-2.929 8.998l.837-7.533h-1.255z" fill="#fff" fill-rule="evenodd"/><path d="M257.849 413.111c0 1.256 0 2.302-.837 2.302-.837-.209-.628-1.255-.418-2.302h1.255zm2.301-2.301c.419.21.628.628.628 2.092 0 1.465 0 2.511-1.046 2.511-1.255-.209-1.046-1.465-.628-2.72.418-1.464.628-1.883 1.046-1.883zm2.93.419c0 2.301 0 3.975-.837 3.766-.837-.21-.837-1.884-.419-3.766h1.256zm-.419-2.93c.21 0 .21.419.419 1.046h-1.046c.209-.627.418-1.046.627-1.046zm2.93-.419c.419 0 .628.838.628 2.721 0 1.882 0 3.557-1.465 3.347-1.465-.209-1.046-1.883-.628-3.766.628-1.674.837-2.302 1.465-2.302zm-14.439-60.055c5.232 1.256 10.672 5.651 16.114 10.254.836 1.464.418 1.883-.838 1.255-3.767-1.255-9.207-7.533-15.276-11.509zm20.089 13.602c1.046.628 1.465 1.256 1.255 1.465-.209.418-1.046.209-2.093-.419-.836-.628-1.464-1.465-1.255-1.674.209-.209 1.046 0 2.093.628zm-52.731 7.742l5.649.628 1.256 2.092-.209-.209c-.628 0 1.883 6.696-1.465-.418-.419-.837-1.675-.628-2.72-1.047-1.046-.418-.628-.628-2.511-1.046zm-26.156 90.396c1.045 0 2.091.418 2.091.837 0 .209-.627.628-1.674.628-1.254 0-2.091-.21-2.091-.628-.21-.419.627-.837 1.674-.837zm2.719 5.232c1.674-.419 3.558-.628 3.767-.209.419.418-.837 1.046-2.511 1.674-1.674.418-3.348.418-3.766 0-.209-.419.836-1.047 2.51-1.465zm1.674 1.674c1.884-.419 3.767-.628 4.186-.209.209.418-1.046 1.255-2.93 1.674-2.092.627-3.767.627-4.185.209-.419-.418.837-1.256 2.929-1.674zm2.512 1.883c1.255-.418 2.511-.418 2.72 0 .209.209-.627.836-1.883 1.255-1.465.209-2.721.209-2.93-.209-.209-.21.837-.837 2.093-1.046zm1.674 1.674c1.255 0 2.092.418 2.092.836.209.419-.628.628-1.673.628-1.047 0-2.093-.209-2.093-.628 0-.418.628-.836 1.674-.836zm22.389-8.37c1.674-.628 3.349-.628 3.558.209.418.628-.837 1.883-2.511 2.511-1.675.628-3.348.628-3.557-.209-.209-.628.836-1.674 2.51-2.511zm-2.929-1.884c1.255-.628 2.511-.628 2.72 0 .209.628-.628 1.465-1.883 1.884-1.255.628-2.511.418-2.72 0-.419-.628.628-1.465 1.883-1.884zm-2.72-3.766c1.046-.418 1.883-.209 2.092 0 .21.628-.418 1.256-1.464 1.465-1.047.419-1.884.419-2.093 0-.209-.418.418-1.046 1.465-1.465zm-30.342-17.367c-.209-1.047-1.255-1.047-1.674-.21-.209 1.465.209 3.348 1.674 4.185 1.674.837 2.093-.837 1.256-1.465-.837-.837-1.047-1.464-1.256-2.51zm-2.93-1.465c.21-1.256-.837-1.884-1.673-.837-1.046 1.464-1.465 3.765-.209 5.23 1.464 1.884 2.72.21 2.301-.837-.628-1.463-.837-2.301-.419-3.556zm146.058-93.954c-1.256 1.883-1.674 8.998 4.604 17.577 2.301 2.93-.419 5.022 2.929 5.44 1.255-.209 2.092-1.255 2.302-3.138l-2.093-1.046h2.93l-3.139-2.093c1.046-.209 3.557.419 3.348-.628-.209-1.255-3.139-1.465-4.604-2.093l3.558-.837c.209-1.046-1.884-1.883-5.231-2.928l3.347-.837-3.766-2.302 2.929-.838-4.603-2.302 2.51-1.255-2.719-.837 2.51-1.255c-2.091-.837-2.929-2.721-4.812-.628zm-5.022 5.44c-1.255-2.72-1.465-5.021-.837-7.114 1.464-3.767 2.929-4.813 4.185-4.813 2.511 2.72-1.675 4.394-2.512 6.487-.627.419-.836 1.883-.836 5.44zm-1.046-12.974c1.046-1.045 2.301-1.673 2.719-1.254.419.418-.209 1.464-1.255 2.719-1.045 1.047-2.301 1.884-2.72 1.465-.418-.418.21-1.674 1.256-2.93zm-1.046 13.393c.627 0 1.255.628 1.255 1.465 0 .627-.628 1.255-1.255 1.255-.837 0-1.465-.628-1.465-1.255 0-.837.628-1.465 1.465-1.465zm2.719 4.185c.837.21 1.046 1.255.419 2.301-.419 1.047-1.255 1.674-1.883 1.256-.837-.209-1.046-1.256-.418-2.302.418-1.045 1.255-1.673 1.882-1.255zm2.93 4.394c1.046.419 1.256 1.465.418 2.721-.627 1.046-2.092 1.674-3.139 1.464-1.045-.418-1.254-1.674-.627-2.72.627-1.046 2.092-1.884 3.348-1.465zm3.139 4.813c.628.837.209 1.673-.837 2.092-.837.419-2.093.209-2.721-.627-.418-.628-.209-1.465.837-1.883 1.047-.419 2.093-.21 2.721.418zm15.066 2.511c.418-.628.418-1.674-.628-1.883-1.046-.209-1.674-.209-2.301-1.256-.837-2.511.418-3.766 2.51-4.394 1.674 0 2.302.628 1.884 1.674l-1.047.837c1.884.628 3.139 1.256 3.767 2.302-1.046 0-1.674.209-1.883 1.046 3.557-.627 3.348 5.022.209 3.976-2.093-.628-3.139.209-2.093 3.767.837 4.184 3.767 5.23 3.558.836-.419-2.092 6.696-2.511 7.533 2.092l-2.721-1.045c.628 3.347 3.348 1.882 3.767 4.812l-2.302.21c2.721 1.883 4.813 4.185 5.86 6.904-2.93-.418-3.139-3.556-5.86-3.556 3.558 4.812 7.742 3.766 9.835 8.579-2.93-.209-6.486-2.511-10.463-6.278 3.558 5.023 5.86 9.207 5.023 11.299-5.232-2.301-6.278-10.044-8.37-12.345 0 3.976 2.929 6.278 1.882 10.671-2.091-2.51-3.138-6.486-3.138-12.763 2.092.418 2.929-1.047 2.929-4.604-.419-3.766-2.301-3.557-1.882 0 0 2.72-1.884 3.557-7.534.209-.837.837.418 1.884 3.557 3.767l-.209 3.138 1.674-2.72.628 8.789c-.209 2.302-.837 1.883-1.465-.418l-.628-4.395c0 3.139-.418 4.604-1.464 4.395l-.838-8.161-2.301 2.929-.627-4.603-2.093 1.674v-5.651c-1.465.838-3.139.21-4.813-2.301 2.302.628 3.767.21 5.65-.837-1.047-4.185.837-6.278 4.394-6.696zm-49.802 25.529c.209-1.883.628-2.511-1.255-5.023-.837-.837-1.465-1.046-1.255 0 .418 1.674 2.092 3.349 2.51 5.023zm-3.348-12.765c2.721 1.465 3.976 1.674 5.44 5.65.419 1.464.21 2.511-.837 1.255-1.673-1.882-2.51-5.021-4.603-6.905zm.419-8.161c3.557 2.512 5.021 2.93 6.696 8.789.418 2.302-.21 3.558-1.465 1.674-2.093-2.93-2.72-7.323-5.231-10.463zm1.674-5.858c3.975 1.255 6.905 6.068 6.905 10.252 0 2.302-1.046 3.767-1.674 1.675-.837-2.929-2.302-8.998-5.231-11.927zm1.673-3.139c3.558 1.465 5.86 3.975 7.116 7.742.209 2.093 0 3.139-1.465 1.465-.837-3.139-2.93-6.277-5.651-9.207zm24.693 103.579c.837-2.093 3.975-4.186 7.742-2.511 1.674.418 1.464 2.511 1.464 3.976-1.046-1.046-2.092-2.302-3.139-1.046-2.929-2.302-3.975-1.047-6.067-.419zm-11.3.837c.837 0 1.465.418 1.465 1.256 0 .627-.628 1.046-1.465 1.046-.628 0-1.256-.419-1.256-1.046 0-.838.628-1.256 1.256-1.256zm-7.324 0c.419-.209 1.047.628 1.465 1.674.209 1.047.209 2.092-.209 2.092-.419.209-1.047-.418-1.465-1.673-.209-1.047-.209-2.093.209-2.093zm2.511-.418c.209 0 .627.418.837 1.255.209.628.209 1.256-.21 1.465-.209 0-.627-.419-.836-1.256-.209-.628-.209-1.255.209-1.464zm.627-26.994c-.209.209-.418.419-.418.628-.836.837-1.673 1.465-1.883 1.047-.418-.21-.209-1.256.419-2.093l.837-.837c-.209-.21-.209-.419-.419-.628-.209.209-.209.418-.418.628-.837 1.046-1.884 1.674-2.302 1.255-.419-.209-.209-1.465.628-2.511.209-.419.627-.628.837-.837-.21-.209-.21-.419-.419-.419-.837 1.047-1.883 1.465-2.302 1.256-.418-.419-.209-1.465.628-2.511a.45.45 0 0 1 .419-.419c-.419-.418-.419-.628-.628-.837-.628.419-1.047.628-1.465.419-.209-.21 0-1.047.628-1.883-.419-.837-.628-1.674 0-2.093 1.255-1.046 1.883.419 3.139 3.138.418 1.047 0 1.675.628 2.302.418.838 1.673 1.256 2.091 1.884 1.465 2.302 1.256 4.186 1.047 4.395-.419.209-.209-.209-1.047-1.884z" fill="#fff" fill-rule="evenodd"/><path d="M307.022 439.687c.628.417.21 1.673-.836 2.929-1.046 1.255-2.093 1.883-2.511 1.465-.628-.419-.209-1.675.628-2.93 1.046-1.255 2.301-1.882 2.719-1.464zm25.739-12.346c.209 0 0 1.256-.419 2.511-.418 1.255-1.255 2.092-1.674 1.883-.209 0 0-1.256.419-2.511.627-1.255 1.255-2.092 1.674-1.883zm-3.139-1.256c.418.21.209 1.884-.628 3.767-1.046 1.673-2.093 3.138-2.721 2.929-.627-.209-.418-1.884.628-3.766.837-1.883 2.093-3.139 2.721-2.93zm-7.324-2.93c.419.21.21 1.465-.418 3.14-.628 1.464-1.465 2.511-1.884 2.302-.418-.21-.209-1.465.419-2.93.628-1.674 1.465-2.721 1.883-2.512zM119.325 69.522c.627-2.93 2.511-4.394 4.604-4.604l4.602.837c1.675 1.256 1.466 1.675-.418 1.884-3.766-.628-5.859.209-6.905 2.72-1.465 2.092-2.093 2.301-1.883-.837zm14.648 8.788c.418 0 1.046.419 1.046 1.255 0 .628-.628 1.256-1.046 1.256-.628 0-1.047-.628-1.047-1.256 0-.836.419-1.254 1.047-1.254z" fill="#fff" fill-rule="evenodd"/><path d="M118.697 74.125c-1.465 1.884-1.047 3.976 1.465 6.487l3.348 4.185c2.929 2.093 4.394 1.674 3.975-1.465-.418-2.092.209-2.93 2.093-2.93 1.255-.209 2.093-.837 2.721-1.882.418-1.674.209-2.511-1.256-2.93-2.721 1.884-5.022 2.72-6.905 3.139 2.51-1.674 4.393-2.93 5.021-3.976.628-.628 1.465-.837 2.721-.419 0-1.046-.419-2.092-1.883-2.51-2.93 0-5.859 2.092-8.58 5.022 1.674-3.558 4.186-5.65 7.952-5.65.209-1.047 0-1.883-1.047-2.72-2.301-.21-4.603.418-6.486 1.882l-3.139 3.767zm16.949 25.947c6.906 6.697 12.764 14.648 17.369 23.646v7.742l-2.512-8.789c.209 6.069 0 10.045-.628 8.789l-2.092-12.555-1.465 5.441-1.255-7.742c-1.046-.837-1.256 3.975-1.046 10.671-1.884-1.883-1.674-7.324-1.465-13.392l-2.093 5.859c-1.256-3.138-.628-7.324 0-11.3-1.256-1.046-2.093 1.046-2.511 7.325-1.465-4.186-1.047-7.534-.419-11.509l-1.465 3.138-.418-7.324zm51.267-59.008c2.302 1.673 5.441 2.092 8.579 2.092l.209 1.674c5.023 0 10.254-2.302 15.485-5.86-.209-.208-1.255-.417-2.302 0-3.767 1.885-3.348.629 3.766-2.929 1.047-.627 1.884.21 3.558-.418l4.604-1.046c-3.767 3.348-7.534 6.695-11.718 9.834-5.86 3.349-11.091 4.186-15.904 2.512-2.72-1.256-5.44-2.93-7.951-4.814-.628-1.046-1.256-1.674 1.674-1.046zm28.876 1.046c.628 0 1.047.418 1.047.837 0 .418-.419.837-1.047.837-.418 0-.837-.419-.837-.837 0-.419.419-.838.837-.838zm6.277 12.555c.419-.628.838-.837 1.256-.419.419.21.419.837 0 1.256-.418.628-1.046.837-1.256.628-.418-.21-.418-.837 0-1.465zm14.858-5.65c.628-.21 1.255-.21 1.465.21.209.418 0 1.256-.837 1.465-.628.417-1.256.417-1.465-.21-.419-.418 0-1.046.837-1.465zm-3.348-2.302c.627-.418 1.255-.627 1.464-.21.419.21.21 1.048-.209 1.466-.628.419-1.255.628-1.465.21-.209-.21-.209-.838.21-1.466zm-22.808 4.394c.628-.209 1.254 0 1.464.42 0 .417-.419 1.045-1.046 1.045-.627.21-1.255 0-1.465-.418 0-.419.419-.838 1.047-1.047zm8.161 15.485c.836-.418 1.883-.418 2.092 0 .209.419-.209 1.047-1.256 1.465-.836.21-1.883.21-2.092-.21-.21-.417.209-1.045 1.256-1.255zm-26.785-14.229c2.301-.209 5.441-1.047 9.626-2.93l4.812-2.301c2.302-1.046 2.721-.837.837 1.047-2.092 2.092-4.813 3.137-6.695 4.602-1.884 1.256-4.604 2.93-9.207 1.675-2.302-.628-1.465-1.884.627-2.093z" fill="#fff" fill-rule="evenodd"/><path d="M206.792 50.27c2.72-2.51 4.394-3.138 8.16-4.812 3.558-1.465 7.114-1.884 10.672-1.884 2.511-2.302 4.813.837 2.093 3.349-.837.837-1.884 1.256-2.93 1.883-2.721 2.092-5.649 2.93-8.579 3.766-3.767 1.046-4.186.628-1.047-1.465 1.047-.837 1.884-1.464 2.93-2.092 2.302-1.464 4.813-1.883 7.115-2.092-3.558-2.302-10.463 1.256-17.368 4.603-2.093 1.046-2.721.418-1.046-1.256z" fill="#fff" fill-rule="evenodd"/><path d="M225.624 39.39c1.465-.42 2.721-.21 4.395-.21 2.719.838 3.975 2.302 4.184 4.185-.627 1.884-1.465 2.93-2.72 3.348-.628-3.348-1.883-5.23-3.766-5.858-.837-.21-1.256-.21-2.093-.21V39.39zm-3.139.837c.837-.418 1.046-.628 1.884-.837v1.256l-1.675.417c-.837.21-1.673-.418-.209-.836zm-3.766-2.093c1.884-1.674 3.975-3.139 6.487-3.348 2.511-.209 5.231-.209 7.951.21 5.232 1.883 3.139 3.557-.209 2.3-2.093-1.255-4.603-1.045-7.533 0-.209 2.094-3.767.42-5.859 1.885-1.465.628-1.674.209-.837-1.047zm15.275.628c1.674 0 2.93.209 3.139 1.673.209 1.884-.209 3.35-1.465 4.186.628-3.976-1.255-3.558-1.674-5.86zm4.604-1.046c.419.628.628 2.302 0 5.021l-1.674 3.139c-.419 1.465 0 1.884 1.046 1.465 1.674-1.046 2.51-2.51 2.51-4.604 0-3.138.21-4.603 1.256-5.65-1.882-3.138-3.766-2.72-3.138.629zM225.206 56.13c0 2.093 4.813 2.51 5.44.209 1.046-2.51-.837-4.395-.209-6.905-3.139.837-5.231 3.138-5.231 6.696zm-1.256 5.44c1.046-1.884 2.721-2.511 5.232-2.301 1.882 0 2.929.418 2.929 2.301 0 1.883.209 3.976-.21 5.65-.627 1.674-.837 1.465-2.928 1.674-2.302 0-3.14-1.046-5.651.418 1.465-3.557-.209-5.022.628-7.742zm8.998-8.16c-1.047-1.675.209-2.303 1.255-1.047 1.256 1.046 2.093 2.511 2.093 3.976.209 1.465-1.465 2.72-2.511 1.465-1.047-1.256.209-2.511-.837-4.395zm1.046 7.951c-.628-2.092.209-2.302 2.721-1.255 1.674 1.464 1.883 2.51 1.046 3.347 1.674 1.675 1.674 3.977.209 6.696-1.046-.837-2.302-.418-3.139-1.673-.209-.837-.837-.42-.418-3.558.209-1.255.209-2.302-.419-3.557zm2.93 17.159c1.046 0 1.674.627 1.674 1.255 0 .627-.837 1.046-1.674.837-1.046 0-1.674-.628-1.674-1.256 0-.418.837-.837 1.674-.837zm-12.974-1.884c1.046 0 1.883.628 1.674 1.256 0 .628-.837 1.256-1.883 1.047-1.047 0-1.884-.629-1.675-1.256 0-.628.838-1.256 1.884-1.047z" fill="#fff" fill-rule="evenodd"/><path d="M239.854 74.334c-1.256-2.092-4.395-3.557-8.999-4.185-2.929-.419-6.905.42-11.09 1.465-2.302 2.511-3.139 6.278-2.72 11.3l1.884.418-1.675 1.256h2.302l-1.465 2.093 1.256.418-1.046 2.72 1.255.837-.627 1.674 1.674.21-.419 1.673 1.255.21-.418 1.674 1.255.419c.837 1.255 2.302 2.301 3.976 3.347 1.256.628 2.511.628 3.976.418 2.51-1.883 3.138-3.556 5.231-5.858.628-.21.837-1.465.837-3.349 1.256-.627 1.674-1.674 1.674-3.139l1.047-1.464v-5.022c-1.256.418-2.093.628-3.139.418l-2.93-1.255-.837 6.487c0 1.256-.628 3.138-2.092 2.51l-3.558-1.673c-.837-.418-.628-1.674.419-2.092l1.255-.21v-5.65c-2.092.628-4.394.837-6.487-.628-.836-.417-1.673-.417-2.51-.417.627-1.256 1.465-2.303 2.301-2.93l-1.255-1.884c.419 0 1.255.209 1.882.209 2.93-.209 4.395-.627 5.232.21.837.837 1.465 1.465 2.302 1.883l.209-1.465c.628-1.674 1.883-2.092 3.767-1.464l-.419 4.185 6.697-2.093v-1.256zm-15.485 17.16a13.812 13.812 0 0 1 5.859 0c3.348.836 3.557 2.092.418 3.975-1.883 0-3.975 0-6.068-.628.628-1.046 1.255-1.465-.209-3.348zm2.511 1.464c.837-.628 2.093-.628 3.348 0 .627.418.418 1.046-.209 1.465-.837.209-1.465.209-2.302 0-.628-.628-.209-1.047-.837-1.465z" fill="#fff" fill-rule="evenodd"/><path d="M227.508 86.47c.418 0 .627.21.627.629 0 .209-.209.419-.627.419-.21 0-.628-.21-.628-.42 0-.417.418-.627.628-.627zm3.347-9.624c0-.42.209-.837.209-1.465 1.047-1.047 1.465-1.674 1.465-.628 0 .837 0 1.465-.209 2.093h-1.465zM229.6 87.099c.209-2.721.628-5.022 1.046-8.37h1.465c-.21 2.301-.419 4.813-1.256 8.789-.418.837-.836.418-1.255-.42zM213.487 72.66c-.209-1.674 1.465-1.465 1.674 0 .419 2.93 0 5.232-1.464 6.696-1.047.628-2.511 0-1.675-1.255 1.465-2.092 1.884-3.557 1.465-5.44zm-1.255 11.928c-.419-1.884.837-2.51 1.255-.42 1.465 5.651 3.976 11.092 9.626 16.323 2.302 1.883-.209 3.557-2.301 1.674-5.651-4.813-7.325-11.509-8.58-17.577zm20.925 17.158c-.209-1.674.419-3.348 2.302-4.812 1.256-.837 1.674.628 1.046 1.464-1.255 1.465-2.302 1.465-3.348 3.348zm-54.614 23.227c.209-1.464.418-2.511 1.255-3.557a6.338 6.338 0 0 1-1.464-1.047c-1.047 2.302-2.512 4.186-4.605 6.906 1.465-4.394 2.93-7.743 6.069-11.09-.418 1.464-.837 2.72-1.255 3.766.418.418 1.046.837 1.465 1.256.418-.419.837-.838 1.046-1.256 0 .628 0 1.256-.209 1.884h.209l-.209.627-.209-.209c-.419 1.046-1.047 1.674-2.093 2.72zm-2.511 3.767c.209-1.256.627-2.093 1.464-2.929-.209 1.464-.418 1.882-1.464 2.929zm11.09 1.674c.209-.837.418-1.674.628-2.302l.418-.419c0-.209.21-.628.419-.837.418-.418.837-1.045 1.255-1.464-.209 2.51-.837 3.348-2.72 5.022zm-.419 6.068c-.627-2.092 0-3.557 2.512-4.813 0 3.139-.21 3.976-2.512 4.813zm5.023-1.883c2.092-5.022 2.301-7.324 1.673-13.602 2.302 5.859 1.884 7.533-1.673 13.602zm34.107 19.042c1.047-4.395 1.465-8.579 1.256-12.974-.418.209-.628.209-1.046.419-.21 2.302-.837 5.021-2.093 8.37.628-2.721 1.046-5.441.837-8.161-.418.209-.837.418-1.256.418-.209 1.884-.837 3.975-1.674 6.696.419-2.302.628-4.394.628-6.486-.628 0-1.255.209-1.882.209-.21 2.721-.628 5.649-1.256 9.416 0-3.139-.209-6.277-.209-9.207h-2.093c0 3.138-.419 6.277-1.046 10.672-.21-3.767-.21-7.325-.419-10.881-.628-.209-1.256-.209-2.093-.419 0 3.349-.418 6.696-1.046 11.3-.209-3.976-.419-7.742-.419-11.509l-1.882-.628c-.209 3.139-.837 6.278-1.674 10.463 0-3.767 0-7.114.209-10.881l-1.883-.628c-.21 4.185-.628 7.951-.837 12.346-.628-5.441-1.047-9.207-.628-12.974-.628-.209-1.256-.418-1.674-.837-1.047 5.023-1.465 9.416-1.047 14.439-1.464-6.488-1.673-10.254-.209-14.858-.418-.418-.836-.627-1.255-.837-.628 1.675-1.674 3.558-2.93 5.651 1.047-2.093 1.465-4.186 2.093-6.069-.628-.419-1.465-.837-2.093-1.255-.418 2.72-1.674 5.44-3.767 9.207 2.721-6.697 2.93-12.974 3.14-20.925.627 3.138 1.046 5.649 1.046 7.951.837.419 1.465.628 2.302 1.047.419-3.558.628-6.905.628-10.881 1.045 4.603 1.464 7.951.836 11.09.628.209 1.256.628 1.883.628.209-.419.628-1.047 1.047-1.674l-.628 1.883c.418 0 1.046.209 1.465.209.418-1.255.628-2.72 1.255-4.394 0 1.674-.209 3.139-.209 4.813.628 0 1.047.209 1.674.209 0-1.046.21-2.302.21-3.558.418 1.465.418 2.512.627 3.767.628 0 1.465.21 2.092.21v-4.814c.419 1.884.837 3.349 1.046 4.814.838.209 1.675.209 2.512.209 0-1.674 0-3.139.209-5.023.419 1.884.628 3.558 1.046 5.023h2.093v-7.534c.837 2.93 1.256 5.232 1.465 7.325.628 0 1.255-.21 1.882-.21 0-1.674-.418-3.557-.627-5.441.837 1.884 1.465 3.558 1.674 5.232.418 0 .837-.209 1.256-.209-.21-1.884-.628-3.767-.838-5.86.838 2.093 1.465 3.767 1.884 5.441.418 0 .837 0 1.256-.209-.419-2.93-.628-6.069-1.256-9.625 4.813 11.926 4.813 17.367.418 29.504zm5.859-13.811l.837 1.883 2.93-2.72c.837-1.047 1.674-.837 2.302.628l.209-3.349c1.047-.627 1.884-.209 2.72.837.628-.837.628-1.882.209-3.138l.419-4.185c-1.674-2.721-2.929-4.394-4.813-5.022 1.047 2.301 1.047 4.185.419 5.859-.209-2.721-1.465-4.603-3.558-5.65.837 1.674 1.256 3.348.837 5.022-.418-.628-1.046-1.255-2.092-1.883l.418 2.511-1.255.837.418 8.37zm19.251-14.857c0 .628 0 1.047-.418 1.047-.419 0-.837-.419-1.464-1.047h1.882zm-1.255-3.557c.418 1.046.837 1.883.837 2.511h-2.301c-.419-.628-.838-1.256-1.256-2.092-.209 0-.209-.21-.209-.419h2.929zm-3.766-3.976c.628 0 2.092 1.255 3.139 3.139h-2.721c-.837-1.674-1.046-3.139-.418-3.139zm-1.256 7.324c.209-.209 1.046.628 1.884 1.883.627 1.255.836 2.302.627 2.511-.209.209-1.046-.628-1.674-1.883-.837-1.255-1.046-2.511-.837-2.511zm-3.976-.837c.209-.209 1.256.837 2.302 2.302.837 1.673 1.256 2.929.837 3.138-.209.21-1.256-.837-2.302-2.302-.837-1.673-1.256-2.928-.837-3.138zm-67.587-8.16c.626.418 1.045.837 1.464 1.046l1.046-1.046c-.209 1.463-.628 1.882-1.674 2.928.209-.628.418-1.255.628-1.674-.419-.417-.838-.836-1.464-1.254zm-18.624 209.878l-.837 2.72-.837-.419.419-2.301h1.255zm-64.868 92.28c2.72-1.047 3.348.209 4.185 3.347 2.302 2.093 3.766 3.767 3.766 5.441 4.813 3.975 3.976 5.649-2.51 5.022-2.093-.628-3.348-2.092-3.348-5.022l-2.093-8.788zm1.046 16.112c-1.674 2.511-1.255 5.65.837 8.16 1.256 1.465 2.72 1.884 4.186 1.884l-.837-2.302 2.51 1.674c0-1.256-1.045-2.721-3.347-4.394l3.138.837c0-1.674-1.464-3.139-3.976-4.395h2.093c-1.046-2.929-2.93-3.766-4.604-1.464zm8.161 1.464c.837-.209 1.465.838 1.674 2.093.209 1.256-.209 2.302-1.046 2.51-.628.21-1.465-.835-1.675-2.091 0-1.256.42-2.512 1.047-2.512zm42.478-143.336c0-6.696 2.93-13.184 6.696-19.67-2.72 6.696-5.022 13.183-6.696 19.67zm15.066-38.921c-2.511 1.046-2.72-1.047-.837-2.511 3.976-3.348 8.371-4.603 13.392-4.603h8.789c3.348 0 2.93 3.348-.21 3.139h-6.277c-5.65-.21-10.253 1.464-14.857 3.975z" fill="#fff" fill-rule="evenodd"/><path d="M175.404 250.105c2.302 0 4.185.418 4.185.837 0 .628-1.883.837-4.185.837-2.301 0-4.185-.209-4.185-.837 0-.419 1.884-.837 4.185-.837zm17.159-44.361c-.419-.419-1.465 1.046-2.93 2.93-1.255 1.674-2.093 3.347-1.883 3.347.209.209 1.465-1.045 2.72-2.929 1.465-1.674 2.301-3.348 2.093-3.348zm-14.648 14.439c-1.047 1.882-.628 2.929 1.465 3.766 8.37 2.511 16.531-.21 24.691-4.813l10.253-4.813c1.884-2.302 1.465-2.929-1.046-2.093l-5.021 2.512 1.255-4.185c-2.72 2.092-4.395 4.185-5.65 6.487l-.837-2.093c-1.255 1.046-2.301 2.511-2.72 4.395l-1.046-2.302c-1.047.627-1.884 1.465-2.512 2.72l.419-2.93c-.837-.627-2.093.837-3.767 4.186l.837-3.139c-.627-.628-1.673.628-3.138 3.765l3.347-10.043c-1.674.21-3.975 3.976-6.486 10.671-1.046.21-1.465-.209-1.256-1.045l3.767-7.325c-1.883-.209-3.976 2.512-6.487 7.325l2.93-8.371-5.441 7.115v-2.72c-1.255.418-2.511 1.465-3.557 2.93zm1.046 136.221c-.837-.837.628-1.674 1.047-1.255l2.511 2.302c.627.628-.837 1.674-1.465 1.255l-2.093-2.302zm1.884-1.674c-.419-.627.627-1.464 1.046-1.045l2.092 2.092c.628.627-.628 1.464-1.045 1.046l-2.093-2.093zm1.255-1.882c-.837-.837.628-1.884 1.255-1.256l2.511 2.511c.628.627-1.046 1.674-1.465 1.046l-2.301-2.301zm1.046-3.139c-.836-1.047 1.046-2.512 2.093-1.884l3.766 3.767c1.047 1.047-1.465 2.721-2.092 1.884l-3.767-3.767zm3.976-3.349c-1.256-1.255.418-2.929 1.465-1.882l4.603 3.975c1.255 1.046-.627 2.93-1.673 2.093l-4.395-4.186zm2.72-2.092c-1.046-1.046.21-2.511 1.256-1.674l3.975 3.348c1.047 1.046-.628 2.511-1.464 1.883l-3.767-3.557zm3.557-1.255c-.836-.837.21-2.093 1.046-1.465l3.349 2.93c.837.836-.628 2.301-1.256 1.673l-3.139-3.138zm-16.74-23.646c0-1.046-1.674-.628-1.883.209l-.419 3.767c0 .837 1.884.419 1.884-.209l.418-3.767zm-5.44 5.232c-.209-1.674-1.883-.837-1.883.209l.418 2.929c0 1.465 2.093.628 1.884-.209l-.419-2.929zm-6.278 3.975c-.209-1.465-1.255-1.046-1.255 0l-.209 2.721c-.209 1.465 1.464.837 1.464 0v-2.721zm7.952-5.231c.419 0 .836.419.836 1.047 0 .628-.417 1.046-.836 1.046-.209 0-.627-.418-.627-1.046 0-.628.418-1.047.627-1.047zm-5.859 3.766c.628 0 1.046.628 1.046 1.256 0 .837-.418 1.255-1.046 1.255-.628 0-1.047-.418-1.047-1.255 0-.628.419-1.256 1.047-1.256zm-5.231 3.767c0-1.256-1.674-1.256-1.674-.209v2.511c0 1.256 1.883 1.046 1.883.209l-.209-2.511zm45.407-158.193c.628 0 1.047.627 1.047 1.464s-.419 1.674-1.047 1.674c-.418 0-.837-.837-.837-1.674s.419-1.464.837-1.464zm2.511 3.975c-.418 0-.627-1.046-.627-2.302 0-1.464.209-2.51.627-2.51.419 0 .838 1.046.838 2.51 0 1.256-.419 2.302-.838 2.302zm3.976-1.046c1.046 0 1.883.418 1.883.837 0 .209-.837.628-1.883.628-.838 0-1.675-.419-1.675-.628 0-.419.837-.837 1.675-.837zm2.092 3.557c.419 0 .837.419.837.837 0 .628-.418 1.047-.837 1.047-.209 0-.628-.419-.628-1.047 0-.418.419-.837.628-.837zm3.349-.209h7.742c2.511 0 2.929 1.256 1.255 3.558.838 4.184-4.394 6.905-4.185.209-.419-1.256-1.884-1.884-4.812-1.884-1.256-.418-1.256-1.674 0-1.883zm-12.137 49.174c.628 0 1.046.419 1.046 1.046 0 .628-.418 1.256-1.046 1.256-.419 0-.837-.628-.837-1.256 0-.627.418-1.046.837-1.046zm-3.348 1.046c.627 0 1.255.628 1.255 1.465 0 .627-.628 1.255-1.255 1.255-.838 0-1.256-.628-1.256-1.255 0-.837.418-1.465 1.256-1.465zm4.185 2.301c2.721-1.882 5.44-3.138 5.859-2.51.418.628-1.465 2.72-4.394 4.813-2.93 1.883-5.441 2.929-6.069 2.302-.209-.628 1.674-2.721 4.604-4.605zm10.044-6.486c1.674-1.465 3.348-2.302 3.557-2.093.418.419-.836 1.884-2.51 3.349-1.675 1.255-3.349 2.302-3.558 1.883-.419-.418.837-1.883 2.511-3.139zm-6.486 15.903c.626-1.464 1.254-2.929 2.091-4.185l-.418-.209c.418-2.511 2.302-4.395 4.813-5.65l.419.209c.837-.836 1.883-1.464 3.138-2.092-.627 1.046-1.046 2.092-1.674 2.929l.628.418c1.464-1.464 3.348-2.719 5.44-3.347-1.255 1.674-2.511 2.929-3.976 4.185l1.256.837c1.883-1.675 4.185-2.93 6.069-3.766-1.465 1.464-2.93 3.138-4.604 4.603l1.465.837c1.883-1.465 4.185-2.511 6.277-2.93-1.046.837-2.092 1.674-2.929 2.511 1.464-.418 3.138-.418 5.231-.628-2.721 1.256-4.394 1.675-6.487 2.512l1.674 1.046c2.092-1.256 4.394-1.883 6.278-1.883-1.465.837-3.139 1.883-4.813 2.72l1.464.837c1.884-1.046 4.186-1.464 6.069-1.255-1.674.627-3.139 1.255-4.604 2.091l.837.628c1.884-.837 3.767-1.254 5.65-1.254-1.673.626-2.929 1.464-4.394 2.091l1.256.628c1.674-.628 3.347-.628 4.812-.418-1.256.418-2.51.627-3.766 1.255l4.394 2.721-.837.418-6.696-2.302c-.419 0-.628.21-.837.419 0-.209.209-.419.418-.628l-1.674-.418c-.837.418-1.883 1.046-2.929 1.464.627-.837 1.046-1.464 1.674-1.883l-1.674-.628c-.837.419-1.883 1.047-2.929 1.465.418-.628 1.046-1.465 1.674-2.093l-1.674-.627c-1.256.837-2.302 1.674-3.558 2.302.628-1.047 1.256-1.884 2.093-2.721l-2.302-.836c-1.047 1.045-2.093 1.882-3.138 2.719.209-1.046.836-2.302 1.673-3.138l-2.092-.837c-1.046 1.047-2.302 2.092-3.558 3.138.628-1.255 1.256-2.51 2.093-3.556l-3.348-1.256c-1.047 1.256-2.512 2.511-3.975 3.557zm-23.437 6.487c-2.72 5.44-5.44 13.81-7.323 30.76-1.047 7.533-1.675 15.066-.21 22.808.837 4.185 2.72 5.65 4.603 5.441l31.179-5.022c2.302-.419 4.604-2.302 3.557-4.394l-1.255-2.511-1.047 3.556-1.674-2.929-1.255 3.348-1.884-4.185-1.464 5.022-1.883-3.975-1.046 4.184-1.047-3.557-1.255 4.394-1.466-3.975-1.255 4.812-1.673-4.603-1.256 3.348-1.465-2.72-1.046 2.511-1.465-2.093c-1.465-.627-2.93-.627-4.394 0l-.628 1.046-.837-1.046c-2.302-.627-4.813-1.046-7.115-1.464l2.93-1.465c0-1.047-1.046-1.465-2.93-1.256l3.139-2.302-3.348-.628 3.139-1.883c0-.836-.837-1.673-3.347-2.72l3.347-1.046v-.837l-3.347-.419 3.556-1.674c.419-.837-.628-1.465-2.93-2.302l2.93-.837c-.209-.836-.418-1.882-2.511-2.719l2.511-.838-2.511-1.883 3.139-1.256c0-1.046-.419-1.465-2.302-2.302l3.348-1.464c-.209-.627-1.046-1.674-3.139-2.302l3.139-1.046-2.511-1.674 2.93-1.256-2.302-.837 2.72-1.674c.628-.627-.418-1.255-2.72-1.464l3.139-1.256.209-1.255-2.93.418 1.465-1.255-1.883-1.465 4.395-1.047.418-.837-3.139-.837 2.511-1.464c-.418-1.255-1.255-1.674-2.511-1.674zm4.812 4.394l.628-.209c-2.719 14.857-3.975 29.086-1.882 41.85-1.047-19.879 1.464-41.013 5.23-44.57l.628 1.464c-4.394 15.904-4.812 30.132-1.883 42.897-1.883-21.762-.209-34.317 3.557-41.014v2.093c-2.929 15.275-3.138 27.621-.418 37.665l.837-.628c-1.883-15.902-.837-28.248 1.674-40.594l1.464.209c-2.929 16.113-2.929 28.667-.836 40.176l.836-.837c-1.673-16.53-1.464-28.04 1.047-38.502l1.255.209c-2.302 15.904-2.511 28.458-.419 38.712l.838-.21c-1.674-17.367-.838-29.713 1.465-38.92l.837.837c-1.674 13.811-1.465 25.947 0 37.456l.837-.419c-.419-15.066-1.256-26.993.628-35.782l1.046-1.255c-1.465 11.09-1.465 23.436.419 37.246h.837c-1.465-16.321-1.047-28.667.626-38.711l.837.628c-.837 13.183-.837 25.11.21 38.293l.837-.21c-.837-17.995-.209-30.34 1.674-37.665 1.674-.628 1.674 1.465.209 3.767-1.046 10.881-1.465 21.762 0 33.689l1.256.209c-1.256-17.367-.209-27.412 1.674-37.246 1.046-1.047 2.093.209.837 2.72-1.465 12.137-2.302 20.716-1.046 34.526h1.465c1.673.628 1.882 1.256.209 1.884-10.253 2.092-20.088 3.976-29.504 4.604-1.884.209-2.512-.837-2.512-3.558-.628-14.856 1.047-28.458 4.603-40.804zm34.527 8.579l1.256-6.277c1.465-.837 2.092-.419 1.883 1.255l-2.72 5.231-.419-.209zm-2.302-6.696c-1.465 10.463-1.465 16.74-2.511 27.621l.837 1.884c.209-12.137 1.884-19.879 3.558-29.086.628-1.674-1.047-2.093-1.884-.419zm-3.139-.418c.628-.837 1.674-.628 1.465.418-1.674 8.998-2.719 19.67-2.929 31.807h-.628c-.627-11.718-.209-22.181 2.092-32.225zm-43.523 68.425a26.414 26.414 0 0 1 1.464-10.463c.419-1.464 1.884-2.302 4.394-2.511l28.04-4.184c1.465-.21 1.674.627 1.465 2.51-.419 2.721-.838 5.232-2.093 7.325-1.045.837-1.255-2.721-1.045-8.161-2.093 5.021-1.256 10.253-4.604 11.089-1.466-2.301.837-6.696 1.255-10.044-3.139 2.93-2.093 6.488-4.813 10.254-1.045.209-.836-3.348-.209-8.998-1.464 4.185-2.72 7.534-4.185 8.998-.837-1.255-.837-4.394-.628-7.742-1.255 5.441-2.72 9.206-3.976 9.834-.418-3.138-.209-6.068.21-8.998l-.628-.627c-.837 5.232-1.674 8.37-2.929 9.835-1.047-2.93-1.256-6.278.418-9.626h-1.255c-.837 2.721-1.256 5.023-2.512 5.86-1.674-.21-2.511-2.093-2.511-5.232-1.464 5.859-3.556 8.998-5.858 10.881z" fill="#fff" fill-rule="evenodd"/><path d="M231.274 262.451c-1.674 1.256-2.301 2.72 1.046 2.511-2.301 2.093-2.511 3.558-.628 4.185-4.184 5.231-4.184 6.696-.209 4.394-4.603 5.859-3.975 6.696-.837 5.65-3.975 4.813-3.348 5.441-2.092 5.65-2.721 3.766-2.721 5.649-.209 5.44-2.093.837-3.558 2.511-3.976 5.86-.838 3.347-9.835 7.114-2.303 10.253 2.303 1.255 4.186 4.394 5.651 9.835.628 2.929 1.883 3.138 4.394 2.092 2.092-.628 4.185-.837 6.278-1.047 3.975.419 4.184-3.975-.21-4.603.419-1.674-1.046-2.511-3.348-1.465 1.884-3.139-.418-2.302-1.255-2.72 1.255-.628 1.046-2.092-2.302-.21l-.419-1.046c1.883-.627 2.511-1.673 2.721-2.929l-5.65 1.884c1.674-1.465 2.511-2.511 2.302-3.558l-3.976.837c4.185-2.93 5.859-5.022 5.649-6.068l-4.393 1.255c3.138-2.51 5.23-4.603 5.021-5.859l-3.766 1.465c0-1.255 1.674-2.511 4.813-3.348 2.511-1.256 3.766-2.93 3.348-5.231l-5.65 2.72c4.604-4.185 8.37-7.952 9.416-10.462-.419-1.465-5.022 1.673-11.09 6.696v-1.047c5.859-3.976 10.254-8.579 13.601-13.811l-11.09 8.58 10.044-11.927c-.628-1.465-3.557.209-9.207 6.068l.418-1.256 5.232-5.649c3.975-2.302 6.486-5.232 8.161-8.789 1.046-2.72-2.511.837-7.952 5.65-1.255 1.256-2.72 1.883-4.185 3.348l12.764-13.392.21-1.674c-1.256-1.255-9.417 8.371-16.322 11.718zm-15.066 51.685c-2.302-1.465.209-4.813 1.883-3.348l6.278 4.604c1.883 1.464 0 3.975-1.465 2.929l-6.696-4.185zm2.511-3.976c-2.302-1.465.419-4.394 1.884-3.139l3.347 3.348c1.883 1.675.628 3.139-1.046 2.302l-4.185-2.511zm13.392 12.556c-1.674-.838-2.511.418-1.465 1.255a39.305 39.305 0 0 0 8.789 5.649c3.138 1.675 6.487 1.884 9.626 1.884 2.301 0 3.347-1.465.418-2.093-5.441-1.465-10.881-3.139-17.368-6.695zm1.674-.21c-1.047-1.256-.837-2.302.628-3.139l7.533-.628c1.464 0 2.72.837 3.976 2.511l3.557 3.977c1.464 1.882.209 3.347-1.255 2.928a86.054 86.054 0 0 1-14.439-5.649z" fill="#fff" fill-rule="evenodd"/><path d="M241.318 302.627c1.255-2.302 3.139-3.976 5.859-5.022 7.115-1.046 14.229-2.511 20.925-5.022 2.092-1.465 2.929-1.046 2.72 1.256-.628 6.486-1.465 11.927-3.347 13.601v-11.299l-.837.209c-.628 5.65-1.465 9.835-2.93 11.508l.418-10.462h-1.046l-2.302 10.253.628-8.998c0-1.255-.419-1.464-1.047-.837-1.463 10.462-3.347 14.857-5.44 16.322 2.093-6.696 2.093-11.3 1.675-15.276l-.628-.418c-.628 5.441-1.465 10.672-3.349 14.648-2.092-3.139 1.884-8.579 1.047-13.811h-.419l-3.766 12.974c-1.255 0-.837-1.675.418-5.023l.418-7.323-.627.418c-1.046 3.976-2.092 6.905-3.557 9.417l.628-9.626-2.721 6.905.21-5.649-2.93 1.255zm30.969-7.951c.209-2.302 2.721-1.674 1.674.628l-1.255 2.928h-.628l.209-3.556zm-.628 8.579c.21 0 .419.628.419 1.465 0 .837-.209 1.465-.419 1.465-.209 0-.418-.628-.418-1.465 0-.837.209-1.465.418-1.465zm1.047-3.139c.418 0 .627.209.627.837 0 .419-.209.837-.627.837-.419 0-.837-.418-.837-.837 0-.628.418-.837.837-.837zm-.21-12.764c.628 0 1.047.836 1.256 1.883.209 1.046.209 2.092-.419 2.092-.209.21-.837-.627-1.046-1.674-.209-1.046 0-2.092.209-2.301zm-3.139-6.069c1.884 1.884 2.093 3.558 1.884 5.023-.21 2.092-1.884 3.557-1.884 2.092-.209-1.883 0-3.975-1.464-6.487-.837-1.046.628-1.465 1.464-.628zm-15.275-3.766c.21-2.092 1.884-.418 1.884.837l-.628 3.348c-.628.628-.837.209-1.465-1.046l.209-3.139zm-7.323 10.881c-1.675 1.046-1.675 1.883.209 2.511l.837-.209v.209c0 .837.419 1.465.837 1.465.419 0 .837-.628.837-1.465v-.628l1.883-.418v4.185c-.628.209-1.256.209-2.092.419 0-.419-.418-.628-.628-.628-.418 0-.837.418-.837.837 0 0 .209.209.209.418-.418.21 0 .21.838.837l14.019-3.139c4.185 0 5.231-3.139 4.185-8.16.628-1.675.21-2.302-1.256-2.093l-3.139-.418 1.884-1.256c2.511-1.256 2.511-1.884.418-1.884l-4.394-.627 3.557-.627c1.047-.21 1.465-1.465-.209-2.093l-3.767-.419 2.93-.627c1.883-1.465.837-2.512-2.721-2.93 1.256-1.465 1.047-2.511-.418-2.511-.628-1.464-2.51-2.511-1.883.209l.838 13.811c.417 1.465-.21 2.511-1.884 3.139l-10.253 2.092zm7.951-5.441c.628 0 1.046.419 1.046 1.047 0 .628-.418 1.046-1.046 1.046-.418 0-.837-.418-.837-1.046 0-.628.419-1.047.837-1.047zm8.37 4.395a.45.45 0 0 1 .419.419c0 .417-.21.627-.419.627s-.419-.21-.419-.627c0-.21.21-.419.419-.419zm-.837-2.72c.837-.209 1.465 0 1.674.418.209.628-.418 1.047-1.256 1.256-.837.209-1.464 0-1.674-.628-.209-.209.419-.837 1.256-1.046zm-9.626 8.997h.419v-4.185l-1.046.419.627 3.766zm2.302-.627c.419 0 .628-.21 1.047-.21v-3.976l-1.884.419.837 3.767zm2.512-.837c.209-.21.418-.21.627-.419v-3.348l-.837.209.21 3.558zm1.882-.838s.419 0 .628-.209c1.465-1.674 1.465-2.511-.209-2.93h-.419v3.139zm32.434-197.741c-17.367-1.465-25.737 4.184-30.341 10.044-3.975 5.021-6.068 10.672-6.487 16.949.419 1.046 2.302-1.256 5.022-4.812l-1.673-.628c.418-1.256 1.045-2.302 1.882-3.558.419-.628.419-1.674 1.465-2.302 1.256-.628 2.093-1.883 2.093-2.301h-1.465c4.813-5.859 11.509-7.325 19.042-7.115 2.092.209 3.976.418 5.859.628 1.046.209 2.092-.21 2.72-.628.628-.419.837-1.046-.209-1.046-6.696-1.047-13.392-.628-19.879.836 4.813-3.137 11.718-3.347 21.553-2.928 3.976.209 4.185-2.721.418-3.14zm-30.341 111.74c.628.418.837 1.673.418 3.138-.418 1.256-1.465 2.303-2.092 2.093-.836-.209-1.046-1.674-.628-2.93.628-1.465 1.465-2.51 2.302-2.302zm-15.066 6.068c.21 0 .628 1.046.628 2.092 0 1.256-.418 2.093-.628 2.093-.418 0-.628-.837-.628-2.093 0-1.046.21-2.092.628-2.092zm1.256 7.324c.628-3.976 2.51-7.533 5.858-9.835 2.93-2.093 3.558-1.465 1.256 1.465-2.093 2.72-3.348 6.068-5.022 8.998-.627 1.255-2.511 2.72-2.092-.628zm8.788-15.904c-2.93 1.046-5.232 2.93-6.696 5.65-1.046 2.512-.627 2.721 1.255.837 1.884-2.092 4.186-3.348 6.278-5.022.837-.628 1.675-2.092-.837-1.465zm-17.995 14.02c-1.465 1.884-1.256 2.512 1.255 1.465 3.976-6.069 6.696-10.044 8.998-11.3l7.114-6.277c5.441-1.255 8.58-7.115 9.626-16.95l-.419-1.254c-2.72 6.905-5.859 11.926-10.044 14.647-3.767 2.72-6.905 6.068-9.835 10.044-1.255 1.255-1.255 2.72-2.302 4.394-1.255 1.674-3.347 3.348-4.393 5.231zm-1.674-4.394c-1.256 2.302-.21 3.14 1.046 1.255 4.812-6.696 8.161-11.299 13.182-15.484 4.604-3.558 11.3-10.044 14.02-18.623 1.675-5.023-.209-6.487-1.464-3.349-2.721 7.533-5.859 14.23-10.882 18.205-5.649 4.604-11.718 9.835-15.902 17.996zm-.628-6.905c-1.047 1.883-1.256 3.348-.419 4.394 3.976-1.465 2.721-7.742 12.556-12.764 1.255-1.674.837-2.302-1.256-1.674l-9.207 6.696c3.138-5.022 6.277-8.998 10.881-10.044 2.929-.418 5.65-1.674 8.161-4.394 1.046-2.302.628-2.93-1.047-1.884-5.65 3.767-10.462 5.232-14.857 8.58-3.975 3.348-6.696 7.533-7.742 12.345l2.93-1.255zm-.628-12.137c1.674-3.557 6.277-5.859 12.765-7.951 4.393-1.466 7.951-4.604 11.089-8.37 3.348-2.093 2.721-.21 1.674 2.092-1.255 2.093-2.091 2.721-4.184 3.976-2.511 2.092-6.278 3.976-9.207 5.231-3.558 1.256-6.906 3.349-10.044 7.115-1.884 1.464-2.721.836-2.093-2.093zm9.835-11.927c3.139-1.883 5.858-3.767 7.951-6.906 2.93-4.184 4.186-4.393 3.349 0-.838 3.558-3.349 7.325-8.58 9.207-4.394 1.675-5.65-.418-2.72-2.301zm13.183-9.625l1.464-7.533c.209-2.93 1.256-5.651 3.139-7.953l2.302-6.277c.628-2.511 1.674-2.302 1.674.837l-1.465 3.976c1.256.627.628 1.883-.209 3.139-.209 1.465-.209 3.139-1.674 3.557-.419 5.65-1.047 10.254-2.721 11.718-2.51 3.139-3.347 2.72-2.51-1.464zm-10.044-1.047l3.347-8.16c.837-2.93 2.302-4.604 4.186-4.814l4.603-4.393c1.046-1.256 1.674.418 1.046 1.464l-3.347 5.441c-.628 4.393-2.302 8.369-6.278 12.973-.838.837-2.302.837-1.465-.418l3.976-7.952-5.022 6.906c-1.465 1.883-1.674.418-1.046-1.047zm-5.86 3.348c1.884-5.022 2.511-7.742 4.395-9.417 2.302-2.3 2.929-2.091 1.465.628-1.047 2.093-2.511 5.023-2.511 10.254 0 4.185-5.232 3.348-3.349-1.465zm-.418-6.696c.209 1.674.418 1.255 1.255 0l1.884-5.231c2.092-1.883 5.021-3.976 7.742-7.324 1.256 1.883 3.558.209 7.114-4.603 4.395-2.093 6.488-5.44 7.743-9.626 1.046-3.558.419-4.185-1.883-1.883-3.349 4.394-5.86 6.069-7.114 9.206-3.977 1.256-7.116 5.651-11.719 7.743-1.255.837-1.674 2.092-1.674 3.767-1.883 1.255-3.139 3.348-3.348 7.951zm.418-10.253c.419-.628 1.256-.838 1.675-.628.418.418.418 1.255-.21 1.883-.418.837-1.256 1.047-1.883.628-.209-.419-.209-1.256.418-1.883zm23.227-35.782c2.929-3.558 6.487-6.068 9.835-7.533 3.976-1.674 3.766 1.465 1.047 1.465-2.093 0-5.023 1.882-9.835 7.951-1.256 1.674-2.721.21-1.047-1.883zm-27.621 42.688c-.627-7.534 1.047-11.928 4.603-14.439 9.626-5.859 12.974-14.438 16.114-14.229 3.138-5.441 7.951-11.09 13.6-16.322 4.186-2.929 5.023-2.301 2.721 2.302-6.069 8.579-12.137 18.832-17.577 21.762-2.511.21-4.395 1.675-5.86 3.976l3.767-1.883c1.884-.209 2.093.417.837 1.673-3.139 1.674-8.37 9.835-9.625 4.604-2.093 3.975-5.651 3.348-5.86 7.324l-.419 5.232c-.836 1.463-1.463 1.463-2.301 0zm37.247-54.825c1.884.209 2.72.837 1.256 2.511-4.604 1.884-8.998 5.44-13.183 10.463.418 1.884-.419 3.558-2.512 4.812 0 3.139-1.883 4.604-5.021 5.023l-4.604 5.858c1.046 1.465-.628 3.767-3.976 7.116-2.092 2.301-2.929 1.673-2.511-2.093 2.511-6.906 7.324-16.949 9.626-16.949 1.255 0 1.255-.419 1.674-2.721.209-1.674 1.883-1.255 1.465 0-.209 1.674.209 1.884 1.256.628 5.23-8.579 10.88-12.974 16.53-14.648zm-14.02 2.093c3.767-4.394 10.253-7.324 22.39-7.114 2.511.209 2.093 2.72-.209 2.511-1.884-.209-3.976.627-5.859 1.045-2.302.628-4.813.837-6.906 2.093-4.184 2.302-7.951 6.069-11.3 11.3-1.254.628-1.464.209-.836-1.256 4.185-7.533 9.207-11.509 14.438-11.928l.209-.418c-2.93-.627-6.486.628-11.718 5.441-.628.628-.837 0-.209-1.674zm4.604-6.487c4.603-2.93 9.835-4.604 15.903-3.766 3.766.418 3.766 2.72 1.674 2.511-5.859-.837-11.509-.628-17.159 2.092-2.092 1.047-1.674 0-.418-.837zm29.086-17.158c-1.465-1.883-.419-2.93 2.092-2.721 6.487 1.256 12.136 2.093 15.694 5.022 2.093 1.465.418 2.93-1.046 1.883l-4.395-2.302c.209 1.884-1.464 1.047-3.975-1.045-1.675 1.673-3.767.836-6.069-1.674l1.465 4.184c.209.837-.628.837-1.047.21l-2.719-3.557zm8.997 3.347c-.837.628.21 2.093.838 2.72.837.838 1.882.419 1.464-.836-.209-1.256-1.464-2.51-2.302-1.884zm13.392 5.232c-.628-.418-2.092-1.046-.209-1.465-2.092-1.255-1.255-2.93.209-3.139 5.65-.209 10.044-3.347 16.531.21l2.929 3.348c1.884 4.393.21 6.486-2.301 3.347-1.255-1.882-.209-3.557-3.348-5.021 1.674 3.139 2.93 6.277 2.93 9.835 4.812 4.602.418 5.649-.837 2.72l-1.884-8.58c.419 4.185.628 7.324 0 7.324-1.465 0-.627-2.93-1.255-6.487-.419-1.464-.838-4.185-1.675-4.394-3.556-1.256-6.905-.21-9.625 0 4.604-.21 7.742 0 8.788 1.256 1.465 2.092 1.674 4.393 1.047 6.486-1.047 1.675-1.675 1.256-1.675-.837l-.627-2.72c-.21-1.464-1.883-1.673-4.185-1.464-1.465.209-3.139.627-4.813-.42zm-58.172 156.31a224.688 224.688 0 0 0 23.227 31.807c1.047 1.255.21-2.512 1.047-1.047 1.883 3.976 4.812 7.742 6.068 8.998 1.255-1.047-2.72-4.603-3.348-8.789l11.927 13.811c1.046-1.883-5.859-10.044-11.508-17.159l.837-.837 13.601 17.787.627-.209c-2.092-5.86-8.37-12.974-12.555-19.461l.419-1.464c2.511 3.138 5.859 7.951 8.579 11.926 3.976 5.65 7.534 10.672 8.579 11.091 5.023 1.255-11.926-16.531-19.669-31.387l.21-.837c9.207 14.019 17.367 26.783 26.365 32.642 1.046.628 1.884-.628.837-1.883-8.161-9.626-17.786-20.088-23.646-29.504l.419-.837c8.788 10.463 13.392 22.389 30.132 32.434 1.047.627 1.674 1.674 2.721.836 3.766-2.929-14.439-7.323-28.459-30.969l.21-1.673c5.231 7.114 6.068 9.207 10.88 14.229 6.697 7.323 17.159 15.902 18.833 14.648 1.674-1.465-15.066-12.974-24.064-26.995l.419-.418c7.114 9.835 17.158 21.762 31.806 29.295 2.092 1.047 1.256.837 3.766.837 6.488.419-14.438-10.253-25.319-22.18l.209-1.046c3.14 2.719 7.115 6.277 11.509 9.835 5.231 3.766 10.672 7.114 15.066 9.625 3.976 2.092 7.114 3.348 8.579 2.72 3.767-1.883-14.437-8.37-19.042-13.183 2.721 1.466 5.441 2.512 7.742 3.557 7.953 3.976 13.602 6.697 14.858 5.232.837-1.046-3.348-3.348-10.672-6.069-.837-.836-.209-1.045 1.883-.627 8.37 3.348 13.183 5.65 14.229 5.022 2.72-.837-1.674-2.721-6.696-5.859 6.278 2.72 11.719 5.231 14.647 4.394 1.047-.209-3.556-2.721-7.533-6.277 5.651 3.556 19.042 8.37 6.279-.628l.836-.419c4.813 3.558 10.881 5.022 3.557-.837h1.047c4.185 3.349 6.486 5.859 3.348-1.046 4.185 6.069 8.37 8.37 2.72-.419l6.487 5.023c-2.302 1.046-2.092 1.673 0 2.929 5.44 3.557 5.859 2.93 4.813 0 .627-5.65-1.466-9.417-5.231-11.718-4.186-2.72-3.977.419.837 7.952-1.884-1.465-3.349-3.139-4.395-4.813-.837-1.675-2.721-2.72-4.812-2.72-9.835.209-19.461 2.092-28.668 3.347-7.115 1.047-12.555 0-15.066-1.674-2.512-2.092-3.348-2.929-2.093-5.231.837-1.883 0-3.348-1.255-3.976l-6.697-13.391c.838 1.465 1.884 2.093 2.721 3.347 2.721 4.395 4.603 7.952 5.231 7.743-1.046-2.93-4.603-9.416-7.324-16.741 5.232 9.207 9.835 17.16 11.091 16.113-.628-3.557-4.813-10.462-8.998-17.577 1.256 1.255 1.674 1.674 2.511 2.72 1.674 2.093 3.138 3.976 3.976 3.558-3.348-6.905-6.905-11.3-10.672-12.556-5.859-2.092-9.416-2.93-8.58.837l-2.928-3.348-3.139-.419c-1.047.419.418 2.093 2.511 5.651l-.628.418-3.558-5.65c-1.046-.628-2.511-1.255-2.72 0l1.883 3.767-3.975-4.395c-1.883-1.045-3.976-1.464-3.976-.627l5.859 9.626c-1.046-1.465-2.72-2.93-4.185-5.023-2.302-3.139-4.185-5.44-6.905-5.858-2.72-.209 2.72 4.184 6.486 13.182l-8.997-12.973c-.837-.628-4.395-1.256-4.604 0l10.463 15.066c-4.813-5.44-9.626-10.044-12.346-15.275-.627-.628-1.255-.628-1.883-.628-.419-.209-.837 0-1.256.419l12.765 16.53c-2.511-2.302-5.023-4.813-6.906-7.114-2.72-3.767-5.231-6.278-7.324-9.626-.837-1.046-2.511-.628-2.72-.209-1.046 1.465 9.625 12.345 14.23 18.832-6.488-6.068-11.51-11.927-16.114-18.832-2.091-1.047-3.556-1.047-4.184 0-.628 1.255 12.974 14.228 18.205 22.389-7.115-7.533-14.021-14.647-19.67-22.389-.837-1.047-3.348-1.047-3.348 0 0 2.093 11.718 12.764 21.134 25.738-6.905-7.533-15.275-17.577-18.832-19.67-1.675-.209 4.185 7.114 17.577 22.39-6.696-6.069-12.764-12.555-18.414-19.46-1.675 1.465 5.65 10.671 16.322 22.389l-16.741-17.577c-2.301-1.465-2.72-1.256-1.465.837zm71.146-3.975c-1.465-2.093.628-3.139 2.302-.628 3.347 5.649 6.486 10.463 8.788 15.903 1.047 2.511-.418 3.139-1.465.837-2.72-6.068-6.068-10.881-9.625-16.112zm-6.487-2.093c-1.046-1.674 1.674-2.72 3.766.209 4.814 6.696 8.998 13.392 12.346 20.298 1.884 4.184 0 5.231-1.883 1.465-3.975-8.162-9.207-15.276-14.229-21.972z" fill="#fff" fill-rule="evenodd"/><path d="M294.049 105.095c-.209 3.766 1.884 8.579 5.859 11.718 0-.628-1.883-3.558-3.138-6.069-1.256-2.93-1.883-5.231-2.721-5.649zm12.973 130.572c-.418-6.068-3.766-10.463-10.461-15.484.209 1.463 4.393 5.02 6.905 9.416 2.511 4.185 2.511 5.23 3.556 6.068zm-.209-6.277c-.836-.628-1.464-2.93-3.557-6.278-2.092-3.557-5.65-7.115-5.859-8.161 5.441 3.976 8.998 9.625 9.416 14.439zm-.836-7.952c-.628-.627-1.256-2.302-2.721-4.813-1.674-2.721-4.394-5.44-4.604-6.277 4.395 2.929 7.116 7.114 7.325 11.09zm-.837-8.161c0-2.72-2.093-5.65-5.023-7.324.21.628 1.884 2.302 3.139 4.186 1.047 1.674 1.465 2.719 1.884 3.138zm-3.139-114.67c-1.047 3.558 0 8.58 3.348 12.765.209-.837-1.046-3.976-1.883-6.905-.628-2.721-.837-5.44-1.465-5.86zm-37.038 134.758c-3.139.209-3.766-.42-3.976-3.557 1.465 1.464 2.721 2.092 3.976 3.557zm-4.185-5.44c2.093 2.092 4.185 3.347 6.278 5.649 1.046.419 2.092.419 3.138-.418-3.347-3.557-6.486-5.65-10.044-9.207.209 1.255.419 2.72.628 3.976zm-.837-5.86c4.395 4.395 7.743 7.115 11.718 11.3 1.256.628 2.093.628 2.721 0-4.813-6.068-9.207-10.672-14.021-16.74-.418 1.884-.418 3.767-.418 5.44zm.837-6.696c5.441 6.277 10.672 11.719 16.322 18.624 1.673.837 2.929.837 3.557.209-5.44-7.114-12.345-14.856-18.623-22.6-.419 1.047-.628 1.884-1.047 2.72-.209.42-.209.629-.209 1.047zm1.465-5.23c7.114 8.16 13.602 15.484 21.134 24.48 1.047.629 2.093.629 2.93.21-.837-.836-5.859-6.904-6.696-7.951-6.068-7.532-9.626-11.51-16.531-19.88-.209 1.048-.419 2.094-.837 3.14zm1.256-4.395c7.532 8.37 10.253 12.137 18.414 21.762.837 1.256 5.231 5.65 6.067 6.696 1.047 2.093 4.605 2.093 2.93.628-1.465-1.674 0-.42-2.092-3.14-6.696-8.16-17.787-21.551-24.482-29.921-.21 1.464-.628 2.719-.837 3.975zm1.046-5.022c.209-1.255.418-2.302.628-3.348 6.277 7.95 18.623 22.809 25.737 31.597 3.767 4.603 3.558 4.394 5.651 6.696 0 1.046-.838.628-2.302.209-1.884-2.092-1.674-1.883-3.558-4.395-8.788-10.252-18.414-22.18-26.156-30.76zm.628-4.395c.418-1.464.418-3.138.627-4.602 6.696 10.462 16.322 21.552 26.994 31.387-.837-4.185-14.23-15.694-22.391-26.575-1.674-2.93-3.137-5.65-4.184-7.952.209-1.255.209-2.302.419-3.766 5.649 11.508 14.647 22.18 27.202 33.062-1.465-3.767-14.439-14.23-21.344-25.319-2.511-4.395-4.394-7.953-5.44-10.882v-1.883c5.65 11.3 15.484 23.017 27.203 33.06-1.256-3.765-14.648-14.646-21.135-25.318-2.721-4.603-4.395-8.161-5.649-11.09v-2.093c5.44 10.881 17.577 25.529 28.667 35.155-1.255-3.558-16.322-16.74-22.599-26.993-2.721-4.814-4.604-8.58-5.65-11.51v-2.929c4.603 10.881 16.322 25.319 27.83 34.735-1.255-3.557-15.694-15.484-21.553-25.319-3.139-5.231-4.813-9.207-5.858-12.137 0-1.045 0-2.301.209-3.138 3.975 11.09 15.066 24.482 26.784 33.48-1.256-3.138-14.648-14.02-20.088-23.226-3.558-6.069-5.232-10.044-6.488-12.974 0-1.256 0-2.302.21-3.558 3.348 10.881 13.811 24.064 25.529 33.271-.837-3.139-13.393-12.974-18.833-21.762-3.976-6.696-5.232-11.091-6.487-14.019v-.628c.209-1.256.209-2.721.419-3.976 2.302 10.881 12.346 24.901 24.273 34.526-.837-2.72-12.346-12.555-17.158-20.715-4.604-7.743-5.651-12.346-7.115-14.858 3.557-30.132 16.322-47.918 34.945-51.056l.419.209c-.628 3.557 0 7.951 2.091 12.136.419-.837-.627-5.022-.836-8.579v-3.14l1.674.42c.209 4.184 1.674 8.161 3.557 8.579-1.465-2.302-1.674-5.231-1.674-7.743l2.302.628c0 4.395 1.465 9.207 3.558 9.416-1.884-2.51-1.884-5.858-1.675-8.579l.419.209c.418 1.674 1.046 3.349 1.882 4.186.837-1.046.419-3.139-.208-5.44 2.301-1.256 5.022-1.047 7.951.836 1.047 1.256.628 1.883-.837 1.883h-1.465l3.349 1.465c.209.419.836.837-1.047 1.047l-1.255 1.046 4.393.418c1.465.628 1.256 1.047.838 1.674l-1.047 1.255c3.767 0 7.743.837 12.556 3.349-.21 1.674-2.093 1.465-5.65-.419.837 2.093 4.185 2.302 3.975 3.558-.418 2.301-5.44.209-7.742 3.138l5.65.209c1.255.837.837 1.465-1.046 1.465 2.929 3.558 5.231 4.604 6.068 2.093.837-1.884 1.674-1.884 2.512 0 3.556 2.093 4.184 2.302 2.091 2.72l-3.347.628 3.975.628c1.046.418 1.046 1.255.419 1.882-2.72.419-2.929.838 2.092 1.047 2.093 1.046 2.93 2.092 2.093 2.93-4.395.209-4.185.837 1.046 1.255 1.256.628 1.675 1.465 1.465 2.093-2.72.627-2.302 1.255 1.046 1.255.418.627.837 1.046.209 1.674-3.138.837-2.72 1.255 1.256 1.255.209 1.465 2.511 1.256 3.348 3.139 3.348-.627 4.812 1.675 1.884 1.675l-.21.628c4.812.209 6.905 1.463 6.277 4.393-.418 1.256-6.905-2.511-4.184 7.533l1.045 1.046c1.884.419-.208-4.603 2.93-4.184.418.209.837 1.673.209 4.184-.627 2.302-2.092 3.349-4.393 1.884-2.093-1.465-3.349-2.93-3.14-4.604l.21-3.138c-2.302.209-2.721-1.256-2.93-3.558 0-.419-.837-.209-.628-.837-3.766-.628-5.44.628-6.486 3.348-.21 1.047-1.047.21-1.465-.837.209-.627-1.256.21-2.093-.209-.628 0-.418-1.465-1.046-1.256-.418 0-.418.628-1.255.628-.628-.209-.418-1.674-1.674-.418-.837.837-1.046.837-1.256-.419.21-1.046 1.046-3.138-1.255-.209-.837.418-1.047.418-1.465-.628-1.256-3.557-2.093-3.766-2.512-.628-.626 1.256-1.254 1.465-1.254-.418-1.256-5.44-1.465-5.44-1.046-.21-.21 2.302-.838 2.093-2.093-.628-1.465-4.393-2.093.419-3.139-1.673-1.465-2.511-.419-6.069-2.929-7.115l1.464 7.325c0 1.046-1.673 1.254-1.883-.419-.837-4.813-3.976-13.183-3.348-10.463l1.883 10.045c.21.837-2.092.418-2.511-.838l-2.511-12.555c-.628-3.557-.628 6.696.837 11.091 0 .627-1.674.627-1.465-.21 0-1.046-1.882-12.974-2.51-12.346-1.465 1.465 2.51 13.393-.628 11.509-.419-.209-1.465-12.137-1.884-12.346-.209 0 0 11.509-.418 11.3-3.349-4.185.209-15.484-2.093-16.112-.418 0-1.465 13.81-1.883 13.391 1.465 10.672 10.044 11.091 9.416 14.23l-6.068-3.139c1.674 3.139 4.186 6.487 5.859 10.044-1.883.628.209 3.139 1.464 4.395-1.883-.21-1.464 1.046 2.093 4.393.837.628 1.047 1.256.837 1.884-4.394-1.047-4.813-1.047 2.302 4.604-4.394-.628-4.604-.209.419 3.138.837.628 1.882 1.883 2.092 3.139.209.837-.628.418-1.046.418-.837-.418-2.092-1.255-2.511-1.464-1.256-.21-.418 1.464 5.44 5.858 1.465 1.256 2.093 2.302 1.046 2.721-7.114-4.394-6.695-3.348 1.047 3.348 1.883 2.93 2.093 4.184 1.465 4.603-6.278-5.231-10.463-8.579.418 2.302 1.884 1.884 2.302 3.139.838 3.349-10.882-8.161-5.023-2.721 2.3 4.812.419.418 0 1.046-.417.837-10.463-7.742-10.881-5.86.208 5.65.419 1.046 1.046 1.883.628 2.72-.209.418-1.045 0-1.464-.21-7.534-7.114-6.906-5.65 1.673 6.069 1.256 1.883 1.884 3.557-.209 2.51-9.416-10.67-12.345-12.972-.209 3.349 1.255 2.093 1.465 3.139-.21 2.51-8.579-11.717-8.788-10.252-.417 2.303.627 1.464.627 1.673 0 1.464-7.743-9.416-10.044-11.717-.419 2.093 1.255 2.51 1.046 2.93-.209 1.674-9.416-11.718-9.625-10.253-.419 1.884.838 1.464 1.255 2.302-.209 1.674-10.881-12.346-10.881-11.928-.418 1.464.209 3.348.209 3.139-1.884 1.465-1.046-1.256-1.046-2.301-2.093-3.348-6.695-8.161-7.532-7.534.419 2.929-.837.837-1.883.837-3.139-.21-6.905-8.997-7.533-8.997-2.092-.418l-3.767-.628c-.627-1.254-1.255-1.882-2.093-2.72-6.486-6.277-8.788-6.905-2.302 1.256.21.21-.417.419-.209.628l-7.323-1.255c-.837 0-1.884-.42-2.72-1.465-3.139-5.441-5.022-7.533-10.253-12.556.418 1.884 4.394 5.232 7.533 10.463.837 3.349-2.93 1.883-4.186 1.256-2.301-3.14-3.138-3.558-6.486-7.533-9.417-11.091-19.461-23.646-27.621-32.435zm25.319-87.885c.627.419 1.465 3.139 3.139 6.278 1.674 3.347 4.184 6.487 4.394 7.533-5.022-3.976-7.742-9.416-7.533-13.811zm-3.138 3.348c.836.837 1.464 3.558 3.347 7.324 2.093 3.767 5.441 7.533 5.441 8.788-5.441-4.603-8.788-10.881-8.788-16.112zm-2.93 3.767c1.046.837 1.674 3.975 3.975 8.161 2.302 4.184 6.278 8.579 6.488 9.835-6.488-5.023-10.463-12.137-10.463-17.996zm-2.511 3.766c.209 6.488 4.813 14.439 11.927 20.088-.209-1.465-5.022-6.277-7.533-11.09-2.72-4.603-3.348-7.952-4.394-8.998zm-2.302 3.976c.418 7.115 5.441 15.694 13.601 22.18-.418-1.673-5.858-7.114-8.788-12.345-2.93-5.232-3.767-8.788-4.813-9.835zm-2.092 3.976c.627 7.743 6.277 17.159 15.066 24.064-.419-1.883-6.696-7.533-9.835-13.393-3.349-5.649-3.977-9.416-5.231-10.671zm-2.093 3.976c.837 8.579 7.324 18.623 16.74 26.156-.419-2.093-7.323-8.37-11.091-14.647-3.347-6.069-4.184-10.044-5.649-11.509zm-1.674 3.976c.837 9.207 7.951 20.087 18.205 28.249-.628-2.302-8.161-8.998-12.137-15.695-3.766-6.695-4.603-10.881-6.068-12.554zm-1.465 4.184c.837 9.835 8.579 21.553 19.67 30.342-.838-2.511-8.998-9.835-13.393-17.158-4.184-7.116-4.812-11.509-6.277-13.184zm-1.674 3.977c1.465 10.462 10.253 23.854 21.972 33.27-.838-2.72-10.463-11.3-15.066-19.042-4.395-7.742-5.232-12.137-6.906-14.228zm27.621-41.223c.628.209 1.465 2.511 2.302 4.813.837 2.092 2.093 4.394 2.093 5.022-3.349-2.721-4.814-6.696-4.395-9.835zm54.615 55.242c-2.302-2.302-3.767.418-.628 3.348 2.72 2.511 5.65 1.675 4.812.837l-4.184-4.185zm-16.95-25.947c-.419 0 .209 2.511.418 3.767 0 1.255.419 2.092 1.256 3.138.837 1.046 1.256 1.256 1.047.837-.838-2.302-1.675-4.394-1.884-6.277 0-.837-.419-1.256-.837-1.465zm-2.929-3.139c-.418 0 .21 2.93.21 4.395 0 1.255.418 2.511 1.255 3.766.836 1.046 1.255 1.464 1.045 1.046-.836-2.929-1.673-5.231-1.673-7.533-.209-1.046-.627-1.465-.837-1.674zm-3.139-3.138c-.419-.21.209 3.138.209 4.812 0 1.674.21 3.139 1.256 4.604.837 1.255 1.256 1.673 1.046 1.046-.628-3.139-1.674-5.859-1.674-8.58 0-1.254-.209-1.673-.837-1.882zm-2.93-3.139c-.418-.419 0 3.557 0 5.44-.209 1.883.209 3.348 1.047 5.232 1.046 1.465 1.464 1.883 1.255 1.255-.628-3.767-1.465-6.906-1.465-9.834 0-1.466-.418-1.884-.837-2.093zm-2.929-3.349c-.418-.209 0 4.186-.209 6.278-.209 2.092.209 3.767 1.047 5.65.836 1.883 1.463 2.302 1.254 1.674-.627-4.185-1.464-7.742-1.254-11.09 0-1.465-.419-2.093-.838-2.512zm-3.139-3.138c-.418-.418 0 4.394-.209 6.905-.209 2.093 0 4.185 1.046 6.278.838 2.092 1.256 2.511 1.256 1.883-.628-4.603-1.465-8.579-1.256-12.346.21-1.673-.209-2.301-.837-2.72zm-2.72.21c-.209-.419-.209 3.556-.419 5.44-.209 1.883 0 3.557.837 5.231.628 1.674 1.047 2.092 1.047 1.464-.419-3.765-1.047-6.905-.838-9.835.21-1.463-.209-1.882-.627-2.3zm-2.301 0c-.419-.21-.419 2.928-.628 4.393-.209 1.256-.209 2.511.419 3.977.626 1.464.835 1.674.835 1.255-.209-2.93-.626-5.441-.209-7.743.209-1.045-.208-1.464-.417-1.882z" fill="#fff" fill-rule="evenodd"/><path d="M100.073 40.435c6.279 7.744 12.137 15.067 18.833 23.855 0 1.465-.628 2.302-2.302 2.302-6.905-9.835-12.136-17.786-17.368-25.32-1.046-1.463.21-1.673.837-.837zm31.598 53.778c.628 1.675-.628 2.512-1.884.837-2.72-3.139-2.093-7.115.837-10.672 3.139-3.766 7.115-3.766 10.672-1.046 2.093 1.674 1.465 1.884-1.046 1.884-7.115 0-9.835 3.556-8.579 8.997zm7.323-3.348c-2.93-1.046-3.766.21-3.139 3.348 41.851 59.009 105.253 145.22 179.957 246.916l-.419 1.465 6.277 3.557-2.092-8.37-1.256.837c-57.544-80.352-124.295-174.933-179.328-247.753z" fill="#e2b700" fill-rule="evenodd"/><path d="M240.48 106.35c0-1.465 5.442-5.231 12.556-10.044 3.14-2.511 6.068-3.348 8.788-3.348.837.209 2.093.418 3.767.209 1.675 1.046 1.047 1.883-.837 2.302-.837-.628-1.674-.837-2.51-.42-1.885.42-2.094 1.676-3.348 2.094l-.838-1.255c-2.51 1.673-4.185 6.277-6.068 8.579l-.419-2.302c-1.256.209-2.092 2.93-3.975 4.395.21-1.675-.21-2.512-.837-2.512-3.139 2.093-5.44 3.139-6.279 2.302zm-83.072 109.647c1.884 0 3.558.628 3.558 1.256 0 .837-1.674 1.465-3.558 1.465-2.092 0-3.766-.628-3.766-1.465 0-.628 1.674-1.256 3.766-1.256zm14.23-2.929c1.255-1.883 2.719-2.72 3.138-2.3.418.626-.209 2.51-1.255 4.183-1.255 1.883-2.72 2.93-3.139 2.302-.418-.419.21-2.302 1.256-4.185zm-4.604 2.511c.837-1.465 1.883-2.302 2.302-1.884.418.42 0 1.884-.837 3.35-1.047 1.464-2.093 2.301-2.512 1.882-.418-.418 0-1.883 1.047-3.348zm-4.185.837c.837-1.256 1.673-1.884 1.883-1.674.418.418 0 1.674-.628 2.93-.836 1.046-1.673 1.674-2.092 1.464-.209-.418 0-1.674.837-2.72zM93.168 201.56l-.837 2.301c1.047.21 1.884-1.255 2.93-1.882l-.837 3.766c1.256.21 4.185-2.93 6.277-4.394l-1.465 3.766c1.884 0 3.139-2.72 4.604-4.184l-.837 3.975c2.302-.21 3.767-3.138 5.65-4.812l-.419 3.765c1.674-.209 2.93-2.51 4.604-3.975l.837 2.72c1.465.21 2.302-1.883 3.557-2.72l.628 2.511 3.139-3.139.628 2.721 3.557-1.256 1.045 1.465 2.93-1.465-.209 3.138 3.976-1.673.419 2.092 2.929-1.674v2.72l3.348-.837.209 2.511 5.023-2.092-1.674 3.767 4.393-2.72-.627 2.93 4.813-2.094-2.721 4.395c3.139.21 4.186-2.093 6.278-3.139l-1.465 3.975c3.139-.627 5.859-3.138 8.58-6.486.628 1.046.209 2.72-2.093 6.278 3.348-1.465 5.022-3.767 6.277-6.278l-1.046 4.394c2.093-.209 4.185-1.883 6.069-4.813l-.21 4.185c1.675-1.255 2.929-2.929 3.766-5.022 2.093.837 4.395-.419 5.232-3.766 1.256-3.139.419-4.186-2.302-3.139-8.998 6.277-20.925 7.951-38.502 2.721-11.3-3.14-23.018-3.558-34.735-3.977-5.232-.209-9.626.628-11.719 5.441zm26.575-44.989c.837-1.465 2.511-2.72 4.604-3.975l.419 1.883 5.021-1.674.419 1.674 5.44-2.93c-3.138 3.975-3.766 5.65-2.72 5.65.837 0 4.813-4.603 6.068-3.348-2.72 4.185-.209 2.929 4.395-.837 1.256.419-1.674 3.347-1.256 3.766.419.419 2.093-.837 5.44-3.138.837-.628 2.721-2.721 3.139-1.674.21 1.255-1.046 1.883-1.674 2.72-3.348 3.975-2.511 3.348 3.349-.418.837-.419 2.092-1.465 2.929-1.047-3.976 5.231-2.301 4.185 3.557.628.837-.418 1.884-1.883 2.93-.837-7.324 6.487-6.069 7.324 3.347 2.72-4.393 5.022-3.347 5.231 3.558.837.628-.21 1.465 0 2.302-.419-3.139 3.139-3.558 5.441-2.093 4.604 2.302-1.046 5.231-2.302 6.696-1.883-2.929 2.93-2.72 4.185 1.046 3.558 1.256.418 0 1.883-3.766 4.393-.627 1.047-1.255 0-1.883-2.51-.418 1.464-1.046 1.464-1.674.627l-.837 5.441-1.256-.209v-3.14c-.628-.837-1.256-.837-1.883 0l-1.047 4.186-1.882-1.046c-.628 1.464-1.465 2.929-2.93 3.975-1.256-1.673-2.093-1.255-2.511.209-.838.209-1.256-.418-2.093-.209-.627 1.883-1.255 2.302-2.301 1.046-1.674 1.046-3.139 2.093-4.813 3.767l-.837-2.093c-1.465 2.093-2.72 3.349-3.557 2.93l-1.465-1.465-2.302 3.767-3.767 1.046c0 1.046 1.465 1.046 3.976.627 3.349-.418 9.835-1.882 14.02-3.138 4.185-1.256 8.789-1.883 13.811-3.976 3.976-1.883 8.579-5.231 13.183-7.533 1.046.837.209 2.93-8.579 9.835l-4.186-1.256 2.302 3.139c-1.046 1.047-1.883 1.465-2.93 1.256l-3.766-1.883 1.255 3.975c-2.72 0-3.975-3.348-6.486-1.883l1.046 3.139-5.65-1.675 1.046 3.767-4.812-2.092-1.047 2.092c-1.465 0-2.302.419-2.511 1.046 11.091 1.884 23.227-2.092 35.783-8.16.628-.209.836.209.836 1.255-1.046 5.022-4.603 9.417-10.253 13.392l1.674-6.696c-3.766 1.674-7.952 9.835-11.09 10.881l3.347-8.788-9.834 8.161c-.838-1.047.418-3.349 2.511-6.278-2.93 0-7.952 6.905-8.789 6.487-2.092-1.046 1.675-3.139 2.512-4.604-2.721-.21-4.604 2.302-6.906 3.558-.21-1.256 1.255-2.72 3.767-5.022l-8.161 3.766c0-1.465 3.139-2.72 3.766-4.812-3.766 2.51-7.114 4.184-7.951 3.975l2.511-3.975-7.115 3.766 4.394-4.604-7.532 3.557 2.092-3.975-5.441 3.556 2.302-4.393c-2.721 2.302-5.231 3.766-6.696 3.766 1.465-1.883 2.512-3.348 2.302-4.394-2.511 2.093-5.022 3.558-6.069 3.558l1.047-3.558c-2.093 2.093-4.394 3.558-6.905 4.394l2.511-4.185c.418-.628.209-1.464-.628-.837l-5.65 4.603c1.255-2.301 1.883-3.766 1.046-4.394l-3.975 2.093.419-2.302-4.604 5.022c-.628-.209.209-1.464.837-3.766l-4.813 3.14c2.511-5.023 6.696-8.372 12.345-10.045 6.696-2.093 11.928-2.302 16.112-2.93 7.325-1.046 11.928-1.674 17.788-4.395 2.719-1.046 5.858-2.301 9.207-5.021 1.673-1.256 1.046-1.675-.837-1.465l-7.533.418v-3.348l-2.93 3.976-.628-3.976-2.511 6.906-1.046-7.952-1.884 8.58-1.045-8.371-3.139 9.626-.838-10.045-1.883 10.254-1.883-10.463-1.255 10.463-2.093-9.835-.837 9.416-2.72-9.625-.21 10.044-3.139-9.626-.627 8.58-2.092-8.371-.837 7.534-1.675-6.906-1.046 7.534c-3.139-5.859-4.394-10.672-2.302-13.392 3.139-3.558 7.324-4.395 11.509-3.767zm23.855-22.808c.628 0 1.256.837 1.674 2.301.418 1.465.418 2.721.209 2.721-.627.209-1.255-.838-1.674-2.302-.418-1.255-.418-2.511-.209-2.72zm-21.344-2.511c3.139-4.813 5.65-6.278 7.324-2.511 2.093-6.696 4.395-7.324 7.323-1.465 3.976 0 4.814 6.068 4.186 15.066l-3.767-10.044v6.487c-2.51-11.091-18.623-4.603-15.066-7.533zm69.472-36.41c4.603.419 9.207 2.093 13.601 4.603.21.628.418 1.047-.419.628-1.674-1.255-3.138-1.882-4.394-1.882.42 1.882.21 2.719-.627 2.51-1.675-2.93-3.14-3.348-4.395-2.72-.419.21-.628.418-1.047.21-1.255-2.721-1.882-2.721-2.51-1.674-1.255-1.047-1.255-1.675-.209-1.675zm-23.646 1.256c-1.046.628-1.046 1.046-.209 1.255 1.465-1.255 2.93-1.464 4.813.419 0-2.721 1.045-2.511 3.348.836-.838-3.347 0-4.184 3.557.837 0-2.72.209-3.138 2.511 1.465.628.837 1.255.837 1.464.419-1.254-4.812-.626-4.603 2.093.418.837 1.047 1.256 1.047 1.256.419-.21-3.348 1.255-2.72 4.394 1.883.837 1.047 1.256 1.465 1.464.419-.627-2.721.628-2.512 3.35.837 2.091-.209 5.021 1.465 8.787 4.812.42.628.837.837 1.256.628-2.093-3.766.418-2.302 3.767 0 2.091-1.046 2.301-1.674 1.046-2.093-7.115-2.51-12.974-5.23-17.159-8.37-4.813-3.765-6.905-2.72-12.555-6.277-4.813-2.093-9.207-1.046-13.183 2.093zm-10.253 6.696c-2.511.837-2.511 1.883-.209 2.302 1.046.209 1.883.209 2.72 0 1.465-.21 2.093 0 2.721 1.255 1.045 2.092 2.301 2.929 3.347 2.301.628-.628-3.975-3.975-1.674-3.975h1.255c3.558 3.347 6.906 5.231 6.697 4.603l-1.465-3.766c-.418-1.255 1.465-.628 2.302.209l4.813 4.185c.627.837 0-.628-.838-3.347-.418-.838.838-.838 1.674 0 2.93 2.928 6.487 7.951 6.487 6.067v-1.883c0-.837 1.046-.837 1.674 0 1.674 2.093 3.976 3.976 3.767 3.139l-.418-1.674c-.21-1.046.627-1.046 1.883 0l5.022 4.185c1.046.836 1.883.419 1.464-.209l-.837-1.256c-.627-1.046-.209-1.255 1.047-.418l4.394 3.138c.836.628.836-.209-.419-2.092h2.511c.42 1.464 1.465 1.883 3.976 2.929.628.419.838-.419 2.092-.837l6.07-1.882c1.882-.628 1.673-1.884 0-1.465-8.789 2.302-17.996-2.093-27.831-7.533-12.974-6.906-23.437-6.906-32.225-3.976zm86.211 4.812c.42.418 0 1.046-.628 1.883-.628.628-1.464.837-1.883.628-.209-.418 0-1.255.628-1.883.837-.628 1.465-.837 1.883-.628zm6.696 1.674c-1.464-1.046-2.092 1.465.418.628l3.558-3.138c1.674-2.93.628.836 1.674.627 1.256-.418 3.138-4.185 2.72-5.65l2.93-1.465c1.674-1.464 1.255-2.092-1.047-1.883-2.719 2.093-5.44 4.395-7.742 7.534l-2.51 3.347z" fill="#0092d0" fill-rule="evenodd"/></svg>