<?xml version="1.0" encoding="utf-8"?>
<!-- Generator: Adobe Illustrator 18.1.1, SVG Export Plug-In . SVG Version: 6.00 Build 0)  -->
<svg version="1.1" id="Layer_1" xmlns="http://www.w3.org/2000/svg" xmlns:xlink="http://www.w3.org/1999/xlink" x="0px" y="0px"
	 viewBox="0 0 34 34" enable-background="new 0 0 34 34" xml:space="preserve">
<g>
	<path fill="#BE1E2D" d="M32,21.7c-0.6-0.6-1.7-0.2-4.2,0.8c-0.6,0.2-1.4,0.5-2.2,0.8c0-0.7-0.1-1.2-0.5-1.6
		c-0.5-0.5-1.2-0.5-1.3-0.5c-3.3,0.1-3.8-0.3-4.4-0.6c-0.8-0.5-1.8-1-7.2-1c-0.3,0-0.5,0.2-0.5,0.5v6.4c0,0.2,0.1,0.3,0.2,0.4
		c0.2,0.1,2.7,1.8,6.9,1.8c3.3,0,7.6-1,12.8-4.5c0.1-0.1,0.9-0.6,0.9-1.4C32.5,22.5,32.4,22.1,32,21.7z M31,23.3
		c-10.1,6.8-17.1,3.6-18.4,2.8v-5.7c4.7,0,5.5,0.5,6.2,0.9c0.8,0.4,1.4,0.8,4.9,0.8c0,0,0.4,0,0.6,0.2c0.2,0.2,0.2,0.5,0.2,0.8
		c0,0.1,0,0.2-0.2,0.4c-0.4,0.3-1.7,0.8-5.7,0.3c-0.3,0-0.5,0.2-0.5,0.4c0,0.3,0.2,0.5,0.4,0.5c1.2,0.2,2.3,0.2,3.2,0.2
		c1.1,0,1.9-0.1,2.5-0.3c0,0,0,0,0,0c1.5-0.5,2.8-1,3.8-1.3c1.5-0.6,3-1.1,3.2-1c0.2,0.1,0.1,0.2,0.1,0.3
		C31.5,22.9,31.2,23.2,31,23.3z"/>
	<path fill="#BE1E2D" d="M9.4,28.3H6c-0.8,0-1.4-0.6-1.4-1.4v-7.2c0-0.8,0.6-1.4,1.4-1.4h3.4c0.8,0,1.4,0.6,1.4,1.4v7.2
		C10.8,27.7,10.1,28.3,9.4,28.3z M6,19.3c-0.2,0-0.4,0.2-0.4,0.4v7.2c0,0.2,0.2,0.4,0.4,0.4h3.4c0.2,0,0.4-0.2,0.4-0.4v-7.2
		c0-0.2-0.2-0.4-0.4-0.4H6z"/>
	<path fill="#BE1E2D" d="M7.7,26.3c-0.3,0-0.5-0.2-0.5-0.5v-2.4c0-0.3,0.2-0.5,0.5-0.5c0.3,0,0.5,0.2,0.5,0.5v2.4
		C8.2,26,8,26.3,7.7,26.3z"/>
	<path fill="#BE1E2D" d="M15.3,16.3c-0.9,0-1.7-0.7-1.7-1.7c0-0.9,0.7-1.7,1.7-1.7c0.9,0,1.7,0.7,1.7,1.7
		C17,15.6,16.2,16.3,15.3,16.3z M15.3,14c-0.4,0-0.7,0.3-0.7,0.7c0,0.4,0.3,0.7,0.7,0.7c0.4,0,0.7-0.3,0.7-0.7
		C16,14.3,15.7,14,15.3,14z"/>
	<path fill="#BE1E2D" d="M19.8,16.3c-0.9,0-1.7-0.7-1.7-1.7c0-0.9,0.7-1.7,1.7-1.7c0.9,0,1.7,0.7,1.7,1.7
		C21.5,15.6,20.7,16.3,19.8,16.3z M19.8,14c-0.4,0-0.7,0.3-0.7,0.7c0,0.4,0.3,0.7,0.7,0.7c0.4,0,0.7-0.3,0.7-0.7
		C20.5,14.3,20.2,14,19.8,14z"/>
	<path fill="#BE1E2D" d="M24.3,16.3c-0.9,0-1.7-0.7-1.7-1.7c0-0.9,0.7-1.7,1.7-1.7c0.9,0,1.7,0.7,1.7,1.7
		C26,15.6,25.2,16.3,24.3,16.3z M24.3,14c-0.4,0-0.7,0.3-0.7,0.7c0,0.4,0.3,0.7,0.7,0.7c0.4,0,0.7-0.3,0.7-0.7
		C25,14.3,24.7,14,24.3,14z"/>
	<path fill="#BE1E2D" d="M28.8,16.3c-0.9,0-1.7-0.7-1.7-1.7c0-0.9,0.7-1.7,1.7-1.7c0.9,0,1.7,0.7,1.7,1.7
		C30.4,15.6,29.7,16.3,28.8,16.3z M28.8,14c-0.4,0-0.7,0.3-0.7,0.7c0,0.4,0.3,0.7,0.7,0.7c0.4,0,0.7-0.3,0.7-0.7
		C29.5,14.3,29.2,14,28.8,14z"/>
	<path fill="#BE1E2D" d="M31.2,5.9H12.9c-0.7,0-1.3,0.6-1.3,1.3v1.6v2.4v6c0,0.7,0.6,1.3,1.3,1.3h18.2c0.7,0,1.3-0.6,1.3-1.3v-6V8.8
		V7.2C32.5,6.5,31.9,5.9,31.2,5.9z M12.9,6.9h18.2c0.2,0,0.3,0.1,0.3,0.3v1.1H12.6V7.2C12.6,7,12.8,6.9,12.9,6.9z M31.5,10.7H12.6
		V9.3h18.9V10.7z M31.2,17.6H12.9c-0.2,0-0.3-0.1-0.3-0.3v-5.5h18.9v5.5C31.5,17.4,31.3,17.6,31.2,17.6z"/>
</g>
</svg>
