<?xml version="1.0" encoding="utf-8"?>
<!-- Generator: Adobe Illustrator 18.1.1, SVG Export Plug-In . SVG Version: 6.00 Build 0)  -->
<svg version="1.1" id="Layer_1" xmlns="http://www.w3.org/2000/svg" xmlns:xlink="http://www.w3.org/1999/xlink" x="0px" y="0px"
	 viewBox="0 0 34 34" enable-background="new 0 0 34 34" xml:space="preserve">
<g>
	<path fill="#BE1E2D" d="M3.9,12.6c0,2.3,2.4,2.3,3.2,2.3c0.8,0,3.2,0,3.2-2.3c0-1.3-0.8-2.8-2-3.4c0.6-0.5,1-1.2,1-2
		c0-1.3-1-2.3-2.1-2.3C5.9,4.9,5,6,5,7.2c0,0.8,0.4,1.6,1,2C4.7,9.9,3.9,11.3,3.9,12.6z M5.8,7.2c0-0.8,0.6-1.5,1.3-1.5
		c0.7,0,1.3,0.7,1.3,1.5c0,0.9-0.7,1.7-1.3,1.7C6.4,8.9,5.8,8.1,5.8,7.2z M7.1,9.8c1.3,0,2.4,1.6,2.4,2.9c0,0.8-0.3,1.5-2.4,1.5
		c-2.1,0-2.4-0.7-2.4-1.5C4.7,11.3,5.8,9.8,7.1,9.8z"/>
	<path fill="#BE1E2D" d="M14.1,7.5h7.4c0.2,0,0.4-0.2,0.4-0.4c0-0.2-0.2-0.4-0.4-0.4h-7.4c-0.2,0-0.4,0.2-0.4,0.4
		C13.7,7.4,13.9,7.5,14.1,7.5z"/>
	<path fill="#BE1E2D" d="M14.1,10.3h7.4c0.2,0,0.4-0.2,0.4-0.4c0-0.2-0.2-0.4-0.4-0.4h-7.4c-0.2,0-0.4,0.2-0.4,0.4
		C13.7,10.1,13.9,10.3,14.1,10.3z"/>
	<path fill="#BE1E2D" d="M20.1,12.7c0-0.2-0.2-0.4-0.4-0.4h-5.5c-0.2,0-0.4,0.2-0.4,0.4c0,0.2,0.2,0.4,0.4,0.4h5.5
		C19.9,13.1,20.1,12.9,20.1,12.7z"/>
	<path fill="#BE1E2D" d="M31.1,13.6c-0.2-0.1-0.4,0-0.6,0.2c-0.9,1.1-2,1.7-3.2,1.7c-1.1,0-2.2-0.5-3-1.5V4.8c0-0.8-0.6-1.4-1.4-1.4
		H3C2.2,3.4,1.6,4,1.6,4.8v10.3c0,0.8,0.6,1.4,1.4,1.4h13.2v5.1c0,0.3,0,0.6,0,0.9c0,0,0,0,0,0c0,0,0,0.1,0,0.1c0.4,4,3,7.1,7.4,8.7
		c0,0,0,0,0,0c0,0,0,0,0,0c0,0,0,0,0,0c0,0,0.1,0,0.2,0c0.1,0,0.1,0,0.2,0c0,0,0,0,0,0c0,0,0,0,0,0h0c4.4-1.6,7-4.7,7.4-8.7
		c0,0,0-0.1,0-0.1c0,0,0,0,0,0c0-0.3,0-0.6,0-0.9v-7.4C31.4,13.9,31.3,13.7,31.1,13.6z M11.6,15.4H3c-0.2,0-0.3-0.1-0.3-0.3V4.8
		c0-0.2,0.1-0.3,0.3-0.3h8.6V15.4z M16.5,13.6c-0.2,0.1-0.3,0.3-0.3,0.5v1.3h-3.5V4.5H23c0.2,0,0.3,0.1,0.3,0.3v9.1
		c-0.8,1-1.9,1.6-3.1,1.6c-1.2,0-2.3-0.6-3.2-1.7C17,13.6,16.7,13.5,16.5,13.6z M17.2,21.5v-6.2c0.9,0.8,2,1.2,3.1,1.2
		c1.1,0,2.2-0.4,3.1-1.2V18c-2.1,0.2-3.7,1.9-3.9,3.9h-2.2C17.2,21.8,17.2,21.7,17.2,21.5z M23.3,30c-2.6-1.1-5.5-3.2-6-7.1h2.1
		c0.2,2.1,1.9,3.7,4,4V30z M23.8,25.9c-1.9,0-3.5-1.6-3.5-3.5c0-1.9,1.6-3.5,3.5-3.5c1.9,0,3.5,1.6,3.5,3.5
		C27.3,24.4,25.7,25.9,23.8,25.9z M24.3,30.1v-3.2c2.1-0.2,3.7-1.9,4-4h2.1C29.7,27.1,26.6,29.1,24.3,30.1z M30.4,21.5
		c0,0.1,0,0.3,0,0.4h-2.2c-0.2-2.1-1.8-3.7-3.9-3.9v-2.6c0.9,0.7,1.9,1.1,3,1.1c1.1,0,2.2-0.4,3.1-1.2V21.5z"/>
	<path fill="#BE1E2D" d="M25.5,20.5c-0.2-0.1-0.5,0-0.7,0.2l-1.3,2.5l-0.8-1.1c-0.2-0.2-0.5-0.3-0.7-0.1c-0.2,0.2-0.3,0.5-0.1,0.7
		l1.2,1.7c0.1,0.1,0.2,0.2,0.4,0.2c0,0,0,0,0,0c0.2,0,0.3-0.1,0.4-0.3l1.7-3.2C25.8,21,25.7,20.6,25.5,20.5z"/>
</g>
</svg>
