<?xml version="1.0" encoding="utf-8"?>
<!-- Generator: Adobe Illustrator 18.1.1, SVG Export Plug-In . SVG Version: 6.00 Build 0)  -->
<svg version="1.1" id="Layer_1" xmlns="http://www.w3.org/2000/svg" xmlns:xlink="http://www.w3.org/1999/xlink" x="0px" y="0px"
	 viewBox="0 0 42.5 28.4" enable-background="new 0 0 42.5 28.4" xml:space="preserve">
<g>
	<path fill="#BE1E2D" d="M39.7,1.8H3c-1.1,0-2,0.9-2,2v22c0,1.1,0.9,2,2,2h36.7c1.1,0,2-0.9,2-2v-22C41.7,2.7,40.8,1.8,39.7,1.8z
		 M40.7,25.8c0,0.5-0.4,1-1,1H3c-0.5,0-1-0.4-1-1v-22c0-0.5,0.4-1,1-1h36.7c0.5,0,1,0.4,1,1V25.8z"/>
	<path fill="#BE1E2D" d="M5.2,21.9h10.3c0.3,0,0.5-0.2,0.5-0.5V10.6c0-0.3-0.2-0.5-0.5-0.5H5.2c-0.3,0-0.5,0.2-0.5,0.5v10.7
		C4.7,21.7,4.9,21.9,5.2,21.9z M10.3,16.5c-0.9,0-1.7-0.8-1.7-1.7s0.8-1.7,1.7-1.7s1.7,0.8,1.7,1.7S11.2,16.5,10.3,16.5z M14.1,20.9
		H6.5c0.2-1.9,1.9-3.4,3.8-3.4C12.3,17.5,13.9,19,14.1,20.9z M14.9,11.1v8.8c-0.4-1.4-1.5-2.6-2.9-3.1c0.6-0.5,1-1.2,1-2.1
		c0-1.5-1.2-2.7-2.7-2.7s-2.7,1.2-2.7,2.7c0,0.8,0.4,1.6,1,2.1c-1.4,0.5-2.4,1.7-2.9,3.1v-8.8H14.9z"/>
	<path fill="#BE1E2D" d="M37.5,10.1H18.4c-0.3,0-0.5,0.2-0.5,0.5s0.2,0.5,0.5,0.5h19.1c0.3,0,0.5-0.2,0.5-0.5S37.8,10.1,37.5,10.1z"
		/>
	<path fill="#BE1E2D" d="M31.1,16.7H18.4c-0.3,0-0.5,0.2-0.5,0.5s0.2,0.5,0.5,0.5h12.7c0.3,0,0.5-0.2,0.5-0.5S31.4,16.7,31.1,16.7z"
		/>
	<path fill="#BE1E2D" d="M30.8,19.4H18.4c-0.3,0-0.5,0.2-0.5,0.5s0.2,0.5,0.5,0.5h12.4c0.3,0,0.5-0.2,0.5-0.5S31.1,19.4,30.8,19.4z"
		/>
	<path fill="#BE1E2D" d="M30.8,22.1H18.4c-0.3,0-0.5,0.2-0.5,0.5s0.2,0.5,0.5,0.5h12.4c0.3,0,0.5-0.2,0.5-0.5S31.1,22.1,30.8,22.1z"
		/>
	<path fill="#BE1E2D" d="M12.1,24.2c-0.3-0.3-0.9-0.8-1.8-0.8c-1,0-1.6,0.5-1.8,0.8c-1-0.1-1.2-0.2-1.6-0.9
		c-0.1-0.1-0.3-0.2-0.4-0.2c-0.7,0-1.2,0.2-1.5,0.6c-0.5,0.6-0.4,1.4-0.3,1.5c0,0.2,0.3,0.4,0.5,0.4c0,0,0.1,0,0.1,0
		c0.3,0,0.4-0.3,0.4-0.6c0-0.1,0-0.4,0.1-0.6c0.1-0.1,0.3-0.2,0.5-0.2c0.6,0.9,1.2,1.1,2.5,1.2c0.2,0,0.4-0.1,0.5-0.3
		c0,0,0.3-0.6,1.2-0.6c0.8,0,1.2,0.6,1.2,0.7c0.1,0.1,0.2,0.2,0.3,0.3c0.1,0,0.3,0,0.4-0.1c1.8-1.1,3-0.1,3.1-0.1
		c0.2,0.2,0.5,0.1,0.7-0.1c0.2-0.2,0.1-0.5-0.1-0.7C15.9,24.3,14.3,23.2,12.1,24.2z"/>
	<circle fill="#BE1E2D" cx="19.1" cy="14" r="0.7"/>
	<circle fill="#BE1E2D" cx="21.3" cy="14" r="0.7"/>
	<circle fill="#BE1E2D" cx="23.5" cy="14" r="0.7"/>
	<circle fill="#BE1E2D" cx="25.7" cy="14" r="0.7"/>
	<circle fill="#BE1E2D" cx="27.9" cy="14" r="0.7"/>
	<circle fill="#BE1E2D" cx="30.1" cy="14" r="0.7"/>
	<circle fill="#BE1E2D" cx="36.8" cy="14" r="0.7"/>
	<circle fill="#BE1E2D" cx="34.6" cy="14" r="0.7"/>
	<circle fill="#BE1E2D" cx="32.3" cy="14" r="0.7"/>
	<path fill="#BE1E2D" d="M37.5,4.7H5.2c-0.3,0-0.5,0.2-0.5,0.5v3c0,0.3,0.2,0.5,0.5,0.5h32.3c0.3,0,0.5-0.2,0.5-0.5v-3
		C38,4.9,37.8,4.7,37.5,4.7z M37,7.7H5.7v-2H37V7.7z"/>
</g>
</svg>
