<?xml version="1.0" encoding="utf-8"?>
<!-- Generator: Adobe Illustrator 18.1.1, SVG Export Plug-In . SVG Version: 6.00 Build 0)  -->
<svg version="1.1" id="Layer_1" xmlns="http://www.w3.org/2000/svg" xmlns:xlink="http://www.w3.org/1999/xlink" x="0px" y="0px"
	 viewBox="0 0 70.9 31.2" enable-background="new 0 0 70.9 31.2" xml:space="preserve">
<g>
	<path fill="#BE1E2D" d="M70.1,13.5l-2.7-6.7c-0.1-0.2-0.3-0.4-0.5-0.4H57c-1.1,0-2.1,0.9-2.1,2.1l0,8.6c0,0.1,0,0.2,0.1,0.3l2.1,4
		c0.1,0.2,0.3,0.3,0.5,0.3h0.7c-0.4,0.7-0.7,1.5-0.7,2.4c0,2.5,2.1,4.6,4.6,4.6c2,0,3.8-1.3,4.4-3.2h1.8c0.2,0,0.3-0.1,0.5-0.2
		l1.3-1.8c0.1-0.1,0.1-0.2,0.1-0.3v-9.5C70.1,13.6,70.1,13.5,70.1,13.5z M61.5,7.5h5l2.3,5.6h-7.2V7.5z M56,8.5
		c0-0.5,0.4-0.9,0.9-0.9h3.4v5.6H56V8.5z M56,16.9v-2.6h4.4v5.5c-0.4,0.2-0.8,0.4-1.1,0.7h-1.4L56,16.9z M62.1,27.5
		c-1.9,0-3.5-1.6-3.5-3.5c0-1.9,1.6-3.5,3.5-3.5c1.9,0,3.5,1.6,3.5,3.5C65.6,25.9,64.1,27.5,62.1,27.5z M69,23l-1,1.4h-1.3
		c0-0.1,0-0.2,0-0.3c0-0.9-0.3-1.7-0.7-2.4h3V23z M69,20.5h-3.9c-0.8-0.7-1.8-1-2.9-1c-0.2,0-0.4,0-0.6,0v-5.2H69V20.5z"/>
	<path fill="#BE1E2D" d="M62.1,21.7c-1.3,0-2.3,1-2.3,2.3c0,1.3,1,2.3,2.3,2.3c1.3,0,2.3-1,2.3-2.3C64.4,22.8,63.4,21.7,62.1,21.7z
		 M62.1,25.2c-0.6,0-1.1-0.5-1.1-1.1c0-0.6,0.5-1.1,1.1-1.1c0.6,0,1.1,0.5,1.1,1.1C63.3,24.6,62.8,25.2,62.1,25.2z"/>
	<path fill="#BE1E2D" d="M41.3,19.4c-2.5,0-4.6,2.1-4.6,4.6c0,2.5,2.1,4.6,4.6,4.6c2.5,0,4.6-2.1,4.6-4.6
		C46,21.5,43.9,19.4,41.3,19.4z M41.3,27.5c-1.9,0-3.5-1.6-3.5-3.5c0-1.9,1.6-3.5,3.5-3.5c1.9,0,3.5,1.6,3.5,3.5
		C44.8,25.9,43.3,27.5,41.3,27.5z"/>
	<path fill="#BE1E2D" d="M41.3,21.7c-1.3,0-2.3,1-2.3,2.3c0,1.3,1,2.3,2.3,2.3c1.3,0,2.3-1,2.3-2.3C43.6,22.8,42.6,21.7,41.3,21.7z
		 M41.3,25.2c-0.6,0-1.1-0.5-1.1-1.1c0-0.6,0.5-1.1,1.1-1.1c0.6,0,1.1,0.5,1.1,1.1C42.5,24.6,42,25.2,41.3,25.2z"/>
	<path fill="#BE1E2D" d="M10.8,19.4c-2.5,0-4.6,2.1-4.6,4.6c0,2.5,2.1,4.6,4.6,4.6c2.5,0,4.6-2.1,4.6-4.6
		C15.4,21.5,13.3,19.4,10.8,19.4z M10.8,27.5c-1.9,0-3.5-1.6-3.5-3.5c0-1.9,1.6-3.5,3.5-3.5c1.9,0,3.5,1.6,3.5,3.5
		C14.2,25.9,12.7,27.5,10.8,27.5z"/>
	<path fill="#BE1E2D" d="M10.8,21.7c-1.3,0-2.3,1-2.3,2.3c0,1.3,1,2.3,2.3,2.3c1.3,0,2.3-1,2.3-2.3C13,22.8,12,21.7,10.8,21.7z
		 M10.8,25.2c-0.6,0-1.1-0.5-1.1-1.1c0-0.6,0.5-1.1,1.1-1.1c0.6,0,1.1,0.5,1.1,1.1C11.9,24.6,11.4,25.2,10.8,25.2z"/>
	<path fill="#BE1E2D" d="M21.4,19.4c-2.5,0-4.6,2.1-4.6,4.6c0,2.5,2.1,4.6,4.6,4.6c2.5,0,4.6-2.1,4.6-4.6
		C26,21.5,23.9,19.4,21.4,19.4z M21.4,27.5c-1.9,0-3.5-1.6-3.5-3.5c0-1.9,1.6-3.5,3.5-3.5c1.9,0,3.5,1.6,3.5,3.5
		C24.9,25.9,23.3,27.5,21.4,27.5z"/>
	<path fill="#BE1E2D" d="M21.4,21.7c-1.3,0-2.3,1-2.3,2.3c0,1.3,1,2.3,2.3,2.3c1.3,0,2.3-1,2.3-2.3C23.7,22.8,22.6,21.7,21.4,21.7z
		 M21.4,25.2c-0.6,0-1.1-0.5-1.1-1.1c0-0.6,0.5-1.1,1.1-1.1c0.6,0,1.1,0.5,1.1,1.1C22.5,24.6,22,25.2,21.4,25.2z"/>
	<path fill="#BE1E2D" d="M63,16.4h1.5c0.3,0,0.6-0.3,0.6-0.6s-0.3-0.6-0.6-0.6H63c-0.3,0-0.6,0.3-0.6,0.6S62.7,16.4,63,16.4z"/>
	<path fill="#BE1E2D" d="M54,21h-4.6c-1.1,0-2.1,0.9-2.1,2.1V25c0,1.1,0.9,2.1,2.1,2.1H54c1.1,0,2.1-0.9,2.1-2.1v-1.9
		C56.1,21.9,55.2,21,54,21z M55,25c0,0.5-0.4,0.9-0.9,0.9h-4.6c-0.5,0-0.9-0.4-0.9-0.9v-1.9c0-0.5,0.4-0.9,0.9-0.9H54
		c0.5,0,0.9,0.4,0.9,0.9V25z"/>
	<path fill="#BE1E2D" d="M2.7,18h50.2c0.3,0,0.6-0.3,0.6-0.6V2.3c0-0.3-0.3-0.6-0.6-0.6H2.7C2.3,1.7,2.1,2,2.1,2.3v15.1
		C2.1,17.7,2.3,18,2.7,18z M3.2,14.8h11.4v2.1H3.2V14.8z M15.8,14.8h11.4v2.1H15.8V14.8z M28.3,14.8h11.4v2.1H28.3V14.8z M52.3,16.8
		H40.9v-2.1h11.4V16.8z M52.3,2.9v10.8H3.2V2.9H52.3z"/>
	<path fill="#BE1E2D" d="M4.1,19.4c-0.3,0-0.6,0.3-0.6,0.6v4H2.7c-0.3,0-0.6,0.3-0.6,0.6s0.3,0.6,0.6,0.6h1.5c0.3,0,0.6-0.3,0.6-0.6
		V20C4.7,19.7,4.5,19.4,4.1,19.4z"/>
	<path fill="#BE1E2D" d="M34.7,21.9c0.3,0,0.6-0.3,0.6-0.6c0-0.3-0.3-0.6-0.6-0.6h-1.2V20c0-0.3-0.3-0.6-0.6-0.6
		c-0.3,0-0.6,0.3-0.6,0.6v0.8h-1.9V20c0-0.3-0.3-0.6-0.6-0.6c-0.3,0-0.6,0.3-0.6,0.6v0.8h-1.2c-0.3,0-0.6,0.3-0.6,0.6
		c0,0.3,0.3,0.6,0.6,0.6h1.2v1h-1.2c-0.3,0-0.6,0.3-0.6,0.6c0,0.3,0.3,0.6,0.6,0.6h6.6c0.3,0,0.6-0.3,0.6-0.6c0-0.3-0.3-0.6-0.6-0.6
		h-1.2v-1H34.7z M32.3,22.9h-1.9v-1h1.9V22.9z"/>
</g>
</svg>
