<?xml version="1.0" encoding="utf-8"?>
<!-- Generator: Adobe Illustrator 18.1.1, SVG Export Plug-In . SVG Version: 6.00 Build 0)  -->
<svg version="1.1" id="Layer_1" xmlns="http://www.w3.org/2000/svg" xmlns:xlink="http://www.w3.org/1999/xlink" x="0px" y="0px"
	 viewBox="0 0 36.8 22.7" enable-background="new 0 0 36.8 22.7" xml:space="preserve">
<g>
	<path fill="#BE1E2D" d="M28.3,4.8C28.2,4.8,28.2,4.8,28.3,4.8C28.2,4.8,28.2,4.8,28.3,4.8c-0.2,0-0.3,0-0.5,0H25V3.1
		c0-0.3-0.3-0.6-0.6-0.6H11.8c-0.3,0-0.6,0.3-0.6,0.6s0.3,0.6,0.6,0.6h12.1v1.7c0,0,0,0,0,0s0,0,0,0v7.3h-0.9c0,0,0,0,0,0H6.3
		c-0.3,0-0.6,0.3-0.6,0.6s0.3,0.6,0.6,0.6h1c0,0,0,0,0,0h17.1c0.3,0,0.6-0.3,0.6-0.6V6h2.7v5.9c0,0.3,0.3,0.6,0.6,0.6H33v4.8h-0.9
		c-0.3-1.4-1.5-2.4-2.9-2.4s-2.6,1-2.9,2.4H13.5c-0.3-1.4-1.5-2.4-2.9-2.4c-1.4,0-2.6,1-2.9,2.4H6.3c-0.3,0-0.6,0.3-0.6,0.6
		s0.3,0.6,0.6,0.6h1.4c0.3,1.4,1.5,2.4,2.9,2.4c1.4,0,2.6-1,2.9-2.4h12.8c0.3,1.4,1.5,2.4,2.9,2.4s2.6-1,2.9-2.4h1.4
		c0.3,0,0.6-0.3,0.6-0.6v-6.6C34.1,7.8,31.5,5.1,28.3,4.8z M10.6,19.6c-1,0-1.8-0.8-1.8-1.8s0.8-1.8,1.8-1.8c1,0,1.8,0.8,1.8,1.8
		S11.6,19.6,10.6,19.6z M29.2,19.6c-1,0-1.8-0.8-1.8-1.8s0.8-1.8,1.8-1.8s1.8,0.8,1.8,1.8S30.2,19.6,29.2,19.6z M28.8,11.3V6.1
		c2.4,0.5,4.2,2.6,4.2,5.1v0.1H28.8z"/>
	<path fill="#BE1E2D" d="M6.3,6h7.4c0.3,0,0.6-0.3,0.6-0.6S14,4.8,13.7,4.8H6.3C6,4.8,5.7,5.1,5.7,5.4S6,6,6.3,6z"/>
	<path fill="#BE1E2D" d="M11,10.7c0-0.3-0.3-0.6-0.6-0.6H3c-0.3,0-0.6,0.3-0.6,0.6s0.3,0.6,0.6,0.6h7.4C10.8,11.2,11,11,11,10.7z"/>
	<path fill="#BE1E2D" d="M12.5,8.2c0-0.3-0.3-0.6-0.6-0.6H1.5C1.2,7.6,1,7.9,1,8.2s0.3,0.6,0.6,0.6h10.4C12.2,8.7,12.5,8.5,12.5,8.2
		z"/>
</g>
</svg>
