<?xml version="1.0" encoding="utf-8"?>
<!-- Generator: Adobe Illustrator 18.1.1, SVG Export Plug-In . SVG Version: 6.00 Build 0)  -->
<svg version="1.1" id="Layer_1" xmlns="http://www.w3.org/2000/svg" xmlns:xlink="http://www.w3.org/1999/xlink" x="0px" y="0px"
	 viewBox="0 0 42.5 34" enable-background="new 0 0 42.5 34" xml:space="preserve">
<g>
	<path fill="#BE1E2D" d="M22,3.7c-0.9,0-1.6,0.7-1.6,1.6s0.7,1.6,1.6,1.6s1.6-0.7,1.6-1.6S22.9,3.7,22,3.7z M22,5.9
		c-0.4,0-0.7-0.3-0.7-0.7s0.3-0.7,0.7-0.7c0.4,0,0.7,0.3,0.7,0.7S22.4,5.9,22,5.9z"/>
	<path fill="#BE1E2D" d="M18.9,11.7h6.2c0.3,0,0.5-0.2,0.5-0.5V2.1c0-0.3-0.2-0.5-0.5-0.5h-6.2c-0.3,0-0.5,0.2-0.5,0.5v9.2
		C18.5,11.5,18.7,11.7,18.9,11.7z M19.4,2.5h5.3v8.3h-5.3V2.5z"/>
	<path fill="#BE1E2D" d="M39,8.7H27c-0.3,0-0.5,0.2-0.5,0.5s0.2,0.5,0.5,0.5h12c0.5,0,1,0.4,1,1v21.3c0,0.5-0.4,1-1,1H3.6
		c-0.5,0-1-0.4-1-1V10.6c0-0.5,0.4-1,1-1H17c0.3,0,0.5-0.2,0.5-0.5S17.3,8.7,17,8.7H3.6c-1,0-1.9,0.8-1.9,1.9v21.3
		c0,1,0.8,1.9,1.9,1.9H39c1,0,1.9-0.8,1.9-1.9V10.6C40.9,9.5,40.1,8.7,39,8.7z"/>
	<path fill="#BE1E2D" d="M5.4,17.6c-0.3,0-0.5,0.2-0.5,0.5v12c0,0.3,0.2,0.5,0.5,0.5h12c0.3,0,0.5-0.2,0.5-0.5V18
		c0-0.3-0.2-0.5-0.5-0.5H5.4z M17,18.5v11c-0.2-2.2-1.7-4-3.8-4.7c0.7-0.6,1.2-1.4,1.2-2.4c0-1.7-1.4-3-3-3s-3,1.4-3,3
		c0,1,0.5,1.9,1.2,2.4c-2,0.7-3.5,2.5-3.8,4.7v-11H17z M11.4,24.5c-1.2,0-2.1-1-2.1-2.1s1-2.1,2.1-2.1s2.1,1,2.1,2.1
		S12.6,24.5,11.4,24.5z M16,29.6H6.8c0.2-2.4,2.2-4.2,4.6-4.2C13.8,25.4,15.8,27.2,16,29.6z"/>
	<path fill="#BE1E2D" d="M38.1,18c0-0.3-0.2-0.5-0.5-0.5H20.1c-0.3,0-0.5,0.2-0.5,0.5s0.2,0.5,0.5,0.5h17.5
		C37.9,18.5,38.1,18.3,38.1,18z"/>
	<path fill="#BE1E2D" d="M26.4,20.8c0-0.3-0.2-0.5-0.5-0.5h-5.9c-0.3,0-0.5,0.2-0.5,0.5s0.2,0.5,0.5,0.5H26
		C26.2,21.3,26.4,21.1,26.4,20.8z"/>
	<path fill="#BE1E2D" d="M25.8,23.5h-5.7c-0.3,0-0.5,0.2-0.5,0.5s0.2,0.5,0.5,0.5h5.7c0.3,0,0.5-0.2,0.5-0.5S26,23.5,25.8,23.5z"/>
	<path fill="#BE1E2D" d="M25.8,29.6h-5.7c-0.3,0-0.5,0.2-0.5,0.5s0.2,0.5,0.5,0.5h5.7c0.3,0,0.5-0.2,0.5-0.5S26,29.6,25.8,29.6z"/>
	<path fill="#BE1E2D" d="M25.8,26.5h-5.7c-0.3,0-0.5,0.2-0.5,0.5s0.2,0.5,0.5,0.5h5.7c0.3,0,0.5-0.2,0.5-0.5S26,26.5,25.8,26.5z"/>
	<path fill="#BE1E2D" d="M39,15.1c0-0.3-0.2-0.5-0.5-0.5H4.1c-0.3,0-0.5,0.2-0.5,0.5s0.2,0.5,0.5,0.5h34.5
		C38.8,15.6,39,15.4,39,15.1z"/>
	<polygon fill="#BE1E2D" points="35.5,29 36.2,29 36.2,29.7 36.9,29.7 36.9,29 36.9,27.6 35.5,27.6 	"/>
	<rect x="31.2" y="24.7" fill="#BE1E2D" width="0.7" height="0.7"/>
	<polygon fill="#BE1E2D" points="32,25.5 32,26.2 32.7,26.2 32.7,26.9 32.7,27.6 33.4,27.6 33.4,26.9 34.1,26.9 34.1,25.5 
		32.7,25.5 	"/>
	<polygon fill="#BE1E2D" points="30.5,24.7 29.8,24.7 29.8,25.5 29.1,25.5 29.1,26.2 29.8,26.2 30.5,26.2 31.2,26.2 31.2,25.5 
		30.5,25.5 	"/>
	<polygon fill="#BE1E2D" points="38.3,26.2 38.3,25.5 38.3,24.7 37.6,24.7 36.9,24.7 36.9,25.5 37.6,25.5 37.6,26.2 37.6,26.9 
		38.3,26.9 	"/>
	<rect x="36.9" y="26.9" fill="#BE1E2D" width="0.7" height="0.7"/>
	<polygon fill="#BE1E2D" points="36.2,26.2 36.2,25.5 36.2,24.7 35.5,24.7 34.8,24.7 34.1,24.7 34.1,25.5 34.8,25.5 34.8,26.2 
		35.5,26.2 35.5,26.9 36.2,26.9 36.9,26.9 36.9,26.2 	"/>
	<polygon fill="#BE1E2D" points="37.6,30.4 38.3,30.4 38.3,29.7 37.6,29.7 36.9,29.7 36.9,30.4 	"/>
	<polygon fill="#BE1E2D" points="37.6,29 38.3,29 38.3,28.3 38.3,27.6 37.6,27.6 37.6,28.3 	"/>
	<polygon fill="#BE1E2D" points="34.1,28.3 33.4,28.3 33.4,29 32.7,29 32.7,29.7 32.7,30.4 33.4,30.4 33.4,29.7 34.1,29.7 34.1,29 
		34.8,29 34.8,28.3 34.8,27.6 34.8,26.9 34.1,26.9 34.1,27.6 	"/>
	<polygon fill="#BE1E2D" points="34.8,29.7 34.8,30.4 35.5,30.4 36.2,30.4 36.2,29.7 35.5,29.7 	"/>
	<polygon fill="#BE1E2D" points="33.4,21.2 33.4,20.5 32.7,20.5 32.7,21.2 32.7,21.9 32.7,22.6 33.4,22.6 33.4,21.9 	"/>
	<rect x="33.4" y="22.6" fill="#BE1E2D" width="0.7" height="0.7"/>
	<polygon fill="#BE1E2D" points="33.4,24.7 34.1,24.7 34.1,24 33.4,24 33.4,23.3 32.7,23.3 32.7,24 32,24 32,24.7 32.7,24.7 	"/>
	<path fill="#BE1E2D" d="M28.4,20.5V24H32v-3.5H28.4z M31.4,23.5h-2.5V21h2.5V23.5z"/>
	<rect x="29.5" y="21.6" fill="#BE1E2D" width="1.4" height="1.4"/>
	<path fill="#BE1E2D" d="M38.3,20.5h-3.5V24h3.5V20.5z M37.8,23.5h-2.5V21h2.5V23.5z"/>
	<rect x="35.9" y="21.6" fill="#BE1E2D" width="1.4" height="1.4"/>
	<path fill="#BE1E2D" d="M32,26.9h-3.5v3.5H32V26.9z M31.4,29.9h-2.5v-2.5h2.5V29.9z"/>
	<rect x="29.5" y="27.9" fill="#BE1E2D" width="1.4" height="1.4"/>
</g>
</svg>
