<?xml version="1.0" encoding="utf-8"?>
<!-- Generator: Adobe Illustrator 18.1.1, SVG Export Plug-In . SVG Version: 6.00 Build 0)  -->
<svg version="1.1" id="Layer_1" xmlns="http://www.w3.org/2000/svg" xmlns:xlink="http://www.w3.org/1999/xlink" x="0px" y="0px"
	 viewBox="0 0 34 34" enable-background="new 0 0 34 34" xml:space="preserve">
<g>
	<path fill="#BE1E2D" d="M23.9,24.6c0,0-0.1,0.1-0.1,0.1c3.3-2.3,5.5-6.2,5.5-10.5c0-7.1-5.7-12.8-12.8-12.8
		C9.5,1.4,3.7,7.1,3.7,14.1c0,4.3,2.2,8.2,5.5,10.5c0,0-0.1-0.1-0.1-0.1L7,29c-0.1,0.2-0.1,0.4,0.1,0.6c0.1,0.2,0.4,0.2,0.6,0.2
		l3.7-1.1l1.5,3.6c0.1,0.2,0.3,0.3,0.5,0.3c0,0,0,0,0,0c0.2,0,0.4-0.1,0.5-0.3l2.5-5.3c-0.3,0-0.5,0-0.8,0c0.3,0,0.6,0,1,0
		c0.3,0,0.7,0,1,0c-0.3,0-0.5,0-0.8,0l2.5,5.3c0.1,0.2,0.3,0.3,0.5,0.3c0,0,0,0,0,0c0.2,0,0.4-0.1,0.5-0.3l1.5-3.6l3.7,1.1
		c0.2,0.1,0.4,0,0.6-0.2c0.1-0.2,0.2-0.4,0.1-0.6L23.9,24.6z M15.2,26.9l-1.8,3.8l-1.2-2.9c-0.1-0.2-0.3-0.3-0.5-0.3
		c-0.1,0-0.1,0-0.2,0l-3,0.9l1.5-3.2c-0.1-0.1-0.2-0.1-0.3-0.2C11.3,26,13.2,26.7,15.2,26.9C15.2,26.9,15.2,26.9,15.2,26.9z
		 M4.8,14.1c0-6.5,5.3-11.7,11.7-11.7c6.5,0,11.7,5.3,11.7,11.7c0,6.5-5.3,11.7-11.7,11.7C10.1,25.9,4.8,20.6,4.8,14.1z M21.6,27.5
		c-0.3-0.1-0.5,0.1-0.7,0.3l-1.2,2.9l-1.8-3.8c0,0,0,0,0,0c2-0.2,3.9-0.9,5.5-1.9c-0.1,0.1-0.2,0.2-0.3,0.2l1.5,3.2L21.6,27.5z"/>
	<path fill="#BE1E2D" d="M14.7,5.4c0,0,0.1,0,0.1,0l0,0c0.3-0.1,0.5-0.3,0.4-0.6c-0.1-0.3-0.4-0.5-0.6-0.4l0,0
		c-0.3,0.1-0.5,0.3-0.4,0.6C14.2,5.2,14.4,5.4,14.7,5.4z"/>
	<path fill="#BE1E2D" d="M11.3,6.8c0.1,0,0.2,0,0.3-0.1l0,0c0.2-0.2,0.3-0.5,0.1-0.8c-0.2-0.2-0.5-0.3-0.7-0.1l0,0
		c-0.2,0.2-0.3,0.5-0.1,0.7C10.9,6.7,11.1,6.8,11.3,6.8z"/>
	<path fill="#BE1E2D" d="M12.9,5.9c0.1,0,0.1,0,0.2,0c0,0,0,0,0,0c0.3-0.1,0.4-0.4,0.3-0.7c-0.1-0.3-0.4-0.4-0.7-0.3l0,0
		c-0.3,0.1-0.4,0.4-0.3,0.7C12.5,5.8,12.7,5.9,12.9,5.9z"/>
	<path fill="#BE1E2D" d="M9.8,8C10,8,10.1,8,10.2,7.9l0,0c0.2-0.2,0.2-0.6,0-0.8c-0.2-0.2-0.6-0.2-0.8,0l0,0c-0.2,0.2-0.2,0.6,0,0.8
		C9.5,8,9.7,8,9.8,8z"/>
	<path fill="#BE1E2D" d="M7.6,11c0.1,0,0.1,0,0.2,0c0.2,0,0.4-0.1,0.5-0.3l0,0c0.1-0.3,0-0.6-0.3-0.7c-0.3-0.1-0.6,0-0.7,0.3l0,0
		C7.2,10.6,7.3,10.9,7.6,11z"/>
	<path fill="#BE1E2D" d="M7.1,12.8C7.2,12.8,7.2,12.8,7.1,12.8c0.4,0,0.6-0.2,0.6-0.4c0.1-0.3-0.1-0.6-0.4-0.6
		c-0.3-0.1-0.6,0.1-0.6,0.4l0,0C6.7,12.5,6.8,12.8,7.1,12.8z"/>
	<path fill="#BE1E2D" d="M8.4,9.3c0.1,0.1,0.2,0.1,0.3,0.1c0.2,0,0.4-0.1,0.5-0.3C9.3,8.9,9.2,8.6,9,8.4C8.7,8.3,8.4,8.3,8.2,8.6
		l0,0C8,8.9,8.1,9.2,8.4,9.3z"/>
	<path fill="#BE1E2D" d="M16.5,16.4c1.2,0,2.2-1,2.2-2.2c0-1.2-1-2.2-2.2-2.2c-0.5,0-0.9,0.1-1.3,0.4l-3.5-3.1C11.5,9,11.2,9,11,9.2
		c-0.2,0.2-0.2,0.6,0,0.8l3.6,3.1c-0.2,0.3-0.3,0.6-0.3,1C14.3,15.4,15.3,16.4,16.5,16.4z M16.5,13c0.6,0,1.1,0.5,1.1,1.1
		c0,0.6-0.5,1.1-1.1,1.1c-0.6,0-1.1-0.5-1.1-1.1c0-0.1,0-0.2,0-0.2l0.7,0.6c0.1,0.1,0.2,0.1,0.4,0.1c0.1,0,0.3-0.1,0.4-0.2
		c0.2-0.2,0.2-0.6-0.1-0.8l-0.7-0.6C16.3,13.1,16.4,13,16.5,13z"/>
	<path fill="#BE1E2D" d="M16.5,4.1L16.5,4.1c-0.3,0-0.5,0.2-0.5,0.5c0,0,0,0,0,0v1.8c0,0.3,0.2,0.5,0.5,0.5c0.3,0,0.5-0.2,0.5-0.5
		V5.2c4.5,0.3,8.1,3.9,8.4,8.4h-1.3c-0.3,0-0.5,0.2-0.5,0.5c0,0.3,0.2,0.5,0.5,0.5h1.3c-0.3,4.5-3.9,8.1-8.4,8.4v-1.3
		c0-0.3-0.2-0.5-0.5-0.5c-0.3,0-0.5,0.2-0.5,0.5v1.3c-4.5-0.3-8.1-3.9-8.4-8.4h1.3c0.3,0,0.5-0.2,0.5-0.5c0-0.3-0.2-0.5-0.5-0.5H7.2
		c0,0-0.1,0-0.1,0c-0.3,0-0.5,0.2-0.5,0.5v0c0,5.5,4.5,10,10,10c5.5,0,10-4.5,10-10C26.5,8.6,22,4.1,16.5,4.1z"/>
</g>
</svg>
