<?xml version="1.0" encoding="utf-8"?>
<!-- Generator: Adobe Illustrator 18.1.1, SVG Export Plug-In . SVG Version: 6.00 Build 0)  -->
<svg version="1.1" id="Layer_1" xmlns="http://www.w3.org/2000/svg" xmlns:xlink="http://www.w3.org/1999/xlink" x="0px" y="0px"
	 viewBox="0 0 45.3 36.8" enable-background="new 0 0 45.3 36.8" xml:space="preserve">
<g>
	<path fill="#BE1E2D" d="M35.1,30.8c-0.2,0-0.3,0.1-0.5,0.2c0,0-0.1,0-0.1,0c-0.1-0.1-0.3-0.2-0.5-0.2c-0.5,0-0.9,0.4-0.9,0.9
		c0,0.5,0.4,0.9,0.9,0.9c0.2,0,0.3-0.1,0.5-0.2c0,0,0,0,0.1,0s0,0,0.1,0c0.1,0.1,0.3,0.2,0.5,0.2c0.5,0,0.9-0.4,0.9-0.9
		C36,31.2,35.6,30.8,35.1,30.8z"/>
	<path fill="#BE1E2D" d="M5.8,27.9h4.7c0.3,0,0.5-0.2,0.5-0.5c0-0.3-0.2-0.5-0.5-0.5H5.8c-0.3,0-0.5,0.2-0.5,0.5
		C5.3,27.6,5.5,27.9,5.8,27.9z"/>
	<path fill="#BE1E2D" d="M13.7,27.3c0,0.3,0.2,0.5,0.5,0.5h4.7c0.3,0,0.5-0.2,0.5-0.5c0-0.3-0.2-0.5-0.5-0.5h-4.7
		C13.9,26.8,13.7,27.1,13.7,27.3z"/>
	<path fill="#BE1E2D" d="M27.3,26.8h-4.7c-0.3,0-0.5,0.2-0.5,0.5c0,0.3,0.2,0.5,0.5,0.5h4.7c0.3,0,0.5-0.2,0.5-0.5
		C27.8,27.1,27.6,26.8,27.3,26.8z"/>
	<path fill="#BE1E2D" d="M31,27.9h4.7c0.3,0,0.5-0.2,0.5-0.5c0-0.3-0.2-0.5-0.5-0.5H31c-0.3,0-0.5,0.2-0.5,0.5
		C30.5,27.6,30.7,27.9,31,27.9z"/>
	<path fill="#BE1E2D" d="M23.9,31.1H6c-0.3,0-0.5,0.2-0.5,0.5c0,0.3,0.2,0.5,0.5,0.5h17.9c0.3,0,0.5-0.2,0.5-0.5
		C24.4,31.4,24.2,31.1,23.9,31.1z"/>
	<path fill="#BE1E2D" d="M5.8,23.4h11c0.3,0,0.5-0.2,0.5-0.5v-4.4c0-0.3-0.2-0.5-0.5-0.5h-11c-0.3,0-0.5,0.2-0.5,0.5v4.4
		C5.3,23.1,5.5,23.4,5.8,23.4z M6.4,19.1c0-0.1,0-0.1,0.1-0.1h9.8c0.1,0,0.1,0,0.1,0.1v3.1c0,0.1,0,0.1-0.1,0.1H6.5
		c-0.1,0-0.1,0-0.1-0.1V19.1z"/>
	<path fill="#BE1E2D" d="M42.7,2.5C41.5,4,40,4.8,38.4,4.8c-1.6,0-3.1-0.8-4.3-2.3c-0.1-0.1-0.3-0.2-0.4-0.2c-0.2,0-0.3,0.1-0.4,0.2
		c-1.2,1.5-2.7,2.3-4.3,2.3c-1.6,0-3.1-0.8-4.3-2.3c-0.1-0.2-0.4-0.2-0.6-0.2c-0.2,0.1-0.4,0.3-0.4,0.5v9.9c0,0.1,0,0.3,0,0.3
		c0,0,0,0,0,0c0,0,0,0.1,0,0.1c0,0,0,0-0.1,0c0,0,0,0,0,0H4.3c-1.2,0-2.2,1-2.2,2.2v18.5c0,1.2,1,2.2,2.2,2.2h33.5
		c1.2,0,2.2-1,2.2-2.2V21.6c0,0,0-0.1,0-0.1c2.3-2.4,3.5-5.5,3.5-8.9V2.8c0-0.2-0.1-0.4-0.4-0.5C43.1,2.2,42.8,2.3,42.7,2.5z
		 M33.7,8.4c3,0,5.5,2.5,5.5,5.5s-2.5,5.5-5.5,5.5s-5.5-2.5-5.5-5.5S30.6,8.4,33.7,8.4z M32.9,20.5C32.9,20.5,32.9,20.5,32.9,20.5
		l0,3.4c0,0,0,0.1,0,0.1c0,0,0,0-0.1,0c0,0,0,0,0,0c-3.1-1.4-7-4.1-7.9-9.3c0,0,0-0.1,0-0.1c0,0,0,0,0.1,0h2c0,0,0,0,0,0
		c0,0,0.1,0,0.1,0.1c0,0,0,0,0,0c0,0,0,0,0,0c0.4,3,2.7,5.3,5.7,5.6C32.9,20.4,32.9,20.4,32.9,20.5z M24.7,4.4
		C24.7,4.4,24.8,4.3,24.7,4.4c0.1-0.1,0.1-0.1,0.2-0.1c1.2,1,2.6,1.6,4,1.6c1.3,0,2.7-0.5,3.8-1.4c0,0,0.1,0,0.1,0
		c0,0,0.1,0.1,0.1,0.1v2.7c0,0.1,0,0.1-0.1,0.1c-3,0.4-5.3,2.7-5.7,5.7c0,0,0,0,0,0h0c0,0,0,0,0,0c0,0,0,0,0,0c0,0-0.1,0.1-0.1,0.1
		c0,0,0,0,0,0h-2.2c-0.1,0-0.1,0-0.1-0.1c0-0.1,0-0.1,0-0.2c0-0.1,0-0.1,0-0.2V4.4z M38.6,33.8c0,0.4-0.3,0.7-0.7,0.7H4.3
		c-0.4,0-0.7-0.3-0.7-0.7V15.4c0-0.4,0.3-0.7,0.7-0.7h19.4c0.1,0,0.1,0,0.1,0c0,0,0,0,0,0.1c0,0,0,0,0,0c0,0,0,0,0,0
		c0.7,5,4.1,8.7,9.6,10.7c0.1,0,0.3,0,0.4,0c1.7-0.6,3.2-1.4,4.5-2.4l0,0c0.1,0,0.1,0,0.2,0c0,0,0,0,0,0V33.8z M34.5,24
		C34.5,24,34.5,24,34.5,24c-0.1,0-0.1,0-0.1,0c0,0,0-0.1,0-0.1v-3.4c0,0,0,0,0,0c0-0.1,0-0.1,0.1-0.1c3-0.4,5.3-2.7,5.7-5.7
		c0-0.1,0-0.1,0.1-0.1c0,0,0,0,0,0h2c0,0,0.1,0,0.1,0c0,0,0,0.1,0,0.1C41.6,20,37.7,22.7,34.5,24z M42.6,12.7c0,0.1,0,0.2,0,0.2
		l0,0.1c0,0.1,0,0.1-0.1,0.1h-2.2c0,0,0,0,0,0c-0.1,0-0.1,0-0.1-0.1c-0.4-3-2.7-5.3-5.7-5.7c-0.1,0-0.1-0.1-0.1-0.1V4.6
		c0,0,0-0.1,0.1-0.1c0,0,0.1,0,0.1,0c1.1,0.9,2.5,1.4,3.8,1.4c1.4,0,2.8-0.5,4-1.6c0,0,0.1,0,0.1,0c0,0,0.1,0.1,0.1,0.1V12.7z"/>
	<path fill="#BE1E2D" d="M31.4,17.4c0.1,0.1,0.3,0.2,0.4,0.2h3.7c0.2,0,0.3-0.1,0.4-0.2c0.1-0.1,0.1-0.3,0.1-0.4l-0.8-3.7
		c0,0,0-0.1,0-0.1c0.4-0.4,0.6-0.9,0.6-1.5c0-1.2-1-2.1-2.3-2.1s-2.3,1-2.3,2.1c0,0.5,0.2,1.1,0.6,1.5c0,0,0,0.1,0,0.1l-0.8,3.7
		C31.2,17.1,31.3,17.3,31.4,17.4z M33.7,10.6c0.7,0,1.2,0.5,1.2,1.1c0,0.3-0.2,0.6-0.5,0.9c-0.2,0.1-0.3,0.3-0.2,0.6l0.7,3.3
		c0,0,0,0.1,0,0.1c0,0,0,0-0.1,0h-2.2c0,0-0.1,0-0.1,0c0,0,0-0.1,0-0.1l0.7-3.3c0-0.2,0-0.4-0.2-0.6c-0.3-0.2-0.5-0.5-0.5-0.9
		C32.4,11.1,33,10.6,33.7,10.6z"/>
</g>
</svg>
