<?xml version="1.0" encoding="utf-8"?>
<!-- Generator: Adobe Illustrator 18.1.1, SVG Export Plug-In . SVG Version: 6.00 Build 0)  -->
<svg version="1.1" id="Layer_1" xmlns="http://www.w3.org/2000/svg" xmlns:xlink="http://www.w3.org/1999/xlink" x="0px" y="0px"
	 viewBox="0 0 113.4 42.5" enable-background="new 0 0 113.4 42.5" xml:space="preserve">
<g>
	<path fill="#BE1E2D" d="M106.8,18.3C106.8,18.3,106.8,18.2,106.8,18.3c0-0.1-0.1-0.2-0.1-0.2l-3.9-9.7c-0.2-0.4-0.5-0.6-1-0.6H87.6
		c-1.8,0-3.2,1.4-3.2,3.2l0,12.3c0,0.2,0,0.3,0.1,0.5l3,5.8c0.2,0.3,0.5,0.6,0.9,0.6h0.6c-0.5,1-0.8,2.1-0.8,3.3
		c0,3.8,3.1,6.9,6.9,6.9c3,0,5.5-1.9,6.5-4.5h2.4c0.3,0,0.6-0.2,0.8-0.4l1.9-2.5c0.1-0.2,0.2-0.4,0.2-0.6V18.5
		C106.8,18.5,106.8,18.3,106.8,18.3z M104.2,17.4h-9.8V9.8h6.7L104.2,17.4z M86.5,11c0-0.6,0.5-1.1,1.1-1.1h4.7v7.6h-5.8V11z
		 M86.5,23v-3.5h5.8v7.6c-0.5,0.2-1,0.5-1.5,0.9h-1.7L86.5,23z M95.1,38.1c-2.6,0-4.8-2.1-4.8-4.8c0-2.6,2.1-4.8,4.8-4.8
		c2.6,0,4.8,2.1,4.8,4.8C99.9,36,97.7,38.1,95.1,38.1z M104.7,31.8l-1.3,1.8h-1.4c0-0.1,0-0.2,0-0.2c0-1.2-0.3-2.3-0.8-3.3h3.6V31.8
		z M104.7,28h-5.4c-1.2-0.9-2.7-1.5-4.3-1.5c-0.2,0-0.5,0-0.7,0v-7h10.3V28z"/>
	<circle fill="#BE1E2D" cx="95.1" cy="33.4" r="2.1"/>
	<path fill="#BE1E2D" d="M65.2,26.5c-3.8,0-6.9,3.1-6.9,6.9c0,3.8,3.1,6.9,6.9,6.9c3.8,0,6.9-3.1,6.9-6.9C72,29.6,69,26.5,65.2,26.5
		z M65.2,38.1c-2.6,0-4.8-2.1-4.8-4.8c0-2.6,2.1-4.8,4.8-4.8c2.6,0,4.8,2.1,4.8,4.8C70,36,67.8,38.1,65.2,38.1z"/>
	<circle fill="#BE1E2D" cx="65.2" cy="33.4" r="2.1"/>
	<path fill="#BE1E2D" d="M21.2,26.5c-3.8,0-6.9,3.1-6.9,6.9s3.1,6.9,6.9,6.9c3.8,0,6.9-3.1,6.9-6.9S25,26.5,21.2,26.5z M21.2,38.1
		c-2.6,0-4.8-2.1-4.8-4.8s2.1-4.8,4.8-4.8c2.6,0,4.8,2.1,4.8,4.8S23.8,38.1,21.2,38.1z"/>
	<circle fill="#BE1E2D" cx="21.2" cy="33.4" r="2.1"/>
	<path fill="#BE1E2D" d="M36.5,26.5c-3.8,0-6.9,3.1-6.9,6.9s3.1,6.9,6.9,6.9c3.8,0,6.9-3.1,6.9-6.9S40.3,26.5,36.5,26.5z M36.5,38.1
		c-2.6,0-4.8-2.1-4.8-4.8s2.1-4.8,4.8-4.8c2.6,0,4.8,2.1,4.8,4.8S39.1,38.1,36.5,38.1z"/>
	<circle fill="#BE1E2D" cx="36.5" cy="33.4" r="2.1"/>
	<path fill="#BE1E2D" d="M97.1,23.3h2.2c0.6,0,1-0.5,1-1c0-0.6-0.5-1-1-1h-2.2c-0.6,0-1,0.5-1,1C96.1,22.9,96.5,23.3,97.1,23.3z"/>
	<path fill="#BE1E2D" d="M83.5,28.8h-6.6c-1.8,0-3.2,1.4-3.2,3.2v2.7c0,1.8,1.4,3.2,3.2,3.2h6.6c1.8,0,3.2-1.4,3.2-3.2V32
		C86.7,30.2,85.2,28.8,83.5,28.8z M84.6,34.7c0,0.6-0.5,1.1-1.1,1.1h-6.6c-0.6,0-1.1-0.5-1.1-1.1V32c0-0.6,0.5-1.1,1.1-1.1h6.6
		c0.6,0,1.1,0.5,1.1,1.1V34.7z"/>
	<path fill="#BE1E2D" d="M80.8,24.9c0.6,0,1-0.5,1-1V2.1c0-0.6-0.5-1-1-1H8.6c-0.6,0-1,0.5-1,1v21.7c0,0.6,0.5,1,1,1H80.8z
		 M79.8,22.8h-16v-2.5h16V22.8z M79.8,3.2v15H9.6v-15H79.8z M9.6,20.3h16v2.5h-16V20.3z M27.7,20.3h16v2.5h-16V20.3z M45.8,20.3h16
		v2.5h-16V20.3z"/>
	<path fill="#BE1E2D" d="M11.7,26.5c-0.6,0-1,0.5-1,1v5.5H9.5c-0.6,0-1,0.5-1,1c0,0.6,0.5,1,1,1h2.1c0.6,0,1-0.5,1-1v-6.6
		C12.7,27,12.2,26.5,11.7,26.5z"/>
	<path fill="#BE1E2D" d="M55.6,31c0.6,0,1-0.5,1-1c0-0.6-0.5-1-1-1H54v-1.4c0-0.6-0.5-1-1-1c-0.6,0-1,0.5-1,1V29h-2.2v-1.4
		c0-0.6-0.5-1-1-1c-0.6,0-1,0.5-1,1V29h-1.6c-0.6,0-1,0.5-1,1c0,0.6,0.5,1,1,1h1.6v2.1h-1.6c-0.6,0-1,0.5-1,1c0,0.6,0.5,1,1,1h9.5
		c0.6,0,1-0.5,1-1c0-0.6-0.5-1-1-1H54V31H55.6z M52,31v2.1h-2.2V31H52z"/>
</g>
</svg>
