<?xml version="1.0" encoding="utf-8"?>
<!-- Generator: Adobe Illustrator 18.1.1, SVG Export Plug-In . SVG Version: 6.00 Build 0)  -->
<svg version="1.1" id="Layer_1" xmlns="http://www.w3.org/2000/svg" xmlns:xlink="http://www.w3.org/1999/xlink" x="0px" y="0px"
	 viewBox="0 0 113.4 42.5" enable-background="new 0 0 113.4 42.5" xml:space="preserve">
<g>
	<path fill="#BE1E2D" d="M106.8,14.9C106.8,14.9,106.8,14.9,106.8,14.9c0-0.1-0.1-0.2-0.1-0.2l-3.9-9.7c-0.2-0.4-0.5-0.6-1-0.6H87.6
		c-1.8,0-3.2,1.4-3.2,3.2l0,12.3c0,0.2,0,0.3,0.1,0.5l3,5.8c0.2,0.3,0.5,0.6,0.9,0.6h0.6c-0.5,1-0.8,2.1-0.8,3.3
		c0,3.8,3.1,6.9,6.9,6.9c3,0,5.5-1.9,6.5-4.5h2.4c0.3,0,0.6-0.2,0.8-0.4l1.9-2.5c0.1-0.2,0.2-0.4,0.2-0.6V15.1
		C106.8,15.1,106.8,15,106.8,14.9z M94.4,6.5h6.7l3.1,7.6h-9.8V6.5z M86.5,7.6c0-0.6,0.5-1.1,1.1-1.1h4.7v7.6h-5.8V7.6z M89.1,24.7
		l-2.6-5v-3.5h5.8v7.6c-0.5,0.2-1,0.5-1.5,0.9H89.1z M95.1,34.8c-2.6,0-4.8-2.1-4.8-4.8c0-2.6,2.1-4.8,4.8-4.8
		c2.6,0,4.8,2.1,4.8,4.8C99.9,32.6,97.7,34.8,95.1,34.8z M104.7,28.4l-1.3,1.8h-1.4c0-0.1,0-0.2,0-0.2c0-1.2-0.3-2.3-0.8-3.3h3.6
		V28.4z M104.7,24.7h-5.4c-1.2-0.9-2.7-1.5-4.3-1.5c-0.2,0-0.5,0-0.7,0v-7h10.3V24.7z"/>
	<circle fill="#BE1E2D" cx="95.1" cy="30" r="2.1"/>
	<path fill="#BE1E2D" d="M65.2,23.2c-3.8,0-6.9,3.1-6.9,6.9c0,3.8,3.1,6.9,6.9,6.9c3.8,0,6.9-3.1,6.9-6.9C72,26.2,69,23.2,65.2,23.2
		z M65.2,34.8c-2.6,0-4.8-2.1-4.8-4.8c0-2.6,2.1-4.8,4.8-4.8c2.6,0,4.8,2.1,4.8,4.8C70,32.6,67.8,34.8,65.2,34.8z"/>
	<circle fill="#BE1E2D" cx="65.2" cy="30" r="2.1"/>
	<path fill="#BE1E2D" d="M21.2,23.2c-3.8,0-6.9,3.1-6.9,6.9s3.1,6.9,6.9,6.9c3.8,0,6.9-3.1,6.9-6.9S25,23.2,21.2,23.2z M21.2,34.8
		c-2.6,0-4.8-2.1-4.8-4.8c0-2.6,2.1-4.8,4.8-4.8c2.6,0,4.8,2.1,4.8,4.8C26,32.6,23.8,34.8,21.2,34.8z"/>
	<circle fill="#BE1E2D" cx="21.2" cy="30" r="2.1"/>
	<path fill="#BE1E2D" d="M36.5,23.2c-3.8,0-6.9,3.1-6.9,6.9s3.1,6.9,6.9,6.9c3.8,0,6.9-3.1,6.9-6.9S40.3,23.2,36.5,23.2z M36.5,34.8
		c-2.6,0-4.8-2.1-4.8-4.8c0-2.6,2.1-4.8,4.8-4.8c2.6,0,4.8,2.1,4.8,4.8C41.3,32.6,39.1,34.8,36.5,34.8z"/>
	<circle fill="#BE1E2D" cx="36.5" cy="30" r="2.1"/>
	<path fill="#BE1E2D" d="M97.1,20h2.2c0.6,0,1-0.5,1-1c0-0.6-0.5-1-1-1h-2.2c-0.6,0-1,0.5-1,1C96.1,19.5,96.5,20,97.1,20z"/>
	<path fill="#BE1E2D" d="M83.5,25.4h-6.6c-1.8,0-3.2,1.4-3.2,3.2v2.7c0,1.8,1.4,3.2,3.2,3.2h6.6c1.8,0,3.2-1.4,3.2-3.2v-2.7
		C86.7,26.9,85.2,25.4,83.5,25.4z M84.6,31.4c0,0.6-0.5,1.1-1.1,1.1h-6.6c-0.6,0-1.1-0.5-1.1-1.1v-2.7c0-0.6,0.5-1.1,1.1-1.1h6.6
		c0.6,0,1.1,0.5,1.1,1.1V31.4z"/>
	<path fill="#BE1E2D" d="M80.8,21.5c0.6,0,1-0.5,1-1V10h-2.1v4.9H9.6V10H7.6v10.5c0,0.6,0.5,1,1,1H80.8z M63.8,16.9h16v2.5h-16V16.9
		z M45.8,16.9h16v2.5h-16V16.9z M27.7,16.9h16v2.5h-16V16.9z M9.6,16.9h16v2.5h-16V16.9z"/>
	<path fill="#BE1E2D" d="M11.7,23.2c-0.6,0-1,0.5-1,1v5.5H9.5c-0.6,0-1,0.5-1,1c0,0.6,0.5,1,1,1h2.1c0.6,0,1-0.5,1-1v-6.6
		C12.7,23.6,12.2,23.2,11.7,23.2z"/>
	<path fill="#BE1E2D" d="M55.6,27.7c0.6,0,1-0.5,1-1s-0.5-1-1-1H54v-1.4c0-0.6-0.5-1-1-1c-0.6,0-1,0.5-1,1v1.4h-2.2v-1.4
		c0-0.6-0.5-1-1-1c-0.6,0-1,0.5-1,1v1.4h-1.6c-0.6,0-1,0.5-1,1s0.5,1,1,1h1.6v2.1h-1.6c-0.6,0-1,0.5-1,1s0.5,1,1,1h9.5
		c0.6,0,1-0.5,1-1s-0.5-1-1-1H54v-2.1H55.6z M52,29.8h-2.2v-2.1H52V29.8z"/>
</g>
</svg>
