<?xml version="1.0" encoding="utf-8"?>
<!-- Generator: Adobe Illustrator 18.1.1, SVG Export Plug-In . SVG Version: 6.00 Build 0)  -->
<svg version="1.1" id="Layer_1" xmlns="http://www.w3.org/2000/svg" xmlns:xlink="http://www.w3.org/1999/xlink" x="0px" y="0px"
	 viewBox="0 0 127.6 42.5" enable-background="new 0 0 127.6 42.5" xml:space="preserve">
<g>
	<path fill="#BE1E2D" d="M125.2,29.5l-2.1-0.9v-7.1c0-0.5-0.3-0.9-0.8-1l-13-2.7l-3.7-9.2c-0.2-0.4-0.5-0.6-1-0.6H101l-6.4-6.4
		c-0.2-0.2-0.5-0.3-0.7-0.3h-3.4c-0.6,0-1,0.5-1,1v5.8c-1.3,0.4-2.2,1.6-2.2,3.1v18.1c0,0.6,0.5,1,1,1h6.9v4.6c0,0.6,0.5,1,1,1h10.6
		c1,2.6,3.5,4.5,6.5,4.5c3,0,5.5-1.9,6.5-4.5h5.2c0.6,0,1-0.5,1-1v-4.4C125.8,30,125.6,29.6,125.2,29.5z M97.1,19.7h10.3v8.5H97.1
		V19.7z M107,17.6h-9.8V10h6.7L107,17.6z M91.5,3.4h1.9l4.6,4.6h-6.6V3.4z M89.3,11.2c0-0.6,0.5-1.1,1.1-1.1h4.7v7.6h-5.8V11.2z
		 M89.3,19.7h5.8v8.5h-5.8V19.7z M97.1,33.8v-3.5h9.9c-0.5,1-0.8,2.1-0.8,3.3c0,0.1,0,0.2,0,0.2H97.1z M113.1,38.3
		c-2.6,0-4.8-2.1-4.8-4.8s2.1-4.8,4.8-4.8c2.6,0,4.8,2.1,4.8,4.8S115.7,38.3,113.1,38.3z M123.8,33.8H120c0-0.1,0-0.2,0-0.2
		c0-3.8-3.1-6.9-6.9-6.9c-1.3,0-2.5,0.4-3.6,1v-7.8l11.5,2.4v6.9c0,0.4,0.2,0.8,0.6,1l2.1,0.9V33.8z"/>
	<circle fill="#BE1E2D" cx="113.1" cy="33.5" r="2.1"/>
	<path fill="#BE1E2D" d="M14.8,26.7C11,26.7,8,29.8,8,33.5c0,3.8,3.1,6.9,6.9,6.9c3.8,0,6.9-3.1,6.9-6.9
		C21.7,29.8,18.6,26.7,14.8,26.7z M14.8,38.3c-2.6,0-4.8-2.1-4.8-4.8c0-2.6,2.1-4.8,4.8-4.8c2.6,0,4.8,2.1,4.8,4.8
		C19.6,36.2,17.5,38.3,14.8,38.3z"/>
	<circle fill="#BE1E2D" cx="14.8" cy="33.5" r="2.1"/>
	<path fill="#BE1E2D" d="M30.1,26.7c-3.8,0-6.9,3.1-6.9,6.9c0,3.8,3.1,6.9,6.9,6.9s6.9-3.1,6.9-6.9C37,29.8,33.9,26.7,30.1,26.7z
		 M30.1,38.3c-2.6,0-4.8-2.1-4.8-4.8c0-2.6,2.1-4.8,4.8-4.8s4.8,2.1,4.8,4.8C34.9,36.2,32.7,38.3,30.1,38.3z"/>
	<circle fill="#BE1E2D" cx="30.1" cy="33.5" r="2.1"/>
	<path fill="#BE1E2D" d="M58.6,26.7c-3.8,0-6.9,3.1-6.9,6.9s3.1,6.9,6.9,6.9c3.8,0,6.9-3.1,6.9-6.9S62.4,26.7,58.6,26.7z M58.6,38.3
		c-2.6,0-4.8-2.1-4.8-4.8s2.1-4.8,4.8-4.8c2.6,0,4.8,2.1,4.8,4.8S61.3,38.3,58.6,38.3z"/>
	<circle fill="#BE1E2D" cx="58.6" cy="33.5" r="2.1"/>
	<path fill="#BE1E2D" d="M73.9,26.7c-3.8,0-6.9,3.1-6.9,6.9s3.1,6.9,6.9,6.9c3.8,0,6.9-3.1,6.9-6.9S77.7,26.7,73.9,26.7z M73.9,38.3
		c-2.6,0-4.8-2.1-4.8-4.8s2.1-4.8,4.8-4.8c2.6,0,4.8,2.1,4.8,4.8S76.5,38.3,73.9,38.3z"/>
	<circle fill="#BE1E2D" cx="73.9" cy="33.5" r="2.1"/>
	<path fill="#BE1E2D" d="M102,21.4h-2.2c-0.6,0-1,0.5-1,1c0,0.6,0.5,1,1,1h2.2c0.6,0,1-0.5,1-1C103.1,21.9,102.6,21.4,102,21.4z"/>
	<path fill="#BE1E2D" d="M6.1,27l-1.6,1.8c-0.2,0.2-0.3,0.4-0.3,0.7v2.9l-0.5,0.9H3.2c-0.6,0-1,0.5-1,1c0,0.6,0.5,1,1,1h2.1
		c0.6,0,1-0.5,1-1v-4.4l1.3-1.5C8.1,28,8,27.3,7.6,27C7.2,26.6,6.5,26.6,6.1,27z"/>
	<path fill="#BE1E2D" d="M90.3,31.9h-4.8c-1.7,0-3.1,1.4-3.1,3.1c0,1.7,1.4,3.1,3.1,3.1h4.8c1.7,0,3.1-1.4,3.1-3.1
		C93.4,33.3,92,31.9,90.3,31.9z M90.3,36h-4.8c-0.6,0-1-0.5-1-1c0-0.6,0.5-1,1-1h4.8c0.6,0,1,0.5,1,1C91.3,35.6,90.9,36,90.3,36z"/>
	<path fill="#BE1E2D" d="M49.2,26.7h-9.5c-0.6,0-1,0.5-1,1v5.1c0,0.6,0.5,1,1,1h9.5c0.6,0,1-0.5,1-1v-5.1
		C50.2,27.2,49.7,26.7,49.2,26.7z M48.1,31.8h-7.4v-3h7.4V31.8z"/>
	<path fill="#BE1E2D" d="M74.4,4.6h-3.9V2.1c0-0.6-0.5-1-1-1h-8.1c-0.6,0-1,0.5-1,1v2.5H48V2.1c0-0.6-0.5-1-1-1h-8.1
		c-0.6,0-1,0.5-1,1v2.5H25.5V2.1c0-0.6-0.5-1-1-1h-8.1c-0.6,0-1,0.5-1,1v2.5h-3.9C5.8,4.6,1.2,9.2,1.2,14.8c0,2,0.6,3.9,1.6,5.5V24
		c0,0.6,0.5,1,1,1l70.5,0c5.6,0,10.2-4.6,10.2-10.2S80,4.6,74.4,4.6z M62.4,3.2h6v2.1L67,6.5h-3.2l-1.4-1.3V3.2z M39.9,3.2h6v2.1
		l-1.4,1.3h-3.2l-1.4-1.3V3.2z M17.4,3.2h6v2.1L22,6.5h-3.2l-1.4-1.3V3.2z M4.9,21.3h43.3L50,23H4.9V21.3z M74.4,23H52.9l-3.5-3.5
		c-0.2-0.2-0.5-0.3-0.7-0.3H4.5c-0.8-1.3-1.3-2.8-1.3-4.3c0-4.5,3.7-8.2,8.2-8.2h4.4l1.9,1.6c0.2,0.2,0.4,0.3,0.7,0.3h4
		c0.3,0,0.5-0.1,0.7-0.3l1.9-1.6h13.4l1.9,1.6c0.2,0.2,0.4,0.3,0.7,0.3h4c0.3,0,0.5-0.1,0.7-0.3l1.9-1.6h13.4l1.9,1.6
		c0.2,0.2,0.4,0.3,0.7,0.3h4c0.3,0,0.5-0.1,0.7-0.3l1.9-1.6h4.4c4.5,0,8.2,3.7,8.2,8.2C82.5,19.3,78.9,23,74.4,23z"/>
</g>
</svg>
