<?xml version="1.0" encoding="utf-8"?>
<!-- Generator: Adobe Illustrator 18.1.1, SVG Export Plug-In . SVG Version: 6.00 Build 0)  -->
<svg version="1.1" id="Layer_1" xmlns="http://www.w3.org/2000/svg" xmlns:xlink="http://www.w3.org/1999/xlink" x="0px" y="0px"
	 viewBox="0 0 113.4 51" enable-background="new 0 0 113.4 51" xml:space="preserve">
<g>
	<path fill="#BE1E2D" d="M106.2,27.3C106.2,27.3,106.2,27.2,106.2,27.3c0-0.1-0.1-0.2-0.1-0.2l-3.9-9.7c-0.2-0.4-0.5-0.6-1-0.6H87.1
		c-1.8,0-3.2,1.4-3.2,3.2l0,12.3c0,0.2,0,0.3,0.1,0.5l3,5.8c0.2,0.3,0.5,0.6,0.9,0.6h0.6c-0.5,1-0.8,2.1-0.8,3.3
		c0,3.8,3.1,6.9,6.9,6.9c3,0,5.5-1.9,6.5-4.5h2.4c0.3,0,0.6-0.2,0.8-0.4l1.9-2.5c0.1-0.2,0.2-0.4,0.2-0.6V27.5
		C106.2,27.5,106.2,27.3,106.2,27.3z M93.8,18.8h6.7l3.1,7.6h-9.8V18.8z M85.9,20c0-0.6,0.5-1.1,1.1-1.1h4.7v7.6h-5.8V20z M88.5,37
		l-2.6-5v-3.5h5.8v7.6c-0.5,0.2-1,0.5-1.5,0.9H88.5z M94.5,47.1c-2.6,0-4.8-2.1-4.8-4.8c0-2.6,2.1-4.8,4.8-4.8
		c2.6,0,4.8,2.1,4.8,4.8C99.3,45,97.2,47.1,94.5,47.1z M104.2,40.8l-1.3,1.8h-1.4c0-0.1,0-0.2,0-0.2c0-1.2-0.3-2.3-0.8-3.3h3.6V40.8
		z M104.2,37h-5.4c-1.2-0.9-2.7-1.5-4.3-1.5c-0.2,0-0.5,0-0.7,0v-7h10.3V37z"/>
	<circle fill="#BE1E2D" cx="94.5" cy="42.4" r="2.1"/>
	<path fill="#BE1E2D" d="M64.6,35.5c-3.8,0-6.9,3.1-6.9,6.9c0,3.8,3.1,6.9,6.9,6.9c3.8,0,6.9-3.1,6.9-6.9
		C71.5,38.6,68.4,35.5,64.6,35.5z M64.6,47.1c-2.6,0-4.8-2.1-4.8-4.8c0-2.6,2.1-4.8,4.8-4.8s4.8,2.1,4.8,4.8
		C69.4,45,67.2,47.1,64.6,47.1z"/>
	<circle fill="#BE1E2D" cx="64.6" cy="42.4" r="2.1"/>
	<path fill="#BE1E2D" d="M20.6,35.5c-3.8,0-6.9,3.1-6.9,6.9s3.1,6.9,6.9,6.9c3.8,0,6.9-3.1,6.9-6.9S24.4,35.5,20.6,35.5z M20.6,47.1
		c-2.6,0-4.8-2.1-4.8-4.8c0-2.6,2.1-4.8,4.8-4.8c2.6,0,4.8,2.1,4.8,4.8C25.4,45,23.3,47.1,20.6,47.1z"/>
	<circle fill="#BE1E2D" cx="20.6" cy="42.4" r="2.1"/>
	<path fill="#BE1E2D" d="M35.9,35.5c-3.8,0-6.9,3.1-6.9,6.9s3.1,6.9,6.9,6.9c3.8,0,6.9-3.1,6.9-6.9S39.7,35.5,35.9,35.5z M35.9,47.1
		c-2.6,0-4.8-2.1-4.8-4.8c0-2.6,2.1-4.8,4.8-4.8c2.6,0,4.8,2.1,4.8,4.8C40.7,45,38.5,47.1,35.9,47.1z"/>
	<circle fill="#BE1E2D" cx="35.9" cy="42.4" r="2.1"/>
	<path fill="#BE1E2D" d="M96.5,32.3h2.2c0.6,0,1-0.5,1-1c0-0.6-0.5-1-1-1h-2.2c-0.6,0-1,0.5-1,1C95.5,31.9,95.9,32.3,96.5,32.3z"/>
	<path fill="#BE1E2D" d="M82.9,37.8h-6.6c-1.8,0-3.2,1.4-3.2,3.2v2.7c0,1.8,1.4,3.2,3.2,3.2h6.6c1.8,0,3.2-1.4,3.2-3.2V41
		C86.1,39.2,84.6,37.8,82.9,37.8z M84,43.7c0,0.6-0.5,1.1-1.1,1.1h-6.6c-0.6,0-1.1-0.5-1.1-1.1V41c0-0.6,0.5-1.1,1.1-1.1h6.6
		c0.6,0,1.1,0.5,1.1,1.1V43.7z"/>
	<path fill="#BE1E2D" d="M80.3,33.9c0.6,0,1-0.5,1-1V6.7h-2.1v20.5h-5.8V1.4H9.6v25.8H7v5.6c0,0.6,0.5,1,1,1H80.3z M43.1,31.8h-16
		v-2.5h16V31.8z M65.1,27.1V3.4h2.1v23.7H65.1z M63.1,27.1H61V3.4h2.1V27.1z M59,27.1h-2.1V3.4H59V27.1z M54.9,27.1h-2.1V3.4h2.1
		V27.1z M50.9,27.1h-2.1V3.4h2.1V27.1z M46.8,27.1h-2.1V3.4h2.1V27.1z M42.7,27.1h-2.1V3.4h2.1V27.1z M38.7,27.1h-2.1V3.4h2.1V27.1z
		 M34.6,27.1h-2.1V3.4h2.1V27.1z M30.5,27.1h-2.1V3.4h2.1V27.1z M26.5,27.1h-2.1V3.4h2.1V27.1z M22.4,27.1h-2.1V3.4h2.1V27.1z
		 M18.3,27.1h-2.1V3.4h2.1V27.1z M61.2,31.8h-16v-2.5h16V31.8z M79.2,31.8h-16v-2.5h16V31.8z M71.5,27.1h-2.3V3.4h2.3V27.1z
		 M11.6,3.4h2.6v23.7h-2.6V3.4z M9.1,29.3h16v2.5h-16V29.3z"/>
	<path fill="#BE1E2D" d="M11.1,35.5c-0.6,0-1,0.5-1,1v5.5H9c-0.6,0-1,0.5-1,1c0,0.6,0.5,1,1,1h2.1c0.6,0,1-0.5,1-1v-6.6
		C12.1,36,11.7,35.5,11.1,35.5z"/>
	<path fill="#BE1E2D" d="M55,40c0.6,0,1-0.5,1-1s-0.5-1-1-1h-1.6v-1.4c0-0.6-0.5-1-1-1c-0.6,0-1,0.5-1,1V38h-2.2v-1.4
		c0-0.6-0.5-1-1-1c-0.6,0-1,0.5-1,1V38h-1.6c-0.6,0-1,0.5-1,1s0.5,1,1,1h1.6v2.1h-1.6c-0.6,0-1,0.5-1,1s0.5,1,1,1H55
		c0.6,0,1-0.5,1-1s-0.5-1-1-1h-1.6V40H55z M51.4,42.2h-2.2V40h2.2V42.2z"/>
</g>
</svg>
