<?xml version="1.0" encoding="utf-8"?>
<!-- Generator: Adobe Illustrator 18.1.1, SVG Export Plug-In . SVG Version: 6.00 Build 0)  -->
<svg version="1.1" id="Layer_1" xmlns="http://www.w3.org/2000/svg" xmlns:xlink="http://www.w3.org/1999/xlink" x="0px" y="0px"
	 viewBox="0 0 113.4 42.5" enable-background="new 0 0 113.4 42.5" xml:space="preserve">
<g>
	<path fill="#BE1E2D" d="M79.9,26.7c-3.8,0-6.9,3.1-6.9,6.9c0,3.8,3.1,6.9,6.9,6.9c3.8,0,6.9-3.1,6.9-6.9
		C86.8,29.8,83.7,26.7,79.9,26.7z M79.9,38.3c-2.6,0-4.8-2.1-4.8-4.8s2.1-4.8,4.8-4.8c2.6,0,4.8,2.1,4.8,4.8S82.6,38.3,79.9,38.3z"
		/>
	<circle fill="#BE1E2D" cx="79.9" cy="33.5" r="2.1"/>
	<path fill="#BE1E2D" d="M64.6,26.7c-3.8,0-6.9,3.1-6.9,6.9c0,3.8,3.1,6.9,6.9,6.9c3.8,0,6.9-3.1,6.9-6.9
		C71.4,29.8,68.4,26.7,64.6,26.7z M64.6,38.3c-2.6,0-4.8-2.1-4.8-4.8s2.1-4.8,4.8-4.8c2.6,0,4.8,2.1,4.8,4.8S67.2,38.3,64.6,38.3z"
		/>
	<circle fill="#BE1E2D" cx="64.6" cy="33.5" r="2.1"/>
	<path fill="#BE1E2D" d="M37.3,26.7c-3.8,0-6.9,3.1-6.9,6.9c0,3.8,3.1,6.9,6.9,6.9c3.8,0,6.9-3.1,6.9-6.9
		C44.1,29.8,41.1,26.7,37.3,26.7z M37.3,38.3c-2.6,0-4.8-2.1-4.8-4.8s2.1-4.8,4.8-4.8c2.6,0,4.8,2.1,4.8,4.8S39.9,38.3,37.3,38.3z"
		/>
	<circle fill="#BE1E2D" cx="37.3" cy="33.5" r="2.1"/>
	<path fill="#BE1E2D" d="M21.9,26.7c-3.8,0-6.9,3.1-6.9,6.9c0,3.8,3.1,6.9,6.9,6.9c3.8,0,6.9-3.1,6.9-6.9
		C28.8,29.8,25.7,26.7,21.9,26.7z M21.9,38.3c-2.6,0-4.8-2.1-4.8-4.8s2.1-4.8,4.8-4.8c2.6,0,4.8,2.1,4.8,4.8S24.6,38.3,21.9,38.3z"
		/>
	<circle fill="#BE1E2D" cx="21.9" cy="33.5" r="2.1"/>
	<path fill="#BE1E2D" d="M18.2,7.2c-0.6,0-1,0.5-1,1v2.4c0,0.6,0.5,1,1,1c0.6,0,1-0.5,1-1V8.2C19.3,7.6,18.8,7.2,18.2,7.2z"/>
	<path fill="#BE1E2D" d="M21.8,7.2c-0.6,0-1,0.5-1,1v2.4c0,0.6,0.5,1,1,1c0.6,0,1-0.5,1-1V8.2C22.9,7.6,22.4,7.2,21.8,7.2z"/>
	<path fill="#BE1E2D" d="M25.5,7.2c-0.6,0-1,0.5-1,1v2.4c0,0.6,0.5,1,1,1s1-0.5,1-1V8.2C26.5,7.6,26,7.2,25.5,7.2z"/>
	<path fill="#BE1E2D" d="M105.2,2.1h-4.8c-0.6,0-1,0.5-1,1v1.6h-1.7V3.1c0-0.6-0.5-1-1-1h-3.4c-0.2,0-0.4,0.1-0.6,0.2l-2.5,1.8H30.8
		l-1.7-1.7c-0.2-0.2-0.5-0.3-0.7-0.3H7.9c-0.6,0-1,0.5-1,1v8.2c0,0.4,0.2,0.8,0.6,0.9l8.6,4.2v2H7.9c-0.6,0-1,0.5-1,1v16.5
		c0,0.6,0.5,1,1,1h4.5c0.6,0,1-0.5,1-1v-6l4.9-4.9h22.4l4.9,4.9v6c0,0.6,0.5,1,1,1h8.3c0.6,0,1-0.5,1-1v-6l4.9-4.9h22.4l4.9,4.9v6
		c0,0.6,0.5,1,1,1h10.2c0.3,0,0.6-0.1,0.8-0.3l2.2-2.4c0.2-0.2,0.3-0.4,0.3-0.7V30c0-0.6-0.5-1-1-1h-1l-2.9-9.8
		c-0.1-0.4-0.5-0.7-1-0.7h-11l-4.2-4.2c-0.2-0.2-0.5-0.3-0.7-0.3H64.4c-0.6,0-1,0.5-1,1v3.5H45v-2.7c0-0.6-0.5-1-1-1h-2.5L39,12.3
		h51.2l2.5,1.8c0.2,0.1,0.4,0.2,0.6,0.2h3.4c0.6,0,1-0.5,1-1v-1.6h1.7v0.4c0,0.3,0.1,0.5,0.3,0.7l2.3,2.5c0.2,0.2,0.5,0.3,0.8,0.3
		h2.5c0.6,0,1-0.5,1-1V3.1C106.2,2.5,105.7,2.1,105.2,2.1z M98.7,29h-4.2v-3.9h3L98.7,29z M96.8,23h-3.4c-0.6,0-1,0.5-1,1v6
		c0,0.6,0.5,1,1,1h7.4v2.1L99.2,35h-8.7v-5.4c0-0.3-0.1-0.5-0.3-0.7l-5.6-5.6c-0.2-0.2-0.5-0.3-0.7-0.3H60.6c-0.3,0-0.5,0.1-0.7,0.3
		l-5.5,5.6c-0.2,0.2-0.3,0.5-0.3,0.7V35h-6.2v-5.4c0-0.3-0.1-0.5-0.3-0.7L42,23.3c-0.2-0.2-0.5-0.3-0.7-0.3H18
		c-0.3,0-0.5,0.1-0.7,0.3l-5.5,5.6c-0.2,0.2-0.3,0.5-0.3,0.7V35H8.9V20.6h87.2L96.8,23z M65.4,16h15l2.5,2.5H65.4V16z M41,16.9h1.9
		v1.6H18.1v-2.7c0-0.4-0.2-0.8-0.6-0.9l-8.6-4.2V4.2h19l12.4,12.4C40.5,16.7,40.7,16.9,41,16.9z M95.6,12.2h-2l-2.5-1.8
		c-0.2-0.1-0.4-0.2-0.6-0.2H36.9l-4.1-4.1h57.7c0.2,0,0.4-0.1,0.6-0.2l2.5-1.8h2V12.2z M104.1,13.5h-1l-1.7-1.8v-1.1
		c0-0.6-0.5-1-1-1h-2.7V6.8h2.7c0.6,0,1-0.5,1-1V4.2h2.7V13.5z"/>
</g>
</svg>
