<?xml version="1.0" encoding="utf-8"?>
<!-- Generator: Adobe Illustrator 18.1.1, SVG Export Plug-In . SVG Version: 6.00 Build 0)  -->
<svg version="1.1" id="Layer_1" xmlns="http://www.w3.org/2000/svg" xmlns:xlink="http://www.w3.org/1999/xlink" x="0px" y="0px"
	 viewBox="0 0 113.4 42.5" enable-background="new 0 0 113.4 42.5" xml:space="preserve">
<g>
	<path fill="#BE1E2D" d="M101.1,29.3L99,28.4v-7.1c0-0.5-0.3-0.9-0.8-1l-13-2.7l-3.7-9.2c-0.2-0.4-0.5-0.6-1-0.6H69.1
		c-1.8,0-3.2,1.4-3.2,3.2v18.1c0,0.6,0.5,1,1,1h4v4.6c0,0.6,0.5,1,1,1h10.6c1,2.6,3.5,4.5,6.5,4.5c3,0,5.5-1.9,6.5-4.5h5.2
		c0.6,0,1-0.5,1-1v-4.4C101.7,29.8,101.4,29.5,101.1,29.3z M68,11c0-0.6,0.5-1.1,1.1-1.1h1.7v7.6H68V11z M70.9,28H68v-8.5h2.9V28z
		 M73,9.9h6.7l3.1,7.6H73V9.9z M82.1,33.4c0,0.1,0,0.2,0,0.2H73v-3.5h9.9C82.4,31.1,82.1,32.2,82.1,33.4z M83.3,28H73v-8.5h10.3V28z
		 M89,38.2c-2.6,0-4.8-2.1-4.8-4.8c0-2.6,2.1-4.8,4.8-4.8c2.6,0,4.8,2.1,4.8,4.8C93.7,36,91.6,38.2,89,38.2z M99.6,33.6h-3.8
		c0-0.1,0-0.2,0-0.2c0-3.8-3.1-6.9-6.9-6.9c-1.3,0-2.5,0.4-3.6,1v-7.8l11.5,2.4v6.9c0,0.4,0.2,0.8,0.6,1l2.1,0.9V33.6z"/>
	<circle fill="#BE1E2D" cx="89" cy="33.4" r="2.1"/>
	<circle fill="#BE1E2D" cx="30.3" cy="33.4" r="2.1"/>
	<path fill="#BE1E2D" d="M62.1,30.1c0.6,0,1-0.5,1-1v-13c0-5.6-4.6-10.2-10.2-10.2h0V2.7c0-0.6-0.5-1-1-1h-7.1c-0.6,0-1,0.5-1,1v3.1
		h-7.2V2.7c0-0.6-0.5-1-1-1h-7.1c-0.6,0-1,0.5-1,1v3.1h0c-5.6,0-10.2,4.6-10.2,10.2v6h-2.5c-0.6,0-1,0.5-1,1v12.3c0,0.6,0.5,1,1,1
		H19c0.4,0,0.8-0.2,0.9-0.6l2.7-5.8h1.7c-0.5,1-0.8,2.1-0.8,3.3c0,3.8,3.1,6.9,6.9,6.9c3.8,0,6.9-3.1,6.9-6.9c0-1.2-0.3-2.3-0.8-3.3
		h3.2c-0.5,1-0.8,2.1-0.8,3.3c0,3.8,3.1,6.9,6.9,6.9c3.8,0,6.9-3.1,6.9-6.9c0-1.2-0.3-2.3-0.8-3.3H62.1z M45.8,3.8h5v2.1h-5V3.8z
		 M29.4,3.8h5v2.1h-5V3.8z M19.2,16.1c0-4.5,3.7-8.2,8.2-8.2h25.6c4.5,0,8.2,3.7,8.2,8.2v0.8H46.4c-0.6,0-1,0.5-1,1s0.5,1,1,1h14.7
		v3.1H19.2V16.1z M18.3,34.4h-2.7v-4.3h4.7L18.3,34.4z M30.3,38.2c-2.6,0-4.8-2.1-4.8-4.8c0-2.6,2.1-4.8,4.8-4.8
		c2.6,0,4.8,2.1,4.8,4.8C35.1,36,32.9,38.2,30.3,38.2z M45.6,38.2c-2.6,0-4.8-2.1-4.8-4.8c0-2.6,2.1-4.8,4.8-4.8
		c2.6,0,4.8,2.1,4.8,4.8C50.4,36,48.2,38.2,45.6,38.2z M49.9,28c-1.2-0.9-2.7-1.5-4.3-1.5c-1.6,0-3.1,0.6-4.3,1.5h-6.7
		c-1.2-0.9-2.7-1.5-4.3-1.5c-1.6,0-3.1,0.6-4.3,1.5H15.6v-3.8h45.5V28H49.9z"/>
	<circle fill="#BE1E2D" cx="45.6" cy="33.4" r="2.1"/>
	<path fill="#BE1E2D" d="M75.7,23.4h2.2c0.6,0,1-0.5,1-1s-0.5-1-1-1h-2.2c-0.6,0-1,0.5-1,1S75.1,23.4,75.7,23.4z"/>
	<path fill="#BE1E2D" d="M65,31.7h-7.8c-1.7,0-3.1,1.4-3.1,3.1c0,1.7,1.4,3.1,3.1,3.1H65c1.7,0,3.1-1.4,3.1-3.1
		C68.1,33.1,66.7,31.7,65,31.7z M65,35.9h-7.8c-0.6,0-1-0.5-1-1c0-0.6,0.5-1,1-1H65c0.6,0,1,0.5,1,1C66,35.4,65.6,35.9,65,35.9z"/>
	<path fill="#BE1E2D" d="M33.8,14c-0.2-1.3-0.9-2.4-2-3.2c-0.1-0.1-0.2-0.1-0.3-0.2l-0.1-0.1c-0.1-0.1-0.3-0.1-0.5-0.1
		s-0.3,0.1-0.4,0.3l-1.5,2.6c0,0,0,0,0,0c0,0-0.1,0-0.1,0c0,0-0.1,0-0.1,0c0,0,0,0,0,0l-1.5-2.6c-0.1-0.1-0.3-0.2-0.4-0.2
		c-0.2,0-0.4,0-0.5,0.1c-0.4,0.3-0.8,0.6-1.1,0.9c-0.8,0.9-1.2,1.9-1.2,3.1c0,0.2,0.1,0.4,0.2,0.5c0.1,0.1,0.3,0.2,0.5,0.2
		c0.9,0,1.9,0,2.8,0c0,0,0,0,0,0c0,0,0,0,0.1,0c0,0.1,0.1,0.2,0.1,0.2l-1.5,2.6c-0.2,0.3-0.1,0.6,0.2,0.8c0.7,0.4,1.6,0.7,2.4,0.7
		c0.9,0,1.7-0.2,2.4-0.7c0.3-0.2,0.4-0.5,0.2-0.8l-1.5-2.6c0-0.1,0.1-0.1,0.1-0.2c0,0,0,0,0.1,0c0,0,0,0,0,0l1,0c0.6,0,1.2,0,1.7,0
		c0.3,0,0.4-0.1,0.5-0.2c0.1-0.1,0.2-0.4,0.2-0.6l0-0.2C33.8,14.3,33.8,14.2,33.8,14z M29.3,14.9c0,0.1-0.1,0.2-0.3,0.2v0.4
		c0,0,0,0,0,0l0-0.4c-0.1,0-0.2-0.1-0.2-0.3c0-0.1,0.1-0.2,0.3-0.2C29.2,14.6,29.3,14.7,29.3,14.9z M25.4,14.2
		c0.1-0.7,0.4-1.3,0.9-1.8c0.1-0.1,0.3-0.3,0.4-0.4l0.9,1.6c-0.2,0.2-0.3,0.4-0.4,0.7C26.6,14.3,26,14.3,25.4,14.2z M27.7,18.3
		l0.9-1.6c0.3,0.1,0.5,0.1,0.8,0l0.9,1.6C29.5,18.6,28.5,18.6,27.7,18.3z M31.4,14.3l-0.6,0c-0.1-0.3-0.2-0.5-0.4-0.7l0.9-1.6
		c0.7,0.6,1.1,1.3,1.3,2.2C32.2,14.3,31.8,14.3,31.4,14.3z"/>
</g>
</svg>
