<?xml version="1.0" encoding="utf-8"?>
<!-- Generator: Adobe Illustrator 18.1.1, SVG Export Plug-In . SVG Version: 6.00 Build 0)  -->
<svg version="1.1" id="Layer_1" xmlns="http://www.w3.org/2000/svg" xmlns:xlink="http://www.w3.org/1999/xlink" x="0px" y="0px"
	 viewBox="0 0 113.4 42.5" enable-background="new 0 0 113.4 42.5" xml:space="preserve">
<g>
	<path fill="#BE1E2D" d="M92.2,29.6l-2.1-0.9v-7.1c0-0.4-0.3-0.8-0.7-1L82.1,18l-3.7-9.2c-0.2-0.4-0.5-0.6-1-0.6H66.2
		c-1.8,0-3.2,1.4-3.2,3.2V35c0,0.6,0.5,1,1,1h9.9c1,2.6,3.5,4.5,6.5,4.5c3,0,5.5-1.9,6.5-4.5h5c0.6,0,1-0.5,1-1v-4.4
		C92.8,30.2,92.6,29.8,92.2,29.6z M76.1,28.4h-6.1v-8.5h10.3v7C78.7,26.9,77.2,27.5,76.1,28.4z M65,19.9h2.8v8.5H65V19.9z
		 M79.8,17.8h-9.8v-7.6h6.7L79.8,17.8z M65,11.3c0-0.6,0.5-1.1,1.1-1.1h1.7v7.6H65V11.3z M65,34v-3.5h9.3c-0.5,1-0.8,2.1-0.8,3.3
		c0,0.1,0,0.2,0,0.2H65z M80.3,38.5c-2.6,0-4.8-2.1-4.8-4.8c0-2.6,2.1-4.8,4.8-4.8c2.6,0,4.8,2.1,4.8,4.8
		C85.1,36.4,83,38.5,80.3,38.5z M90.8,34h-3.6c0-0.1,0-0.2,0-0.2c0-3.1-2-5.7-4.9-6.6v-6.8l5.7,2.1v7c0,0.4,0.2,0.8,0.6,1l2.1,0.9
		V34z"/>
	<circle fill="#BE1E2D" cx="80.3" cy="33.7" r="2.1"/>
	<path fill="#BE1E2D" d="M40.3,26.9c-3.8,0-6.9,3.1-6.9,6.9c0,3.8,3.1,6.9,6.9,6.9c3.8,0,6.9-3.1,6.9-6.9C47.1,30,44,26.9,40.3,26.9
		z M40.3,38.5c-2.6,0-4.8-2.1-4.8-4.8c0-2.6,2.1-4.8,4.8-4.8c2.6,0,4.8,2.1,4.8,4.8C45,36.4,42.9,38.5,40.3,38.5z"/>
	<circle fill="#BE1E2D" cx="40.3" cy="33.7" r="2.1"/>
	<path fill="#BE1E2D" d="M74.8,21.6h-2.2c-0.6,0-1,0.5-1,1c0,0.6,0.5,1,1,1h2.2c0.6,0,1-0.5,1-1C75.9,22.1,75.4,21.6,74.8,21.6z"/>
	<path fill="#BE1E2D" d="M58.2,26.9h-6.6c-1.8,0-3.2,1.4-3.2,3.2v2.7c0,1.8,1.4,3.2,3.2,3.2h6.6c1.8,0,3.2-1.4,3.2-3.2v-2.7
		C61.4,28.3,59.9,26.9,58.2,26.9z M59.3,32.8c0,0.6-0.5,1.1-1.1,1.1h-6.6c-0.6,0-1.1-0.5-1.1-1.1v-2.7c0-0.6,0.5-1.1,1.1-1.1h6.6
		c0.6,0,1.1,0.5,1.1,1.1V32.8z"/>
	<path fill="#BE1E2D" d="M59.4,25.3c0.6,0,1-0.5,1-1V2.5c0-0.6-0.5-1-1-1H24.2c-0.6,0-1,0.5-1,1v21.7c0,0.6,0.5,1,1,1H59.4z
		 M42.8,20.7h6.7v2.5h-6.7V20.7z M58.4,23.2h-6.7v-2.5h6.7V23.2z M58.4,3.5v15H25.2v-15H58.4z M25.2,20.7h6.7v2.5h-6.7V20.7z
		 M34,20.7h6.7v2.5H34V20.7z"/>
	<path fill="#BE1E2D" d="M30.7,26.9c-0.6,0-1,0.5-1,1v5.5h-1.1c-0.6,0-1,0.5-1,1c0,0.6,0.5,1,1,1h2.1c0.6,0,1-0.5,1-1v-6.6
		C31.7,27.3,31.3,26.9,30.7,26.9z"/>
</g>
</svg>
