<?xml version="1.0" encoding="utf-8"?>
<!-- Generator: Adobe Illustrator 18.1.1, SVG Export Plug-In . SVG Version: 6.00 Build 0)  -->
<svg version="1.1" id="Layer_1" xmlns="http://www.w3.org/2000/svg" xmlns:xlink="http://www.w3.org/1999/xlink" x="0px" y="0px"
	 viewBox="0 0 113.4 42.5" enable-background="new 0 0 113.4 42.5" xml:space="preserve">
<g>
	<path fill="#BE1E2D" d="M36.8,18.4c0.2,0.1,0.4,0.2,0.6,0.2c0.3,0,0.6-0.1,0.8-0.4l5.1-6.6c0.4-0.5,0.3-1.1-0.2-1.5
		c-0.5-0.4-1.1-0.3-1.5,0.2l-5.1,6.6C36.2,17.4,36.3,18,36.8,18.4z"/>
	<path fill="#BE1E2D" d="M43,18.4c0.2,0.1,0.4,0.2,0.6,0.2c0.3,0,0.6-0.1,0.8-0.4l5.1-6.6c0.4-0.5,0.3-1.1-0.2-1.5
		c-0.5-0.4-1.1-0.3-1.5,0.2l-5.1,6.6C42.4,17.4,42.5,18,43,18.4z"/>
	<path fill="#BE1E2D" d="M49.1,18.4c0.2,0.1,0.4,0.2,0.6,0.2c0.3,0,0.6-0.1,0.8-0.4l5.1-6.6c0.4-0.5,0.3-1.1-0.2-1.5
		c-0.5-0.4-1.1-0.3-1.5,0.2l-5.1,6.6C48.6,17.4,48.7,18,49.1,18.4z"/>
	<path fill="#BE1E2D" d="M30.1,27.7c-0.6,0-1,0.5-1,1v5.5H28c-0.6,0-1,0.5-1,1c0,0.6,0.5,1,1,1h2.1c0.6,0,1-0.5,1-1v-6.6
		C31.2,28.2,30.7,27.7,30.1,27.7z"/>
	<path fill="#BE1E2D" d="M94.5,19.5C94.5,19.5,94.5,19.5,94.5,19.5c0-0.1-0.1-0.2-0.1-0.2l-3.9-9.7C90.4,9.2,90,9,89.6,9H78.4
		c-1.8,0-3.2,1.4-3.2,3.2v17c-1.6,1.3-2.7,3.2-2.7,5.4c0,3.8,3.1,6.9,6.9,6.9c3,0,5.5-1.9,6.5-4.5h5.8c0.3,0,0.6-0.2,0.8-0.4
		l1.9-2.5c0.1-0.2,0.2-0.4,0.2-0.6V19.7C94.5,19.7,94.5,19.6,94.5,19.5z M91.9,18.7h-9.8v-7.6h6.7L91.9,18.7z M77.2,12.2
		c0-0.6,0.5-1.1,1.1-1.1H80v7.6h-2.8V12.2z M77.2,20.7H80v7c-0.2,0-0.5,0-0.7,0c-0.7,0-1.5,0.1-2.1,0.3V20.7z M79.4,39.4
		c-2.6,0-4.8-2.1-4.8-4.8s2.1-4.8,4.8-4.8c2.6,0,4.8,2.1,4.8,4.8S82,39.4,79.4,39.4z M92.5,33l-1.3,1.8h-4.9c0-0.1,0-0.2,0-0.2
		c0-1.2-0.3-2.3-0.8-3.3h7.1V33z M92.5,29.2h-8.8c-0.5-0.4-1-0.7-1.5-0.9v-7.6h10.3V29.2z"/>
	<circle fill="#BE1E2D" cx="79.4" cy="34.6" r="2.1"/>
	<path fill="#BE1E2D" d="M84.8,24.6H87c0.6,0,1-0.5,1-1c0-0.6-0.5-1-1-1h-2.2c-0.6,0-1,0.5-1,1C83.8,24.1,84.2,24.6,84.8,24.6z"/>
	<path fill="#BE1E2D" d="M39.7,27.7c-3.8,0-6.9,3.1-6.9,6.9c0,3.8,3.1,6.9,6.9,6.9c3.8,0,6.9-3.1,6.9-6.9
		C46.5,30.8,43.4,27.7,39.7,27.7z M39.7,39.4c-2.6,0-4.8-2.1-4.8-4.8s2.1-4.8,4.8-4.8s4.8,2.1,4.8,4.8S42.3,39.4,39.7,39.4z"/>
	<circle fill="#BE1E2D" cx="39.7" cy="34.6" r="2.1"/>
	<path fill="#BE1E2D" d="M72.6,3.3c0-0.6-0.5-1-1-1H20.8c-0.6,0-1,0.5-1,1v21.7c0,0.6,0.5,1,1,1h50.8c0.6,0,1-0.5,1-1V3.3z M70.5,24
		H21.8V4.4h48.7V24z"/>
	<path fill="#BE1E2D" d="M69.8,31.9c0.6,0,1-0.5,1-1c0-0.6-0.5-1-1-1h-4.6v-1.1c0-0.6-0.5-1-1-1c-0.6,0-1,0.5-1,1v1.1h-7.3v-1.1
		c0-0.6-0.5-1-1-1c-0.6,0-1,0.5-1,1v1.1h-4.6c-0.6,0-1,0.5-1,1c0,0.6,0.5,1,1,1h4.6v2.4h-4.6c-0.6,0-1,0.5-1,1c0,0.6,0.5,1,1,1h20.6
		c0.6,0,1-0.5,1-1c0-0.6-0.5-1-1-1h-4.6v-2.4H69.8z M63.1,31.9v2.4h-7.3v-2.4H63.1z"/>
</g>
</svg>
