<?xml version="1.0" encoding="utf-8"?>
<!-- Generator: Adobe Illustrator 18.1.1, SVG Export Plug-In . SVG Version: 6.00 Build 0)  -->
<svg version="1.1" id="Layer_1" xmlns="http://www.w3.org/2000/svg" xmlns:xlink="http://www.w3.org/1999/xlink" x="0px" y="0px"
	 viewBox="0 0 113.4 42.5" enable-background="new 0 0 113.4 42.5" xml:space="preserve">
<g>
	<path fill="#BE1E2D" d="M39.3,18c0.2,0.1,0.4,0.2,0.6,0.2c0.3,0,0.6-0.1,0.8-0.4l5.1-6.6c0.4-0.5,0.3-1.1-0.2-1.5
		c-0.5-0.4-1.1-0.3-1.5,0.2l-5.1,6.6C38.8,17,38.8,17.6,39.3,18z"/>
	<path fill="#BE1E2D" d="M45.5,18c0.2,0.1,0.4,0.2,0.6,0.2c0.3,0,0.6-0.1,0.8-0.4l5.1-6.6c0.4-0.5,0.3-1.1-0.2-1.5
		c-0.5-0.4-1.1-0.3-1.5,0.2l-5.1,6.6C44.9,17,45,17.6,45.5,18z"/>
	<path fill="#BE1E2D" d="M51.6,18c0.2,0.1,0.4,0.2,0.6,0.2c0.3,0,0.6-0.1,0.8-0.4l5.1-6.6c0.4-0.5,0.3-1.1-0.2-1.5
		c-0.5-0.4-1.1-0.3-1.5,0.2l-5.1,6.6C51.1,17,51.2,17.6,51.6,18z"/>
	<path fill="#BE1E2D" d="M23.6,27.4c-0.6,0-1,0.5-1,1v5.5h-1.1c-0.6,0-1,0.5-1,1c0,0.6,0.5,1,1,1h2.1c0.6,0,1-0.5,1-1v-6.6
		C24.7,27.8,24.2,27.4,23.6,27.4z"/>
	<path fill="#BE1E2D" d="M97,19.1C97,19.1,97,19.1,97,19.1c0-0.1-0.1-0.2-0.1-0.2L93,9.3c-0.2-0.4-0.5-0.6-1-0.6H80.9
		c-1.8,0-3.2,1.4-3.2,3.2v17C76,30.1,75,32,75,34.2c0,3.8,3.1,6.9,6.9,6.9c3,0,5.5-1.9,6.5-4.5h5.8c0.3,0,0.6-0.2,0.8-0.4l1.9-2.5
		C97,33.4,97,33.2,97,33V19.3C97,19.3,97,19.2,97,19.1z M94.5,18.3h-9.8v-7.6h6.7L94.5,18.3z M79.7,11.8c0-0.6,0.5-1.1,1.1-1.1h1.7
		v7.6h-2.8V11.8z M79.7,20.4h2.8v7c-0.2,0-0.5,0-0.7,0c-0.7,0-1.5,0.1-2.1,0.3V20.4z M81.9,39c-2.6,0-4.8-2.1-4.8-4.8
		s2.1-4.8,4.8-4.8c2.6,0,4.8,2.1,4.8,4.8S84.5,39,81.9,39z M95,32.6l-1.3,1.8h-4.9c0-0.1,0-0.2,0-0.2c0-1.2-0.3-2.3-0.8-3.3H95V32.6
		z M95,28.9h-8.8c-0.5-0.4-1-0.7-1.5-0.9v-7.6H95V28.9z"/>
	<circle fill="#BE1E2D" cx="81.9" cy="34.2" r="2.1"/>
	<path fill="#BE1E2D" d="M87.3,24.2h2.2c0.6,0,1-0.5,1-1c0-0.6-0.5-1-1-1h-2.2c-0.6,0-1,0.5-1,1C86.3,23.7,86.7,24.2,87.3,24.2z"/>
	<path fill="#BE1E2D" d="M33.2,27.4c-3.8,0-6.9,3.1-6.9,6.9c0,3.8,3.1,6.9,6.9,6.9c3.8,0,6.9-3.1,6.9-6.9
		C40,30.4,36.9,27.4,33.2,27.4z M33.2,39c-2.6,0-4.8-2.1-4.8-4.8s2.1-4.8,4.8-4.8s4.8,2.1,4.8,4.8S35.8,39,33.2,39z"/>
	<circle fill="#BE1E2D" cx="33.2" cy="34.2" r="2.1"/>
	<path fill="#BE1E2D" d="M74.1,1.9h-6.2H23.3h-6.2c-0.6,0-1,0.5-1,1v21.7c0,0.6,0.5,1,1,1h6.2h44.6h6.2c0.6,0,1-0.5,1-1V3
		C75.1,2.4,74.6,1.9,74.1,1.9z M73,23.7h-4.1h-2.1H24.3h-2.1h-4.1V4h4.1h2.1h42.6h2.1H73V23.7z"/>
	<path fill="#BE1E2D" d="M72.3,33.9h-4.6v-2.4h4.6c0.6,0,1-0.5,1-1c0-0.6-0.5-1-1-1h-4.6v-1.1c0-0.6-0.5-1-1-1c-0.6,0-1,0.5-1,1v1.1
		H63h-4.6v-1.1c0-0.6-0.5-1-1-1c0,0,0,0,0,0s0,0,0,0c-0.6,0-1,0.5-1,1v1.1h-4.6h-2.6v-1.1c0-0.6-0.5-1-1-1s-1,0.5-1,1v1.1h-4.6
		c-0.6,0-1,0.5-1,1c0,0.6,0.5,1,1,1H47v2.4h-4.6c-0.6,0-1,0.5-1,1c0,0.6,0.5,1,1,1h9.3H63h9.3c0.6,0,1-0.5,1-1
		C73.4,34.4,72.9,33.9,72.3,33.9z M51.7,33.9h-2.6v-2.4h2.6h4.6v2.4H51.7z M65.6,33.9H63h-4.6v-2.4H63h2.6V33.9z"/>
</g>
</svg>
