<?xml version="1.0" encoding="utf-8"?>
<!-- Generator: Adobe Illustrator 18.1.1, SVG Export Plug-In . SVG Version: 6.00 Build 0)  -->
<svg version="1.1" id="Layer_1" xmlns="http://www.w3.org/2000/svg" xmlns:xlink="http://www.w3.org/1999/xlink" x="0px" y="0px"
	 viewBox="0 0 113.4 51" enable-background="new 0 0 113.4 51" xml:space="preserve">
<g>
	<path fill="#BE1E2D" d="M109.8,23.7l-3.9-9.7c-0.2-0.4-0.5-0.6-1-0.6H90.7c-1.8,0-3.2,1.4-3.2,3.2l0,12.3c0,0.2,0,0.3,0.1,0.5
		l3,5.8c0.2,0.3,0.5,0.6,0.9,0.6h0.6c-0.5,1-0.8,2.1-0.8,3.3c0,3.8,3.1,6.9,6.9,6.9c3,0,5.5-1.9,6.5-4.5h2.4c0.3,0,0.6-0.2,0.8-0.4
		l1.9-2.5c0.1-0.2,0.2-0.4,0.2-0.6V24.1C109.9,24.1,109.9,23.9,109.8,23.7z M97.4,15.5h6.7l3.1,7.6h-9.8V15.5z M89.6,16.6
		c0-0.6,0.5-1.1,1.1-1.1h4.7v7.6h-5.8V16.6z M89.6,28.7v-3.5h5.8v7.6c-0.5,0.2-1,0.5-1.5,0.9h-1.7L89.6,28.7z M98.2,43.8
		c-2.6,0-4.8-2.1-4.8-4.8c0-2.6,2.1-4.8,4.8-4.8c2.6,0,4.8,2.1,4.8,4.8C102.9,41.6,100.8,43.8,98.2,43.8z M107.8,37.4l-1.3,1.8H105
		c0-0.1,0-0.2,0-0.2c0-1.2-0.3-2.3-0.8-3.3h3.6V37.4z M107.8,33.7h-5.4c-1.2-0.9-2.7-1.5-4.3-1.5c-0.2,0-0.5,0-0.7,0v-7h10.3V33.7z"
		/>
	<circle fill="#BE1E2D" cx="98.2" cy="39" r="2.1"/>
	<path fill="#BE1E2D" d="M68.2,32.2c-3.8,0-6.9,3.1-6.9,6.9c0,3.8,3.1,6.9,6.9,6.9c3.8,0,6.9-3.1,6.9-6.9
		C75.1,35.2,72,32.2,68.2,32.2z M68.2,43.8c-2.6,0-4.8-2.1-4.8-4.8c0-2.6,2.1-4.8,4.8-4.8c2.6,0,4.8,2.1,4.8,4.8
		C73,41.6,70.9,43.8,68.2,43.8z"/>
	<circle fill="#BE1E2D" cx="68.2" cy="39" r="2.1"/>
	<path fill="#BE1E2D" d="M100.1,29h2.2c0.6,0,1-0.5,1-1c0-0.6-0.5-1-1-1h-2.2c-0.6,0-1,0.5-1,1C99.1,28.5,99.6,29,100.1,29z"/>
	<path fill="#BE1E2D" d="M86.5,34.4h-6.6c-1.8,0-3.2,1.4-3.2,3.2v2.7c0,1.8,1.4,3.2,3.2,3.2h6.6c1.8,0,3.2-1.4,3.2-3.2v-2.7
		C89.7,35.9,88.3,34.4,86.5,34.4z M87.6,40.4c0,0.6-0.5,1.1-1.1,1.1h-6.6c-0.6,0-1.1-0.5-1.1-1.1v-2.7c0-0.6,0.5-1.1,1.1-1.1h6.6
		c0.6,0,1.1,0.5,1.1,1.1V40.4z"/>
	<path fill="#BE1E2D" d="M22,36.2c4,0,7.4-2.6,8.6-6.3h8.7c0.1,3.5,2.9,6.3,6.4,6.3c3.5,0,6.4-2.9,6.4-6.4c0-2.8-1.8-5.2-4.3-6.1
		v-6.7c0-2.1-1.9-3.8-4.3-3.8h-7L34,5.6c-0.1-0.4-0.5-0.7-1-0.7h-7.2c-3.6,0-6.5,2.9-6.5,6.5v2.2l-2.8,2.8c-0.2,0.2-0.3,0.5-0.3,0.7
		v3c-2,1.7-3.3,4.2-3.3,7C12.9,32.1,17,36.2,22,36.2z M27.9,15.3h6.9v5.1l-2.1,3.4h-2.3c-0.5-1.3-1.4-2.5-2.5-3.5V15.3z M50.1,29.8
		c0,2.4-1.9,4.3-4.3,4.3s-4.3-1.9-4.3-4.3c0-2.4,1.9-4.3,4.3-4.3S50.1,27.4,50.1,29.8z M45.8,16.9v1.1h-1.6c-0.6,0-1,0.5-1,1
		c0,0.6,0.5,1,1,1h1.6v3.2c0,0,0,0,0,0c-2.9,0-5.3,1.9-6.1,4.5H31c0-0.2,0-0.5,0-0.7c0-0.4,0-0.9-0.1-1.3h2.3c0.4,0,0.7-0.2,0.9-0.5
		l2.6-4.1c0.1-0.2,0.2-0.4,0.2-0.6v-5.4h6.7C44.8,15.3,45.8,16,45.8,16.9z M34.4,13.2h-6.5V7h4.3L34.4,13.2z M21.4,11.4
		c0-2.4,2-4.4,4.4-4.4v6.2h-4.4V11.4z M18.3,17.6l2.3-2.3h5.2v3.6c-1.2-0.5-2.5-0.8-3.8-0.8c-1.3,0-2.6,0.3-3.7,0.8V17.6z M22,20.1
		c3.8,0,7,3.1,7,7c0,3.8-3.1,7-7,7c-3.8,0-7-3.1-7-7C15,23.3,18.2,20.1,22,20.1z"/>
	<path fill="#BE1E2D" d="M22,31.1c2.2,0,4-1.8,4-4c0-2.2-1.8-4-4-4c-2.2,0-4,1.8-4,4C18,29.3,19.8,31.1,22,31.1z M22,25.2
		c1,0,1.9,0.8,1.9,1.9S23,29,22,29c-1,0-1.9-0.8-1.9-1.9S21,25.2,22,25.2z"/>
	<path fill="#BE1E2D" d="M83.9,30.5c0.6,0,1-0.5,1-1c0-0.6-0.5-1-1-1H61.9c-0.4,0-0.7,0.2-0.9,0.5l-5.3,9.8h-14
		c-0.8-1.2-2.2-2-3.8-2c-1.6,0-3,0.8-3.8,2H31c-0.8-1.2-2.2-2-3.8-2c-1.6,0-3,0.8-3.8,2h-3.1c-0.8-1.2-2.2-2-3.8-2
		c-1.6,0-3,0.8-3.8,2H9.5c-0.2-0.4-0.5-0.7-0.9-0.9V27.1c0-0.6-0.5-1-1-1c-0.6,0-1,0.5-1,1v10.8c-0.7,0.4-1.2,1.1-1.2,1.9
		c0,1.2,1,2.2,2.2,2.2c0.8,0,1.6-0.5,1.9-1.2h2.6c0,0.2,0,0.3,0,0.5c0,2.5,2,4.5,4.5,4.5c2.5,0,4.5-2,4.5-4.5c0-0.2,0-0.3,0-0.5h1.6
		c0,0.2,0,0.3,0,0.5c0,2.5,2,4.5,4.5,4.5c2.5,0,4.5-2,4.5-4.5c0-0.2,0-0.3,0-0.5h1.6c0,0.2,0,0.3,0,0.5c0,2.5,2,4.5,4.5,4.5
		c2.5,0,4.5-2,4.5-4.5c0-0.2,0-0.3,0-0.5h13.9c0.4,0,0.7-0.2,0.9-0.5l5.3-9.8H83.9z M16.6,43.8c-1.4,0-2.5-1.1-2.5-2.5
		c0-1.4,1.1-2.5,2.5-2.5c1.4,0,2.5,1.1,2.5,2.5C19.1,42.7,18,43.8,16.6,43.8z M27.3,43.8c-1.4,0-2.5-1.1-2.5-2.5
		c0-1.4,1.1-2.5,2.5-2.5c1.4,0,2.5,1.1,2.5,2.5C29.7,42.7,28.6,43.8,27.3,43.8z M38,43.8c-1.4,0-2.5-1.1-2.5-2.5
		c0-1.4,1.1-2.5,2.5-2.5c1.4,0,2.5,1.1,2.5,2.5C40.4,42.7,39.3,43.8,38,43.8z"/>
</g>
</svg>
