<?xml version="1.0" encoding="utf-8"?>
<!-- Generator: Adobe Illustrator 18.1.1, SVG Export Plug-In . SVG Version: 6.00 Build 0)  -->
<svg version="1.1" id="Layer_1" xmlns="http://www.w3.org/2000/svg" xmlns:xlink="http://www.w3.org/1999/xlink" x="0px" y="0px"
	 viewBox="0 0 113.4 42.5" enable-background="new 0 0 113.4 42.5" xml:space="preserve">
<g>
	<path fill="#BE1E2D" d="M100.2,37.7h-1l-4.9-12.2c-0.2-0.4-0.5-0.6-1-0.6h-0.9c-1.3,0-2.5,0.6-3.3,1.5c-1.5-1.4-3.5-2.3-5.7-2.3
		c-0.3,0-0.5,0-0.8,0l-6-2.8v-2c0-0.6-0.5-1-1-1c-0.6,0-1,0.5-1,1v1l-10.1-4.7c-0.1-0.1-0.3-0.1-0.4-0.1H53.6l-3-11.3H51
		c0.6,0,1-0.5,1-1s-0.5-1-1-1H38.5c-0.5,0-0.9,0.3-1,0.8c-0.8,2.9-1.9,7.8-2.4,9.8h-2.5V8.5c0-1.7-1.4-3.1-3.1-3.1c-0.6,0-1,0.5-1,1
		c0,0.6,0.5,1,1,1c0.6,0,1,0.5,1,1v4.1h-7.9c-0.3,0-0.5,0.1-0.7,0.3l-3.3,3.3c-0.2,0.2-0.3,0.5-0.3,0.7v9.4c-1.6,1.5-2.6,3.6-2.6,6
		c0,4.6,3.7,8.3,8.3,8.3c4.2,0,7.7-3.2,8.2-7.2h2.5c0.5,4.1,4,7.2,8.2,7.2c4.6,0,8.3-3.7,8.3-8.3c0-0.9-0.1-1.7-0.4-2.5l2.2-5
		l2.5,2.3v1.3l-1.9,1.5c-0.3,0.2-0.4,0.5-0.4,0.8V37c0,0.6,0.5,1,1,1H72c0.6,0,1-0.5,1-1v-3.7c0-0.4-0.2-0.8-0.6-0.9l-9-4.1v-3.7
		l11.9,5.5c-0.2,0.7-0.3,1.4-0.3,2.2c0,4.6,3.7,8.3,8.3,8.3c2.2,0,4.2-0.9,5.7-2.3c0.8,0.9,2,1.5,3.3,1.5h7.8c0.6,0,1-0.5,1-1
		C101.3,38.2,100.8,37.7,100.2,37.7z M51.4,15.5l-7,0l-2-2.3v-9h6L51.4,15.5z M39.3,4.2h1.1v8.4h-3.1C37.7,10.7,38.6,6.9,39.3,4.2z
		 M24.1,38.5c-3.4,0-6.2-2.8-6.2-6.2c0-3.4,2.8-6.2,6.2-6.2c3.4,0,6.2,2.8,6.2,6.2C30.3,35.8,27.5,38.5,24.1,38.5z M43,38.5
		c-3.4,0-6.2-2.8-6.2-6.2c0-3.4,2.8-6.2,6.2-6.2c3.4,0,6.2,2.8,6.2,6.2C49.2,35.8,46.5,38.5,43,38.5z M51.8,22.8l-2.1,4.6
		c-1.5-2-3.9-3.4-6.7-3.4c-4.2,0-7.7,3.2-8.2,7.2h-2.5c-0.5-4.1-4-7.2-8.2-7.2c-1.3,0-2.5,0.3-3.6,0.8v-7.5l2.7-2.7H41l2.2,2.5
		c0.2,0.2,0.5,0.4,0.8,0.4l7.8,0V22.8z M55.5,24.1h5.8v3.8h-3.6v-1.4c0-0.3-0.1-0.6-0.3-0.8L55.5,24.1z M70.9,36H55.5v-4.8L57,30
		h5.2l8.8,4V36z M63,22.1C62.8,22,62.7,22,62.5,22h-8.7v-4.4h9.9L79.6,25c-1.4,0.7-2.6,1.9-3.4,3.3L63,22.1z M83.4,38.5
		c-3.4,0-6.2-2.8-6.2-6.2c0-3.4,2.8-6.2,6.2-6.2c3.4,0,6.2,2.8,6.2,6.2C89.6,35.8,86.8,38.5,83.4,38.5z M92.4,37.7
		c-0.8,0-1.5-0.4-2-1c0.8-1.3,1.2-2.8,1.2-4.3c0-1.6-0.5-3.1-1.2-4.4c0.4-0.6,1.2-1,2-1h0.2L97,37.7H92.4z"/>
	<path fill="#BE1E2D" d="M27.4,17.5c-0.6,0-1,0.5-1,1V21c0,0.6,0.5,1,1,1c0.6,0,1-0.5,1-1v-2.5C28.4,17.9,27.9,17.5,27.4,17.5z"/>
	<path fill="#BE1E2D" d="M31.5,17.5c-0.6,0-1,0.5-1,1V21c0,0.6,0.5,1,1,1c0.6,0,1-0.5,1-1v-2.5C32.6,17.9,32.1,17.5,31.5,17.5z"/>
	<path fill="#BE1E2D" d="M35.7,17.5c-0.6,0-1,0.5-1,1V21c0,0.6,0.5,1,1,1c0.6,0,1-0.5,1-1v-2.5C36.7,17.9,36.3,17.5,35.7,17.5z"/>
	<path fill="#BE1E2D" d="M24.1,28.2c-2.3,0-4.1,1.8-4.1,4.1c0,2.3,1.8,4.1,4.1,4.1c2.3,0,4.1-1.8,4.1-4.1
		C28.2,30.1,26.3,28.2,24.1,28.2z M24.1,34.4c-1.1,0-2-0.9-2-2c0-1.1,0.9-2,2-2c1.1,0,2,0.9,2,2C26.1,33.5,25.2,34.4,24.1,34.4z"/>
	<path fill="#BE1E2D" d="M43,28.2c-2.3,0-4.1,1.8-4.1,4.1c0,2.3,1.8,4.1,4.1,4.1c2.3,0,4.1-1.8,4.1-4.1C47.2,30.1,45.3,28.2,43,28.2
		z M43,34.4c-1.1,0-2-0.9-2-2c0-1.1,0.9-2,2-2c1.1,0,2,0.9,2,2C45.1,33.5,44.2,34.4,43,34.4z"/>
	<path fill="#BE1E2D" d="M83.4,28.2c-2.3,0-4.1,1.8-4.1,4.1c0,2.3,1.8,4.1,4.1,4.1c2.3,0,4.1-1.8,4.1-4.1
		C87.5,30.1,85.6,28.2,83.4,28.2z M83.4,34.4c-1.1,0-2-0.9-2-2c0-1.1,0.9-2,2-2c1.1,0,2,0.9,2,2C85.4,33.5,84.5,34.4,83.4,34.4z"/>
</g>
</svg>
